<?xml version="1.0" standalone="no"?>
<!DOCTYPE svg PUBLIC "-//W3C//DTD SVG 1.1//EN" "http://www.w3.org/Graphics/SVG/1.1/DTD/svg11.dtd" >
<svg xmlns="http://www.w3.org/2000/svg" xmlns:xlink="http://www.w3.org/1999/xlink" version="1.1">
<metadata>
Created by FontForge 20201107 at Thu May 28 07:50:39 2020
 By Unknown
Copyright (c) 2020, ch
</metadata>
<defs>
<font id="Badaga" horiz-adv-x="292" >
  <font-face 
    font-family="Badaga"
    font-weight="400"
    font-stretch="normal"
    units-per-em="1000"
    panose-1="2 0 5 3 0 0 0 0 0 0"
    ascent="800"
    descent="-200"
    x-height="457"
    cap-height="693"
    bbox="-82 -309 788 836"
    underline-thickness="50"
    underline-position="-100"
    unicode-range="U+0020-007E"
  />
<missing-glyph horiz-adv-x="364" 
d="M33 0v666h265v-666h-265zM66 33h199v600h-199v-600z" />
    <glyph glyph-name=".notdef" horiz-adv-x="364" 
d="M33 0v666h265v-666h-265zM66 33h199v600h-199v-600z" />
    <glyph glyph-name=".null" horiz-adv-x="0" 
 />
    <glyph glyph-name="nonmarkingreturn" horiz-adv-x="333" 
 />
    <glyph glyph-name="space" unicode=" " 
 />
    <glyph glyph-name="exclam" unicode="!" horiz-adv-x="229" 
d="M144 664l-107 -4l18 -475l107 4zM114 139q-41 0 -59 -36q-7 -15 -8 -31q0 -41 37 -59q15 -8 30 -8q41 0 60 37q7 15 8 30q0 41 -37 60q-15 7 -31 7z" />
    <glyph glyph-name="quotedbl" unicode="&#x22;" horiz-adv-x="289" 
d="M113 736l-69 -2l5 -171l69 2zM157 734l-4 -169l69 -2l4 169z" />
    <glyph glyph-name="numbersign" unicode="#" horiz-adv-x="574" 
d="M273 511l-78 -3l-17 -107l-101 -4l-12 -77l101 3l-19 -114l-107 -4l-13 -77l108 4l-16 -100l78 3l16 100l115 4l-18 -107l78 3l17 107l101 4l12 77l-100 -3l18 114l108 4l12 77l-108 -4l16 100l-77 -3l-16 -100l-115 -4zM358 331l-18 -114l-115 -5l18 114z" />
    <glyph glyph-name="dollar" unicode="$" horiz-adv-x="523" 
d="M295 719l-75 -2l1 -47q-10 -3 -18 -5q-100 -31 -133 -104q-29 -64 9 -133q7 -12 16 -22q45 -56 131 -89l4 -208q-81 -5 -175 26l-34 -101q112 -37 210 -32l1 -45l75 1l-1 54q100 26 150 97q46 65 25 141q-5 17 -12 32q-46 84 -169 123l-3 169q57 4 123 -7l17 105
q-52 9 -98 10q-23 0 -44 -1v38zM222 559l2 -124q-30 18 -46 37q-20 26 -11 46q13 25 55 41zM301 291q55 -25 73 -58q16 -32 -5 -63q-21 -28 -65 -45z" />
    <glyph glyph-name="percent" unicode="%" horiz-adv-x="649" 
d="M164 680h-7q-63 -4 -91 -50l-4 -8q-27 -58 -16 -134v-1v-1q21 -76 74 -99q59 -22 120 28q47 42 49 104q1 47 -22 100l-1 1v2q-33 55 -97 58h-5zM513 656l-468 -597l60 -47l468 597zM164 628h4q34 -3 52 -32q18 -42 17 -75q-2 -41 -31 -66q-37 -31 -66 -20q-29 14 -43 63
q-8 59 12 102q11 22 44 27q4 1 7 1h4zM463 302h-7q-63 -4 -91 -51q-2 -4 -4 -7q-27 -58 -16 -134v-1l1 -1q20 -76 73 -99q60 -22 120 28q47 41 50 104q1 47 -23 100v1l-1 1q-33 56 -97 59h-5zM463 250h4q34 -3 52 -32q18 -42 18 -75q-3 -41 -32 -66q-37 -31 -66 -20
q-29 14 -42 62q-9 60 11 102q11 23 44 28q4 0 7 1h4z" />
    <glyph glyph-name="ampersand" unicode="&#x26;" horiz-adv-x="613" 
d="M260 707q-47 -1 -88 -25q-52 -30 -67 -94q-4 -18 -4 -36q2 -66 40 -141q-124 -112 -116 -225q8 -89 92 -143q23 -14 48 -23q107 -39 209 10q11 5 20 10q18 11 33 24q35 -34 73 -70l73 79q-42 39 -78 75q32 62 39 138l-107 10q-3 -36 -12 -64q-50 53 -88 102
q92 76 104 183q0 7 1 14q2 69 -36 117q-43 52 -119 59h-12h-5zM267 600h1q31 -3 44 -20t12 -44q-2 -58 -55 -109l-5 -5q-54 86 -55 131q0 18 3.5 24.5t14.5 12.5q17 10 40 10zM199 318q58 -80 152 -178q-6 -4 -12 -7q-60 -35 -130 -15q-5 2 -8 3q-64 24 -69 74q-3 55 67 123
z" />
    <glyph glyph-name="quotesingle" unicode="'" horiz-adv-x="160" 
d="M45 734l-1 -172l69 -1l1 172z" />
    <glyph glyph-name="parenleft" unicode="(" 
d="M170 836q-186 -210 -137 -514q5 -32 13 -62q17 -75 47.5 -147.5t51.5 -107.5l21 -36l82 54l-35 63q-49 98 -73 197q-69 293 103 488z" />
    <glyph glyph-name="parenright" unicode=")" 
d="M114 827q159 -179 145 -441q-4 -68 -20 -135q-12 -47 -28.5 -94t-32 -81t-29.5 -61t-23 -41l-8 -13l-82 53l36 63q48 98 72 197q69 294 -103 488z" />
    <glyph glyph-name="asterisk" unicode="*" horiz-adv-x="364" 
d="M165 740l-4 -57l-65 50l-25 -33l76 -58l-76 -57l25 -33l62 47v-44l41 -1l1 46l69 -53l25 33l-82 62l82 63l-25 33l-66 -51l3 50z" />
    <glyph glyph-name="plus" unicode="+" horiz-adv-x="529" 
d="M230 523l-1 -181l-181 1v-77l181 -1l-1 -181h77l1 181l181 -1v77l-181 1l1 181h-77z" />
    <glyph glyph-name="comma" unicode="," horiz-adv-x="145" 
d="M128 103l-81 -7l-1 -40q-6 -60 -38 -106l68 -47q29 41 42 91t12 80z" />
    <glyph glyph-name="hyphen" unicode="-" horiz-adv-x="315" 
d="M17 274l-1 -82l277 -2v83z" />
    <glyph glyph-name="period" unicode="." horiz-adv-x="166" 
d="M136 58q-18 -57 -58 -58q-37 0 -52 33q-6 12 -6 25q0 36 31 52q13 6 27 6q43 -3 56 -38q4 -12 2 -20z" />
    <glyph glyph-name="slash" unicode="/" horiz-adv-x="587" 
d="M618 737l-579 -736l60 -47l579 736z" />
    <glyph glyph-name="zero" unicode="0" horiz-adv-x="606" 
d="M293 683h-17q-113 -6 -180 -80q-21 -23 -33 -50q-63 -132 -37 -306v-2l1 -3q41 -161 151 -217q8 -4 16 -7q104 -43 220 28q26 16 50 36q107 93 112 236q3 107 -51 228l-1 3l-2 2q-61 103 -177 127q-26 5 -52 5zM292 576q89 -1 136 -77q43 -97 41 -177q-4 -97 -75 -158
q-89 -75 -159 -47q-65 27 -97 130q-4 10 -6 19q-21 141 27 241q20 41 78 60q23 7 45 9h10z" />
    <glyph glyph-name="one" unicode="1" horiz-adv-x="314" 
d="M220 694l-68 -20l-124 -37l30 -103l57 16l8 -430l-51 -4l8 -107l191 13l-8 108l-33 -3l-9 496z" />
    <glyph glyph-name="two" unicode="2" horiz-adv-x="468" 
d="M240 700q-93 3 -199 -57l54 -94q124 72 190 31q4 -3 7 -5q42 -33 24 -96q-4 -14 -10 -27q-17 -36 -101 -111q-40 -36 -45 -41q-103 -93 -124 -179q-7 -29 -6 -59l1 -54l54 1l343 10l-3 107l-277 -7q20 44 84 102q12 11 37 32q81 69 112 114q13 20 23 39q44 94 9 180
q-19 45 -55 74q-50 38 -118 40z" />
    <glyph glyph-name="three" unicode="3" horiz-adv-x="612" 
d="M327 737q-108 -1 -225 -67l52 -94q94 53 174 54q56 -1 78 -23q7 -8 6 -11q-2 -5 -9 -14q-28 -40 -121 -69q-5 -2 -9 -3l-21 -6l-10 -19l-18 -31l-33 -61l67 -18q130 -33 193 -104q10 -11 16 -21q17 -29 13 -52q-7 -24 -35 -44q-95 -61 -205 -24q-94 32 -143 116l-93 -54
q65 -112 188 -159q139 -53 269 8q23 10 43 23v1h1q66 45 80 112q13 65 -27 129q-51 83 -165 136q65 32 97 77q39 53 21 115q-8 26 -24 44q-54 60 -160 59z" />
    <glyph glyph-name="four" unicode="4" horiz-adv-x="560" 
d="M327 741l-263 -459l-45 -77l89 -3l305 -11l8 -180l107 5l-26 596l-107 -5l13 -308l-207 7l219 382z" />
    <glyph glyph-name="five" unicode="5" horiz-adv-x="514" 
d="M375 704l-249 -10l-48 -2l-4 -48l-16 -234l-5 -62l62 4q140 9 179 0q37 -9 58 -37q8 -11 16 -23q25 -84 -55 -142q-6 -4 -13 -8q-80 -50 -174 -21q-26 8 -49 22l-55 -92q122 -73 255 -36q43 13 80 35q87 54 114 147q19 68 -3 134l-2 5l-3 5q-56 94 -144 115
q-53 12 -150 7l9 126l201 8z" />
    <glyph glyph-name="six" unicode="6" horiz-adv-x="528" 
d="M437 727q-194 0 -311 -129q-37 -41 -61 -91q-66 -140 -35 -292q8 -38 22 -72l1 -2l1 -3q58 -106 160 -135q37 -10 72 -7q100 7 164 86q21 25 34 54q40 91 -1 186q-22 48 -62 83q-85 73 -216 46q-25 -6 -49 -14q5 13 9 22q76 156 272 157v111zM265 350q49 1 83 -29
q41 -35 42 -96q0 -25 -8 -44q-23 -53 -79 -70q-13 -3 -24 -4q-77 -4 -126 81q-19 51 -20 116q76 44 132 46z" />
    <glyph glyph-name="seven" unicode="7" horiz-adv-x="506" 
d="M472 717l-61 -2l-378 -12l3 -117l315 11q-74 -99 -138 -200q-126 -201 -154 -320q-8 -38 -9 -72l116 -4q3 83 104 264q20 36 41 70q33 51 69.5 103.5t56.5 79.5l20 26l12 15l1 20l1 77z" />
    <glyph glyph-name="eight" unicode="8" horiz-adv-x="564" 
d="M281 690q-26 0 -50 -3q-79 -10 -126 -50q-51 -44 -52 -116q0 -14 2 -27v-5l2 -5q24 -68 100 -113q-14 -7 -23 -13q-102 -66 -112 -157v-5v-6q7 -85 82 -140q3 -2 4 -3q68 -46 160 -49v-1h1q118 -1 185 34q62 34 78 97q2 9 3 17q13 102 -75 180q-12 10 -23 18q-1 0 -1 1
q-11 9 -25 19q49 28 75 64q31 44 25 95q-6 48 -45 99q-31 41 -102 58q-2 1 -3 1q-40 9 -80 10zM268 573q35 1 66 -6q11 -3 22 -8t15 -7.5t3 -0.5q19 -27 21 -43q0 -8 -3 -13q-18 -23 -97 -59q-1 0 -4 -2q-12 6 -33 16q-13 7 -19 9q-49 24 -60 39q-6 8 -10 19q0 21 12 31
q21 18 64 23q11 2 23 2zM287 305q41 -24 77 -53l2 -1l1 -1q29 -20 47 -65q7 -17 6 -26q-2 -13 -15 -22q-4 -2 -7 -3q-41 -22 -127 -20q-58 2 -96 29q-31 22 -36 51q8 34 57 65q29 19 91 46z" />
    <glyph glyph-name="nine" unicode="9" horiz-adv-x="538" 
d="M252 715q-8 0 -16 -1q-100 -6 -164 -84q-20 -25 -33 -53q-41 -90 1 -182q22 -49 62 -83q87 -73 220 -44q23 6 46 14q-5 -13 -10 -22q-76 -152 -273 -152v-110q196 -1 313 126q36 41 59 88q67 138 36 287q-8 38 -22 71l-1 3l-2 2q-58 106 -162 133q-27 7 -54 7zM252 605
q72 -1 119 -80q19 -49 20 -112q-141 -81 -218 -17q-41 35 -42 94q1 24 8 42q24 51 79 68q13 4 26 5h8z" />
    <glyph glyph-name="colon" unicode=":" horiz-adv-x="192" 
d="M96 447q-33 1 -49 -32q-5 -13 -6 -26q0 -36 34 -52q12 -5 24 -6q23 1 38 18q13 15 20 40q4 16 -9 34q-18 21 -49 24h-3zM98 138q-34 1 -49 -32q-6 -13 -6 -26q0 -37 33 -52q12 -6 25 -6q22 1 38 18q13 15 20 40q3 16 -10 34q-18 21 -48 24h-3z" />
    <glyph glyph-name="semicolon" unicode=";" horiz-adv-x="214" 
d="M108 462q-33 0 -49 -32q-5 -13 -6 -26q0 -37 33 -52q13 -6 25 -6q42 2 58 58q6 20 -15 40q-17 16 -43 18h-3zM110 153q-34 0 -49 -32q-6 -13 -6 -26q0 -37 33 -53q12 -5 25 -5q12 0 -16 -35q-5 -5 -8 -9q-8 -9 3 -20q10 -8 23 1q49 40 55 114v7q2 28 -23 46
q-15 10 -34 12h-3z" />
    <glyph glyph-name="less" unicode="&#x3c;" horiz-adv-x="526" 
d="M431 458l-375 -141l-27 -10l-2 -30l-1 -26l-1 -31l28 -12l369 -167l37 82l-301 136l305 115z" />
    <glyph glyph-name="equal" unicode="=" horiz-adv-x="580" 
d="M59 380v-77l439 -2v77zM59 203v-77l439 -1v77z" />
    <glyph glyph-name="greater" unicode="&#x3e;" horiz-adv-x="553" 
d="M81 465l-32 -84l306 -115l-302 -136l38 -82l369 167l28 12l-2 31l-1 26l-1 30l-28 10z" />
    <glyph glyph-name="question" unicode="?" horiz-adv-x="448" 
d="M160 655h-9q-56 -1 -117 -16l21 -85q144 36 217 -15q17 -12 25 -25q15 -27 2 -54q-20 -36 -75 -57l-88 -27l-31 -10v-32l3 -134l87 2l-2 101q39 12 57 17h2l1 1q90 33 123 100q33 65 0 130q-2 4 -4 7q-50 85 -179 96q-17 1 -33 1zM152 145q-41 0 -61 -36q-7 -15 -8 -32
q0 -41 37 -60q15 -8 32 -8q41 0 60 36q8 16 8 32q0 41 -36 60q-16 8 -32 8z" />
    <glyph glyph-name="at" unicode="@" horiz-adv-x="848" 
d="M463 647q-64 1 -159 -23h-1l-2 -1q-141 -46 -204 -178q-19 -41 -28 -85q-29 -142 36 -267q15 -28 34 -52v-1q73 -88 163 -113q82 -22 191 3l-20 86q-88 -20 -147 -4q-65 18 -118 83q-59 77 -59 188q1 31 6 59q32 149 172 197q105 25 167 18q92 -12 151 -89
q65 -91 43 -219q-8 -47 -26 -89q-5 -10 -22 -40h-1q-8 0 -17 2l-24 8l-3 2l-3 1q2 -1 0 1q-8 13 -13 26q-11 34 -17 89q-5 49 -4 99q1 43 5 62l9 39l-38 13q-99 35 -197 -17q-30 -17 -54 -39q-67 -63 -64 -155q2 -57 34 -109l1 -3l2 -3q47 -56 138 -51q52 4 108 29
q21 -48 56 -63q21 -10 44 -16q62 -13 99 22q21 21 41 67q23 53 33 110q28 166 -59 286q-82 109 -212 125q-20 2 -41 2zM463 386q4 0 8 -1q-1 -17 -1 -35q-1 -56 4 -110q2 -19 5 -39q-111 -56 -153 -10q-50 87 18 151q48 45 117 44h2z" />
    <glyph glyph-name="A" unicode="A" horiz-adv-x="625" 
d="M386 730zM292 732l-7 -16l-171 -392l-36 -9l12 -46l-91 -209l101 -44l94 214q118 29 241 56q15 -60 30 -123t22 -96l7 -33l108 23l-56 242q-14 53 -26 100q-41 149 -72 230q-21 53 -39 80q-18 26 -19 26q-1 1 -2 1q-33 3 -96 -4zM347 584q27 -70 60 -192
q-79 -17 -159 -35z" />
    <glyph glyph-name="B" unicode="B" horiz-adv-x="613" 
d="M167 734q-45 0 -91 -8l-46 -8v-46l-1 -662h39v-1q240 -35 396 58q112 68 135 174q3 17 4 33q4 80 -60 137q-39 33 -90 45l-10 2q13 30 16 59q5 77 -56 136q-85 79 -230 81h-6zM156 623q102 1 161 -42q6 -4 10 -8q24 -24 22 -47q-4 -33 -45 -69l1 -1q-77 -14 -165 -53v220
h16zM386 353q24 0 43 -4q58 -14 63 -52q2 -8 1 -18q-2 -48 -59 -95q-104 -86 -294 -72v170q144 71 246 71z" />
    <glyph glyph-name="C" unicode="C" horiz-adv-x="563" 
d="M461 726q-193 -2 -315 -126q-16 -17 -30 -35q-94 -121 -89 -276q1 -18 3 -35q16 -130 102 -201q30 -25 66 -38q153 -58 356 90q8 5 14 10l-66 88q-163 -123 -266 -85q-72 27 -93 124q-2 13 -4 25q-13 107 45 203q9 15 19 28q91 116 259 118z" />
    <glyph glyph-name="D" unicode="D" horiz-adv-x="587" 
d="M199 726q-78 -1 -161 -21l4 -20q2 -332 2 -677h110v6q214 20 334 152q97 107 92 243q-1 14 -3 28q-17 126 -119 207q-22 17 -45 31q-93 51 -214 51zM199 616q93 0 160 -37q94 -54 109 -157q14 -105 -60 -187q-85 -92 -254 -110q0 242 -1 489q24 2 46 2z" />
    <glyph glyph-name="E" unicode="E" horiz-adv-x="532" 
d="M448 745l-423 -26l7 -109h1q11 -321 19 -591h15v-9l423 26l-7 110l-324 -20q-4 125 -6 191l243 16l-8 110l-239 -16q-3 104 -6 189l311 19z" />
    <glyph glyph-name="F" unicode="F" horiz-adv-x="511" 
d="M461 714l-423 -13l3 -110h1q1 -310 1 -591h110v295l243 9l-4 110l-240 -9v190l312 9z" />
    <glyph glyph-name="G" unicode="G" horiz-adv-x="682" 
d="M413 712q-137 2 -235 -70q-115 -85 -146 -232q-7 -35 -9 -70q-5 -141 77 -237q28 -32 63 -55q143 -91 363 -9q31 11 62 26l33 15l-1 36l-9 248l-2 56l-55 -3l-222 -9l5 -110l166 7l5 -155q-182 -75 -286 -9q-77 49 -88 157q-1 19 -1 38q4 110 76 187q16 17 34 30
q122 88 315 20l37 103q-94 34 -182 36z" />
    <glyph glyph-name="H" unicode="H" horiz-adv-x="565" 
d="M154 692h-110q0 -2 1 -323l-12 -5l12 -23v-341h110v295q113 39 233 46v-341h110v340h9l9 109q-10 1 -19 2l-1 241h-110q0 -2 1 -241q-118 -6 -232 -41z" />
    <glyph glyph-name="I" unicode="I" horiz-adv-x="268" 
d="M85 693q0 -1 -9 -691l110 -2l9 692z" />
    <glyph glyph-name="J" unicode="J" horiz-adv-x="538" 
d="M456 721l-48 -2l-191 -5h-44l-1 -110q90 -1 192 3q28 -211 -3 -349q-20 -83 -76 -125q-17 -12 -32 -16q-28 -6 -53 13q-39 30 -66 104l-103 -37q39 -107 103 -155q67 -50 144 -32q101 24 159 136q20 41 31 87v0q21 107 20 205t-12 167l-11 69z" />
    <glyph glyph-name="K" unicode="K" horiz-adv-x="547" 
d="M400 706q-55 -78 -196 -206q-21 -19 -42 -37l-1 235l-110 -1q0 -1 2 -691h110q0 136 -1 312q25 21 48 41q124 -253 207 -372l90 63q-78 112 -211 385q136 125 194 208z" />
    <glyph glyph-name="L" unicode="L" horiz-adv-x="497" 
d="M161 726h-110q0 -2 1 -652v-65l65 11l119 15q143 13 247 3l11 109q-146 14 -332 -9z" />
    <glyph glyph-name="M" unicode="M" horiz-adv-x="700" 
d="M649 689l-62 -8l-23 -3l-21 -3l-14 -16l-136 -166q-35 -43 -61 -77q-32 45 -72 99l-105 146l-17 24l-29 -1l-19 -1l-54 -1l1 -54l6 -623l110 1l-5 477q5 -6 10 -13q7 -10 13 -19q44 -61 75 -104q10 -13 20 -27.5t14.5 -21l4.5 -6.5l45 -70l47 68q47 69 162 209v-499h110
v626v63z" />
    <glyph glyph-name="N" unicode="N" horiz-adv-x="630" 
d="M149 689l-32 -4l-30 -3l-49 -6v-49l5 -624h110l-4 494l320 -455l14 -21l26 -2l23 -2l61 -6l-1 61l-9 610l-110 -2l7 -462l-312 444z" />
    <glyph glyph-name="O" unicode="O" horiz-adv-x="685" 
d="M328 714q-30 0 -58 -7q-158 -33 -220 -176q-54 -124 -17 -271q35 -139 132 -211q80 -59 177 -49h3q143 11 227 115q10 13 19 25q71 112 54 259t-110 237q-87 81 -207 78zM344 605q65 -1 114 -49q64 -61 78 -166v-4q12 -108 -38 -186q-55 -83 -163 -90h-2h-1
q-83 -11 -147 76q-61 83 -62 192q-1 126 86 187q36 25 84 35q27 6 51 5z" />
    <glyph glyph-name="P" unicode="P" horiz-adv-x="515" 
d="M152 699l-110 -1q0 -2 2 -692h110q0 100 -1 219q251 25 332 156q10 18 17 36q35 90 -12 170q-30 49 -79 72q-80 35 -183 36q-36 0 -76 -3v7zM226 585q82 -1 140 -27q24 -10 35 -46q8 -30 -1 -56q-28 -72 -160 -105q-40 -10 -87 -16q0 135 -1 246q41 4 74 4z" />
    <glyph glyph-name="Q" unicode="Q" horiz-adv-x="745" 
d="M354 715h-4q-11 0 -20 -1q-164 -13 -244 -151q-68 -117 -48 -268q19 -145 109 -227q70 -62 162 -64q2 -1 3 -1q125 -6 217 64l98 -79l69 86l-93 75q57 92 59 210q2 148 -79 250q-76 94 -200 105q-15 1 -29 1zM359 606q86 -1 138 -66q56 -71 55 -179q-2 -79 -36 -142
l-81 65l-69 -85l74 -60q-52 -30 -124 -26h-1h-2q-82 1 -133 92q-52 91 -39 200q14 122 104 173q41 22 94 27h13q4 1 7 1z" />
    <glyph glyph-name="R" unicode="R" horiz-adv-x="565" 
d="M152 698l-110 -1q0 -1 1 -692h110v261q41 -1 78 1l191 -284l91 61l-166 248q100 37 139 117q40 84 5 165q-26 59 -81 84q-79 35 -182 36q-36 0 -76 -3v7zM226 584q81 -1 139 -26q18 -8 26 -43q8 -32 -5 -59q-40 -84 -206 -81q-14 1 -27 1q-1 125 -1 205q40 3 74 3z" />
    <glyph glyph-name="S" unicode="S" horiz-adv-x="547" 
d="M349 727q-76 2 -136 -18q-100 -34 -133 -111q-29 -71 13 -144q6 -10 12 -17q55 -73 170 -111q83 -27 107 -75q17 -38 -6 -73q-32 -51 -115 -63q-86 -12 -191 26l-38 -103q187 -68 326 -10q72 31 111 90q47 73 22 155q-4 14 -10 26q-46 91 -172 132q-83 27 -116 71
q-21 30 -11 54q15 31 66 49q73 23 181 4l19 108q-52 9 -99 10z" />
    <glyph glyph-name="T" unicode="T" horiz-adv-x="416" 
d="M387 693l-168 -1h-63v-2l-138 -6l4 -110l135 6q1 -307 1 -580h110q0 279 -1 583h123z" />
    <glyph glyph-name="U" unicode="U" horiz-adv-x="610" 
d="M531 709l-108 -19q51 -289 33 -414q-11 -75 -44 -114q-35 -41 -101 -51q-43 -6 -73 9q-34 19 -56 67q-64 137 -32 468l-110 10q-34 -361 42 -525q39 -83 105 -118q63 -32 141 -20q107 18 168 89q54 64 69 169q20 137 -26 406q-4 20 -8 43z" />
    <glyph glyph-name="V" unicode="V" horiz-adv-x="682" 
d="M533 732l-250 -545l-155 510l-105 -32l197 -649l102 -7l311 677z" />
    <glyph glyph-name="W" unicode="W" horiz-adv-x="785" 
d="M655 692q-30 -110 -55 -297q-16 -122 -23 -171l-146 174l-41 60l-41 -63l-126 -167q-24 317 -56 444l-123 -5q17 -104 35.5 -248.5t27.5 -236.5l10 -93l7 -64l55 -6l38 -4l29 -3l19 23l130 216l158 -210l15 -16l22 -1l39 -2l74 -3l-2 78q-4 154 40 392q24 124 47 188z
" />
    <glyph glyph-name="X" unicode="X" horiz-adv-x="657" 
d="M158 720l-89 -64l198 -271q-147 -186 -241 -305l86 -69q84 107 222 281l216 -295l89 65l-234 320l204 260l-86 68q-1 -2 -185 -236z" />
    <glyph glyph-name="Y" unicode="Y" horiz-adv-x="610" 
d="M112 719l-89 -63l241 -338l-140 -260l97 -52l355 660l-97 52l-157 -292z" />
    <glyph glyph-name="Z" unicode="Z" horiz-adv-x="572" 
d="M69 691l-5 -110l309 -13l-327 -420l-13 -17l2 -21l5 -53l4 -49h50l415 -6l1 110l-349 5l334 428l14 18l-3 23l-5 41l-7 45l-45 2z" />
    <glyph glyph-name="bracketleft" unicode="[" horiz-adv-x="250" 
d="M164 813q-2 0 -55 -19q-25 -11 -39 -18q-11 -7 -18 -13q-7 -7 -10 -14q-5 -9 -5 -21l1 -688q0 -19 14 -33q7 -7 16 -13q13 -9 33 -19l45 -22l31 71q-1 1 -40 19q-12 7 -21 12l-2 656q12 6 24 11l50 18zM116 43v-3v3z" />
    <glyph glyph-name="backslash" unicode="\" horiz-adv-x="529" 
d="M-22 777l-60 -47l579 -736l60 47z" />
    <glyph glyph-name="bracketright" unicode="]" horiz-adv-x="250" 
d="M63 813q2 0 55 -19q25 -11 39 -18q11 -7 18 -13q7 -7 11 -14q4 -9 4 -21l-1 -688q0 -19 -14 -33q-7 -7 -15 -13q-14 -9 -34 -19l-45 -22l-31 71q2 1 40 19q12 7 21 12l2 656q-12 6 -24 11l-50 18zM111 43v-3v3z" />
    <glyph glyph-name="asciicircum" unicode="^" horiz-adv-x="406" 
d="M212 796l-25 -25l-108 -108l51 -51l83 83l76 -73l50 53l-101 96z" />
    <glyph glyph-name="underscore" unicode="_" horiz-adv-x="532" 
d="M24 78v-76l477 -2v77z" />
    <glyph glyph-name="grave" unicode="`" horiz-adv-x="238" 
d="M88 761l-41 -56l21 -20q33 -40 44 -92l68 14q-6 28 -17.5 54.5t-24 43.5t-24 30.5t-19.5 19.5zM88 761l-41 -56l21 -20q33 -40 44 -92l68 14q-6 28 -17.5 54.5t-24 43.5t-24 30.5t-19.5 19.5z" />
    <glyph glyph-name="a" unicode="a" horiz-adv-x="460" 
d="M281 438q-110 -4 -190 -76q-80 -73 -75 -174q5 -90 73 -142q90 -68 227 -18q13 5 25 10q3 -7 9.5 -18t12.5 -19l5 -8l29 14q34 22 46 52q2 -1 0 2q-10 14 -15 28q-13 38 -19 99q-6 54 -5 110q1 48 6 68l10 43l-43 15q-47 15 -96 14zM296 339h9q-1 -19 -1 -39
q-2 -63 5 -122q2 -21 5 -43q-116 -58 -172 -10q-39 34 -25 93q10 42 43 73q53 48 130 48h6z" />
    <glyph glyph-name="b" unicode="b" horiz-adv-x="472" 
d="M133 730l-107 -3l21 -717l107 3l-1 26q107 -21 184 33q83 59 98 167q1 9 2 17q7 100 -55 163q-13 13 -27 23q-49 32 -115 31q-47 -1 -99 -18zM244 366q31 -1 51 -14q39 -27 35 -88q-5 -62 -48 -98q-4 -4 -7 -6q-51 -35 -125 -9l-5 190q58 25 99 25z" />
    <glyph glyph-name="c" unicode="c" horiz-adv-x="410" 
d="M228 451q-90 -2 -151 -71q-28 -34 -43 -78q-1 -1 -1 -3q-37 -98 12 -187q21 -36 52 -62q81 -63 192 -43q47 10 91 33l-51 95q-98 -53 -165 0q-57 45 -33 119q1 5 3 9l1 2v1q21 66 86 74q35 4 53 -10l69 82q-48 40 -115 39z" />
    <glyph glyph-name="d" unicode="d" horiz-adv-x="460" 
d="M318 696l-11 -263q-5 0 -9 1q-134 0 -211 -64q-73 -62 -73 -159q0 -17 3 -33q15 -90 87 -138q15 -10 31 -16q72 -30 156 4l-1 -24l107 -4l29 692zM289 326h14l-7 -172q-69 -52 -120 -31q-39 16 -51 63q-2 5 -2 10q-9 56 33 92q46 37 133 38z" />
    <glyph glyph-name="e" unicode="e" horiz-adv-x="450" 
d="M261 487q-16 0 -33 -2h-2h-2q-101 -18 -153 -92q-16 -23 -25 -50q-45 -114 -3 -212q15 -32 36 -57q53 -57 135 -66q85 -7 189 40l-44 98q-79 -35 -135 -31q-41 5 -64 31l-2 2q117 50 181 97l1 1q83 66 67 149q-9 46 -55 72l-8 4q-35 16 -83 16zM261 379q26 0 38 -6
q1 0 2 -1q-12 -29 -27 -41q-50 -37 -140 -76q3 26 12 49v2l1 1q19 57 93 71q12 1 21 1z" />
    <glyph glyph-name="f" unicode="f" horiz-adv-x="353" 
d="M315 751l-67 -14q-12 -3 -22 -7q-44 -14 -70 -31q-48 -35 -49 -82q0 -5 1 -86q-32 -12 -52 -34q-23 -28 -25 -53q-1 -9 -1 -20l80 2q0 -59 -1 -203q0 -139 -1 -206h108q0 196 -1 415q61 -2 93 -2l-2 108q-13 0 -91 3v29v38v1l1 1q15 9 42 18q16 5 34 9.5t28 5.5l11 2z
" />
    <glyph glyph-name="g" unicode="g" horiz-adv-x="487" 
d="M79 368q-71 -76 -60 -184q2 -14 4 -26q19 -90 87 -132q23 -14 48 -20q80 -17 164 42q0 -29 -2 -53q-9 -103 -43 -151q-28 -38 -81 -47q-19 -3 -35 0q-14 2 -34.5 11t-33.5 16l-13 7l-26 -46q-14 -32 -14 -50q75 -60 185 -35q90 21 137 82q57 80 63 204q4 87 2 334v19v7
q-2 16 -2 42.5v45.5v18l-105 -2l-2 -16l-42 11q-25 3 -43 1q-86 -11 -143 -67zM289 344h25q28 -250 -111 -238q-11 1 -21 3q-35 8 -51 55q-3 8 -5 16q-13 66 27 113q2 3 3 4q46 47 133 47z" />
    <glyph glyph-name="h" unicode="h" horiz-adv-x="481" 
d="M164 704l-107 -1q0 -1 1 -691h108v236q2 59 51 77q47 14 75 -24q21 -31 26 -111q2 -32 3 -110v-16.5v-15.5v-17v-16t1 -17l107 2q-1 26 -1 76q0 83 -2 121q-8 112 -46 166q-50 69 -135 72q-6 1 -11 1q-27 -1 -52 -10q-9 -3 -17 -6z" />
    <glyph glyph-name="i" unicode="i" horiz-adv-x="212" 
d="M106 645q-37 0 -54 -34q-7 -14 -7 -28v-2v-1q4 -27 20 -43q18 -17 44 -16q38 3 54 36q5 13 6 26v3l-1 3q-6 23 -19 38q-17 17 -41 18h-1h-1zM160 450l-108 -8q4 -52 3 -205q0 -26 -0.5 -40t-0.5 -39v-42.5t0.5 -39t1 -41.5t1.5 -39l107 4q-2 42 -1 300q0 97 -3 150z" />
    <glyph glyph-name="j" unicode="j" horiz-adv-x="280" 
d="M166 600q-37 0 -54 -34q-7 -14 -7 -28v-2v-1q4 -27 20 -43q18 -17 44 -16q38 3 54 36q6 13 6 26v3l-1 3q-6 24 -19 38q-17 17 -41 18h-1h-1zM229 432l-62 -10l-127 -20l17 -106l64 10q0 -81 -1.5 -155.5t-3 -130t-1.5 -102.5q0 -27 -44 -71q-7 -8 -14 -14
q-10 -8 -20.5 -16t-18.5 -13.5t-15 -10t-11 -6.5l-3 -2l51 -94l50 32q20 14 37 28q88 76 95 153q1 8 1 14q-1 52 2 150q4 161 4 301v63z" />
    <glyph glyph-name="k" unicode="k" horiz-adv-x="445" 
d="M147 714l-107 -1q0 -1 2 -692h107q0 129 48 219q8 -3 13 -6q81 -43 81 -232q0 -1 1 -2h107q0 230 -114 314q-11 8 -21 14l1 1q3 2 3 3q27 24 55.5 41t43.5 23l16 5l-28 104l-47 -19q-63 -30 -112 -75q-26 -24 -47 -51z" />
    <glyph glyph-name="l" unicode="l" horiz-adv-x="204" 
d="M48 745q0 -125 2 -369q1 -200 0 -260q0 -25 8 -48t19 -38.5t22 -27.5t18 -18l8 -5l60 89l-15 16q-12 17 -12 32q0 60 -1 260q-1 244 -1 369h-108z" />
    <glyph glyph-name="m" unicode="m" horiz-adv-x="662" 
d="M126 490l-94 -52q3 -7 7 -34q4 -31 6 -80q3 -77 0 -208h1v-42q-1 -50 -1 -76l107 -2q1 28 1 81q1 76 3 106q5 76 25 105q29 40 68 56q5 1 7 1q3 0 3 -1q1 -2 2 -3q12 -22 13 -72l-2 -194h12v-3l51 2h44v1l13 1l-6 188q18 54 54 76q3 2 6 3q12 5 21 1q11 -4 22 -22
q1 -1 1 -2q32 -58 33 -137q0 -22 -2 -72q-3 -71 -3 -113l108 2q-1 35 2 100q3 57 2 85q-2 107 -46 188q-31 53 -80 72q-24 9 -50 8q-25 -1 -48 -10q-32 -14 -58 -39q-33 45 -84 49h-4q-60 1 -113 -43q-1 5 -1 8q-7 48 -20 72z" />
    <glyph glyph-name="n" unicode="n" horiz-adv-x="448" 
d="M38 465q0 -1 -4 -349h1v-41q0 -49 -1 -74l108 -3q1 28 1 80q0 73 2 104q5 73 26 102q28 38 75 54q11 4 19 4q12 -1 18 -9q14 -19 15 -64v-1v-1l9 -258l107 4l-9 258q-1 80 -36 126q-37 48 -100 50h-3q-64 0 -121 -40v58h-107z" />
    <glyph glyph-name="o" unicode="o" horiz-adv-x="456" 
d="M214 464q-23 -1 -44 -6q-77 -21 -119 -99q-9 -17 -15 -35q0 -1 -1 -3q-40 -107 7 -204q16 -30 37 -54q60 -64 153 -59q62 4 119 40q80 52 89 158q2 22 0 43q-8 101 -77 159q-19 14 -38 24q-49 37 -111 36zM216 356q27 0 45 -15l6 -5l7 -3q46 -20 57 -81q2 -8 2 -15
q5 -62 -31 -95q-5 -5 -9 -8q-79 -50 -127 -6l-8 8q-38 41 -31 107q2 22 10 42v2l1 1q18 54 60 66q9 2 18 2z" />
    <glyph glyph-name="p" unicode="p" horiz-adv-x="472" 
d="M67 435l-29 -692l108 -4l10 263q141 -4 221 63q73 62 73 159q0 17 -3 33q-15 90 -87 138q-15 10 -31 16q-31 13 -66 14q-45 0 -90 -18l1 24zM256 319q17 -1 32 -7q39 -16 51 -63l2 -10q9 -56 -33 -92q-50 -40 -147 -38l7 172q49 37 88 38z" />
    <glyph glyph-name="q" unicode="q" horiz-adv-x="466" 
d="M331 473q-7 -20 -12 -43q-30 9 -59 10q-55 0 -101 -24q-89 -46 -123 -147q-4 -13 -7 -26q-21 -91 28 -160q18 -26 43 -43q77 -52 205 -35q4 -63 12 -115q18 -110 49 -157l89 60q-17 25 -30 106l-2 8q-8 54 -12 122h1l1 1l-3 8q-2 34 -3 67q-2 109 5 203q7 91 20 128z
M257 335q24 -1 48 -13v-6q-8 -95 -5 -202q-96 -15 -139 15q-41 29 -27 91q13 56 59 91q8 6 16 10q26 14 48 14z" />
    <glyph glyph-name="r" unicode="r" horiz-adv-x="335" 
d="M149 459l-107 -8q4 -51 2 -205q-1 -51 -0.5 -120t2.5 -121l107 5q-3 71 -1 223v2v2v2v1q1 43 41 70q2 1 2 2q52 32 141 34l-2 108q-109 -3 -183 -43q-1 27 -2 48z" />
    <glyph glyph-name="s" unicode="s" horiz-adv-x="360" 
d="M219 474q-48 0 -87 -12q-68 -24 -92 -78q-22 -54 11 -108q3 -5 6 -8q37 -49 112 -73q40 -13 50 -34q5 -12 -2 -22q-17 -27 -67 -29q-41 -2 -89 15l-37 -101q131 -47 224 2q37 21 59 54q36 55 14 116q-2 7 -5 12q-31 62 -115 89q-42 14 -57 35q-6 8 -5 11q4 9 24 16
q2 0 2 1q39 11 97 1l19 106q-33 6 -62 7z" />
    <glyph glyph-name="t" unicode="t" horiz-adv-x="304" 
d="M108 669v-63v-70q-52 -2 -92 -4l7 -108q37 3 85 4q-1 -81 -2 -202v-98q0 -43 33 -76q21 -20 53 -35q16 -7 32.5 -13t26.5 -8l9 -2l22 105l-40 13q-3 1 -4 2q-16 8 -24 15q0 1 -1 1q0 30 1 98q1 122 1 203q42 1 92 1l-1 108q-47 -1 -91 -2v69v62h-107z" />
    <glyph glyph-name="u" unicode="u" horiz-adv-x="433" 
d="M397 457l-107 -2l4 -269q-2 -58 -50 -76q-47 -14 -76 25q-21 30 -26 110q0 1 -3 176v17l-108 -3q1 -26 1 -76q0 -83 3 -121q7 -112 46 -166q49 -69 135 -72q33 -1 63 9q71 24 105 95q17 39 18 81v1v1z" />
    <glyph glyph-name="v" unicode="v" horiz-adv-x="422" 
d="M354 531l-154 -350q-59 226 -76 276q-2 6 -4 10l-101 -36q15 -40 70 -256q30 -113 50 -170l100 -3l213 486z" />
    <glyph glyph-name="w" unicode="w" horiz-adv-x="604" 
d="M473 491l-62 -289l-51 118l-21 48l-49 -20l-33 -13l-19 -8l-9 -19l-60 -127l-59 294l-105 -21l80 -404l9 -46l46 3l34 1l32 2l14 29l75 158l66 -150l17 -39l42 7l27 5l36 6l8 36l87 406z" />
    <glyph glyph-name="x" unicode="x" horiz-adv-x="512" 
d="M168 504l-95 -51q43 -80 109 -179l-1 -1l-1 -1q-122 -143 -156 -216l97 -45q25 53 124 171q105 -147 165 -196l68 83q-47 38 -142 170q-5 7 -10 13q-4 6 -9 13q84 92 150 153l-72 79q-64 -58 -139 -140q-54 84 -88 147z" />
    <glyph glyph-name="y" unicode="y" horiz-adv-x="448" 
d="M48 463q-44 -155 -16 -285q4 -19 10 -37q30 -89 103 -117q8 -3 16 -5q60 -16 135 12q-1 -7 -2 -13q-11 -98 -53 -160q-34 -50 -86 -57q-17 -2 -36 -1l-4 -108q120 -4 195 81q11 12 20 25q54 80 69 190l2 18q11 96 9 325q-1 85 2 116l-107 12q-5 -45 -3 -232v-75
q-75 -40 -114 -29q-29 9 -44 52q-24 73 -4 203q5 32 12 55z" />
    <glyph glyph-name="z" unicode="z" horiz-adv-x="486" 
d="M224 485q-115 -1 -176 -27l43 -99q40 18 148 18h9h7h5l-215 -283l48 -86q1 0 135 9q140 6 193 -9l29 104q-69 19 -227 12h-13q-5 -1 -8 -1l205 269l-37 86l-109 6h-11q-15 1 -26 1z" />
    <glyph glyph-name="braceleft" unicode="{" horiz-adv-x="259" 
d="M198 827q-2 -1 -52 -13q-26 -9 -41 -20q-31 -22 -31 -52l-2 -281l-35 -36l-27 -27l27 -27l29 -30v-290q0 -28 27 -49q15 -11 37 -21l49 -18l21 75q-1 0 -38 13q-10 5 -18 10v296v16l-11 12l-14 13l19 20l11 11l1 16l1 287q9 4 19 8l40 10z" />
    <glyph glyph-name="bar" unicode="|" horiz-adv-x="163" 
d="M114 780h-76l2 -787l77 1z" />
    <glyph glyph-name="braceright" unicode="}" horiz-adv-x="259" 
d="M45 830q2 0 52 -12q26 -9 41 -20q31 -22 32 -52l1 -281l35 -36l27 -27l-27 -28l-29 -29v-290q0 -28 -27 -49q-15 -12 -37 -22l-49 -17l-21 74q1 1 38 14q10 5 18 10v296v16l11 12l14 13l-19 20l-11 11l-1 16l-1 287q-9 4 -19 8l-40 10z" />
    <glyph glyph-name="asciitilde" unicode="~" horiz-adv-x="400" 
d="M271 318q-5 1 -9 0q-21 -1 -60 -14q-52 -18 -99 -11q-22 4 -48 11l-19 -66q101 -29 188 0q31 11 42 11q18 0 40 -12l34 60q-36 20 -69 21z" />
    </font>
</defs>
</svg>
