<?xml version="1.0" standalone="no"?>
<!DOCTYPE svg PUBLIC "-//W3C//DTD SVG 1.1//EN" "http://www.w3.org/Graphics/SVG/1.1/DTD/svg11.dtd" >
<svg xmlns="http://www.w3.org/2000/svg" xmlns:xlink="http://www.w3.org/1999/xlink" version="1.1">
<metadata>
Created by FontForge 20230101 at Thu Aug  4 02:23:38 2022
 By Unknown
Copyright (c) 2022 by Khurasan. All rights reserved.
</metadata>
<defs>
<font id="Bluetea" horiz-adv-x="424" >
  <font-face 
    font-family="Bluetea"
    font-weight="400"
    font-stretch="normal"
    units-per-em="1000"
    panose-1="0 0 0 0 0 0 0 0 0 0"
    ascent="800"
    descent="-200"
    x-height="487"
    cap-height="882"
    bbox="-381 -368.161 992.231 921"
    underline-thickness="50"
    underline-position="-100"
    unicode-range="U+000D-2122"
  />
<missing-glyph horiz-adv-x="501" 
d="M411 -200h-318v1003h318v-1003zM168 119v-113h166v113h-166zM301 39h-100v47h100v-47zM234 292v-56h34v23h33v-47h-100v80h-33v-113h166v113h-100zM301 415v-66h-133v-34h166v100h-33zM168 475v-33h66v-37h-66v-33h100v70h66v33h-166zM234 536h-33v36h33v-36zM168 606
v-104h166v34h-66v70h-100zM169 736v-33h65v-37h-66v-34h166v34h-66v37h66v33h-165zM168 -17v-34h70l-70 -47v-33h166v33h-102l70 47h32v34h-166z" />
    <glyph glyph-name=".notdef" horiz-adv-x="501" 
d="M411 -200h-318v1003h318v-1003zM168 119v-113h166v113h-166zM301 39h-100v47h100v-47zM234 292v-56h34v23h33v-47h-100v80h-33v-113h166v113h-100zM301 415v-66h-133v-34h166v100h-33zM168 475v-33h66v-37h-66v-33h100v70h66v33h-166zM234 536h-33v36h33v-36zM168 606
v-104h166v34h-66v70h-100zM169 736v-33h65v-37h-66v-34h166v34h-66v37h66v33h-165zM168 -17v-34h70l-70 -47v-33h166v33h-102l70 47h32v34h-166z" />
    <glyph glyph-name="NULL" horiz-adv-x="0" 
 />
    <glyph glyph-name="nonmarkingreturn" unicode="&#xd;" horiz-adv-x="346" 
 />
    <glyph glyph-name="space" unicode=" " horiz-adv-x="402" 
 />
    <glyph glyph-name="percent" unicode="%" horiz-adv-x="593" 
d="M151 381q-14 2 -24 3t-21 3q-48 13 -73.5 52t-17.5 88q5 30 21.5 59t40.5 53.5t53.5 42.5t60.5 25q13 3 27 2t26 -5.5t20.5 -13.5t11.5 -22q1 -3 2 -5.5t3 -5.5q14 -17 26.5 -33.5t25.5 -34.5q14 10 30.5 21t33.5 19q22 12 52 17q16 2 29 -5t21 -20q15 -29 -4 -54
q-9 -11 -19 -21l-20 -20q-53 -51 -101.5 -102.5t-92.5 -109.5q-23 -32 -45 -65t-42 -68q3 1 7 2.5t7 3.5q24 14 47 27.5t49 27.5l12 8t9 9q7 15 21 27t32.5 18t39.5 6t43 -8q28 -10 49 -29.5t32.5 -44.5t13 -53.5t-10.5 -55.5q-19 -48 -55 -78t-87 -41q-35 -7 -63 0
t-48 23.5t-30 40t-7 47.5q0 1 -1 2t-1 4q-7 -4 -11.5 -7.5t-9.5 -7.5q-48 -39 -78 -91q-7 -12 -17.5 -21t-22.5 -15q-31 -20 -55 6q-25 25 -25 62q0 26 5.5 51.5t14.5 51.5q21 54 46.5 105.5t54.5 102.5q4 5 7 12t8 15zM207 590q-23 -18 -40 -38t-25 -45q-10 -24 17 -22
q21 4 38.5 13.5t26.5 28.5q8 18 1.5 33t-18.5 30zM419 191q-22 -20 -37.5 -45t-17.5 -44q25 -2 43.5 9.5t27.5 31.5q6 16 3 26t-19 22z" />
    <glyph glyph-name="ampersand" unicode="&#x26;" horiz-adv-x="736" 
d="M330 347q27 -22 52 -42.5t52 -42.5q27 43 35 91q2 13 -4 22q-6 13 -3 26.5t12.5 24.5t24 16.5t32.5 2.5q58 -11 69 -73q5 -29 2 -58t-11 -57q-5 -19 -11 -36.5t-14 -38.5q8 -3 15 -7.5t16 -9.5q17 -11 36 -22t37 -25q11 -7 17 -17.5t1 -24.5q-8 -28 -36 -31
q-17 -1 -35.5 -1.5t-34.5 3.5q-27 6 -52 14.5t-54 18.5q-5 -4 -10.5 -8t-12.5 -10q-60 -40 -125 -63t-139 -23q-20 0 -39.5 3.5t-38.5 9.5q-37 11 -64.5 33.5t-43.5 52t-19.5 64.5t8.5 71q12 41 37.5 73t56.5 60q15 12 29.5 23.5t28.5 22.5q-5 19 -10 37t-8 37
q-20 82 23 157q103 172 304 179q31 0 56 -7q32 -9 55.5 -27.5t36.5 -43t15 -54t-9 -60.5q-8 -26 -23.5 -49.5t-35.5 -43.5q-29 -34 -64.5 -62t-73.5 -53q-19 -12 -38 -24.5t-42 -27.5zM467 664q-13 2 -23 4.5t-20 1.5q-43 -6 -78.5 -23.5t-63.5 -49.5q-20 -20 -31 -52
q-6 -19 -5.5 -38.5t11.5 -40.5q23 17 44 30.5t42 29.5q24 19 47 38.5t44 41.5q11 11 20 24.5t13 33.5zM221 269q-23 -20 -45 -39.5t-38 -46.5q-17 -29 -7 -47.5t45 -18.5q23 0 44.5 3t42.5 8q20 6 39.5 13.5t35.5 20.5q-30 27 -58.5 53t-58.5 54z" />
    <glyph glyph-name="underscore" unicode="_" 
d="M322 95q9 -1 22 -5q17 -5 24.5 -16t7.5 -25q-1 -14 -11.5 -24.5t-27.5 -12.5q-34 -4 -71 -6q-42 -4 -84 -7t-85 -7q-18 0 -34 3q-27 6 -40.5 20.5t-13.5 34.5q1 21 16 36.5t39 19.5q12 1 45.5 0.5t73.5 -3t78.5 -5t60.5 -3.5z" />
    <glyph glyph-name="question" unicode="?" horiz-adv-x="640" 
d="M431 718q-57 2 -109.5 -8t-103.5 -34q-25 -13 -46 -28.5t-38 -36.5q-8 -11 -12.5 -23t6.5 -27q8 -12 2.5 -24t-19.5 -20q-20 -12 -42.5 -5.5t-37.5 26.5q-16 22 -17 46.5t6 48.5q8 27 25 50.5t38 43.5q51 47 110 74t126 38q99 21 202 1q19 -4 37.5 -9.5t35.5 -15.5
q42 -23 59 -64.5t3 -89.5q-8 -32 -26 -59t-41 -49q-27 -26 -55.5 -50t-57.5 -49q-23 -20 -48 -40t-49 -40q-31 -26 -52.5 -57t-31.5 -72q-4 -12 -7.5 -23t-7.5 -23q-6 -17 -18 -28t-31 -12q-39 -3 -56 35q-9 17 -14 36q-11 67 -2 128.5t54 116.5q23 28 49.5 51.5t56.5 45.5
q29 20 59.5 41t59.5 44q22 15 34.5 26t13.5 18t-12 11t-43 6zM200 -19q-27 0 -44 17.5t-17 46.5q-1 30 18.5 51t45.5 20q12 0 23.5 -6.5t21 -16.5t15.5 -22.5t6 -25.5q0 -26 -20.5 -44.5t-48.5 -19.5z" />
    <glyph glyph-name="greater" unicode="&#x3e;" horiz-adv-x="405" 
d="M299 555q14 0 24 -6.5t14 -17.5q8 -26 -15 -40q-15 -11 -35 -17q-28 -8 -57 -15.5t-58 -15.5q-8 -3 -17.5 -3h-17.5q-21 0 -28 20q-5 23 12 34q2 2 6 4t6 4q78 24 156 51q2 1 5 1t5 1zM204 -21q-38 8 -79 19.5t-80 33.5q-10 6 -17 16q-11 15 -2 31q9 17 30 12
q8 -2 16.5 -5t16.5 -6q32 -10 64.5 -19t64.5 -18q2 -1 3.5 -1.5t3.5 -2.5q34 -9 29 -34q-5 -24 -37 -26h-13zM179 225q-17 2 -26.5 12t-10.5 24q0 28 34 32q33 6 62.5 9.5t58.5 1.5q9 -1 19 -2.5t18.5 -5t14 -10.5t5.5 -18q0 -9 -7 -18.5t-19 -11.5q-41 -6 -77 -9.5
t-72 -3.5z" />
    <glyph glyph-name="asciicircum" unicode="^" horiz-adv-x="415" 
d="M225 642q-17 -18 -32.5 -35t-30.5 -33q-8 -9 -15.5 -17t-16.5 -13q-13 -11 -28 -10.5t-25 10.5q-11 10 -11 24.5t11 28.5l40 48t41 48q19 22 38.5 43.5t38.5 44.5q32 36 66 23q19 -8 28 -26t7 -42q-2 -22 -3 -44.5t-2 -45.5q0 -29 20 -54q11 -13 11 -26.5t-8 -24.5
q-17 -22 -48 -13q-24 7 -39 23t-23 38q-6 12 -9.5 25t-9.5 28z" />
    <glyph glyph-name="bracketright" unicode="]" horiz-adv-x="363" 
d="M256 752h-73q-51 1 -58 36q-5 17 5 33t32 27q9 4 17 7t16 5q27 6 53.5 11t52.5 8q42 5 70 -17t33 -64q2 -20 1 -42.5t-5 -44.5q-14 -72 -28.5 -142t-32.5 -141q-20 -81 -44 -159.5t-47 -157.5q-6 -22 -12.5 -43t-13.5 -42q-5 -12 -9.5 -25.5t-10.5 -25.5q-14 -31 -39 -46
t-60 -12q-19 2 -38.5 3.5t-39.5 3.5q-10 0 -17 3q-22 6 -33.5 19.5t-11.5 31.5q-1 18 9 33t31 22q17 7 35.5 10t38.5 7q4 3 12 3q7 14 21.5 64.5t32 119.5t36.5 148t35 152t27.5 131t14.5 84z" />
    <glyph glyph-name="equal" unicode="=" horiz-adv-x="356" 
d="M237 367q9 -1 18.5 -2.5t18.5 -6.5q24 -9 19 -33q-5 -21 -32 -23q-39 -1 -77.5 -2.5t-77.5 -2.5q-21 -3 -39 0q-16 2 -26.5 11.5t-11.5 21.5q-6 29 28 40q8 3 16 3.5t15 0.5q39 -1 76.5 -2t72.5 -5zM158 273q17 -1 34.5 -1t36.5 -3q6 0 12.5 -1t12.5 -3q26 -9 24 -32
q-2 -21 -29 -26q-9 -1 -19 -1.5t-18 -1.5q-29 -2 -57 -2.5t-56 -2.5h-15.5t-15.5 1q-20 3 -32 15t-11 26q1 16 13.5 26.5t33.5 9.5q21 2 42.5 -0.5t43.5 -3.5z" />
    <glyph glyph-name="less" unicode="&#x3c;" horiz-adv-x="405" 
d="M92 -21q-14 0 -24 6.5t-14 17.5q-8 26 15 40q15 11 35 17q28 8 57 15.5t58 15.5q8 3 17.5 3h17.5q21 0 28 -20q5 -23 -12 -34q-2 -2 -6 -4t-6 -4q-78 -24 -156 -51q-2 -1 -5 -1t-5 -1zM187 555q38 -8 79 -19.5t80 -33.5q10 -6 17 -16q11 -15 2 -31q-9 -17 -30 -12
q-8 2 -16.5 5t-16.5 6q-32 10 -64.5 19t-64.5 18q-2 1 -3.5 1.5t-3.5 2.5q-34 9 -29 34q5 24 37 26h13zM212 309q17 -2 26.5 -12t10.5 -24q0 -28 -34 -32q-33 -6 -62.5 -9.5t-58.5 -1.5q-9 1 -19 2.5t-18.5 5t-14 10.5t-5.5 18q0 9 7 18.5t19 11.5q41 6 77 9.5t72 3.5z" />
    <glyph glyph-name="bracketleft" unicode="[" horiz-adv-x="275" 
d="M112 46h73q51 -1 58 -36q5 -17 -5 -33t-32 -27q-9 -4 -17 -7t-16 -5q-27 -6 -53.5 -11t-52.5 -8q-42 -5 -70 17t-33 64q-2 20 -1 42.5t5 44.5q14 72 28.5 142t32.5 141q20 81 44 159.5t47 157.5q6 22 12.5 43t13.5 42q5 12 9.5 25.5t10.5 25.5q14 31 39 46t60 12
q19 -2 38.5 -3.5t39.5 -3.5q9 0 17 -3q22 -6 33.5 -19.5t11.5 -31.5q1 -18 -9 -33t-31 -22q-17 -7 -35.5 -10t-38.5 -7q-5 -3 -12 -3q-5 -11 -14.5 -42.5t-21.5 -76.5t-26 -100t-28 -113t-27 -115t-23.5 -106.5t-17.5 -87.5t-9 -58z" />
    <glyph glyph-name="backslash" unicode="\" horiz-adv-x="434" 
d="M26 773q0 6 1 15t4 18q5 15 15.5 24t23.5 12t26 -1t24 -16q14 -15 22 -40q30 -90 60.5 -189t62 -196.5t64 -190.5t66.5 -171q7 -17 7.5 -30.5t-8.5 -26.5q-11 -13 -27.5 -18t-30.5 6q-46 38 -86.5 101t-74 138.5t-60 158t-45.5 159t-30.5 141.5t-13.5 106z" />
    <glyph glyph-name="semicolon" unicode=";" horiz-adv-x="213" 
d="M132 124q-2 -44 -39 -81q-5 -5 -11 -9t-13 -7q-19 -7 -33 5t-11 32q1 6 3.5 12t4.5 13q2 8 2.5 15t-4.5 15q-18 34 7 62q12 14 26.5 16t29.5 -3q36 -12 38 -51q2 -3 1 -6.5t-1 -12.5zM81 400q11 19 30 24t38 -4q19 -11 28 -33t0 -42q-6 -11 -15 -21.5t-18 -18.5
q-24 -21 -55 -5q-16 8 -22 20.5t-5.5 26.5t6 28t13.5 25z" />
    <glyph glyph-name="nine" unicode="9" horiz-adv-x="450" 
d="M101 111q26 -26 52 -0.5t46 82.5q-43 20 -74 57t-48.5 82t-19 92t14.5 88q23 56 59 98t91 68q66 31 121 7.5t83 -89.5q16 -42 18 -84.5t-3 -86.5q-9 -57 -27.5 -124t-48 -129.5t-71 -113t-96.5 -73.5q-29 -12 -58 -15.5t-56 4t-50 26.5t-39 51q-5 11 -9.5 21.5t-7.5 22.5
q-8 23 -0.5 42t26.5 29q19 8 38 3.5t34 -22.5q7 -9 12.5 -17.5t12.5 -18.5zM304 559q-5 22 -23 19t-41 -21q-31 -26 -49.5 -54t-22 -56.5t8.5 -55.5t42 -50q12 -9 26 -6.5t21 14.5q9 22 19 49t17 55.5t8.5 56t-6.5 49.5z" />
    <glyph glyph-name="eight" unicode="8" horiz-adv-x="371" 
d="M271 284q19 -17 33 -36t20 -44q18 -77 -33 -137q-36 -42 -81 -65.5t-102 -25.5q-31 0 -56 12.5t-42 34.5t-24 51.5t-1 64.5q8 39 25 74.5t41 65.5q5 6 10 11t7 8q-7 26 -15 49.5t-10 46.5q-5 44 8.5 82t40.5 71q79 94 199 111q37 4 64.5 -18t29.5 -62q2 -19 -0.5 -40
t-9.5 -40q-11 -29 -24.5 -57t-27.5 -57q-12 -25 -25 -49.5t-27 -50.5zM175 358q39 51 58.5 84.5t24 52.5t-4 25.5t-25.5 3.5q-26 -11 -47 -30.5t-30.5 -42t-4.5 -47t29 -46.5zM103 98q57 -10 96 36q13 13 9.5 28t-19.5 25q-11 7 -21 14t-21 14q-16 -26 -28 -54.5t-16 -62.5z
" />
    <glyph glyph-name="two" unicode="2" horiz-adv-x="486" 
d="M132 404q-7 -23 -26.5 -28t-36.5 14q-12 13 -15 30t0.5 34.5t11.5 34t16 28.5q88 135 237 126q11 0 22.5 -3.5t22.5 -7.5q42 -20 59.5 -61t6.5 -90q-7 -23 -15.5 -44.5t-19.5 -40.5q-24 -36 -49.5 -72t-52.5 -69q-23 -31 -47.5 -60.5t-48.5 -59.5q-5 -6 -9.5 -12.5
t-10.5 -14.5q26 1 49 2t47 2q54 1 109 0q20 0 34 -5q28 -15 29 -47q0 -30 -29 -44q-15 -5 -30.5 -8t-31.5 -6q-60 -10 -121 -18.5t-121 -17.5q-21 -4 -42.5 -6t-43.5 -4q-42 -2 -64 35q-13 23 -10.5 45t16.5 42q21 33 43 65t47 64q41 51 83.5 100.5t84.5 100.5q9 10 22 28
t24 36.5t16 34t-2 20.5q-19 12 -43.5 1t-47 -33t-40 -48t-23.5 -43z" />
    <glyph glyph-name="three" unicode="3" 
d="M322 374q30 -39 41.5 -79.5t9.5 -79t-15.5 -74t-33.5 -64.5q-24 -33 -53 -60.5t-67 -44.5q-51 -23 -98.5 -15t-87.5 47q-26 25 -45 53.5t-27 64.5q-11 54 22 94q11 14 27 18.5t30 -2.5q28 -10 25 -50q-2 -21 12.5 -42.5t34.5 -27.5q5 -2 12 -0.5t13 3.5q40 21 67 51.5
t39 74.5q3 14 2.5 28.5t-8.5 28.5q-3 1 -5.5 2t-4.5 2q-36 12 -47.5 38t6.5 59q11 19 24.5 36t27.5 35q15 20 30.5 40t28.5 42q-22 -5 -40 -16.5t-33 -25.5q-11 -11 -21 -21.5t-13 -28.5q-2 -13 -13 -20t-25 -6q-15 0 -27 9.5t-15 23.5q-4 16 -1 29t10 26q20 36 48.5 63.5
t64.5 47.5q26 14 52 24t55 11q51 3 78.5 -27t17.5 -81q-6 -30 -18.5 -56t-28.5 -52q-12 -20 -25 -39t-26 -39z" />
    <glyph glyph-name="four" unicode="4" horiz-adv-x="435" 
d="M222 187q-27 -7 -51.5 -12t-49.5 -11q-16 -4 -31.5 -10.5t-27.5 -18.5q-2 -3 -5.5 -5t-5.5 -4q-36 -22 -70 0q-16 11 -21.5 27.5t-1.5 34.5t12 30q12 20 24.5 40t25.5 40q35 51 70.5 101.5t70.5 103.5q14 23 25 49t23 51q2 4 3 6.5t3 6.5q10 24 40 24q27 -2 37 -29
q13 -31 5 -65q-8 -29 -17 -57t-20 -55q-14 -32 -32 -63t-35 -63q-4 -7 -7 -13t-10 -17q20 2 37.5 3.5t34.5 3.5q5 14 8 27.5t8 27.5q28 78 49 137t41 96.5t42.5 52t52.5 2.5q30 -13 26 -47q-13 -78 -38 -145.5t-47 -133.5q-22 -64 -43.5 -126.5t-41.5 -126.5q-5 -12 -7 -26
t-5 -28q-2 -18 -11.5 -29t-24.5 -13q-17 -3 -31.5 5.5t-18.5 26.5q-11 54 -6.5 99.5t21.5 102.5z" />
    <glyph glyph-name="five" unicode="5" horiz-adv-x="509" 
d="M216 501q-6 -14 -10.5 -28t-9.5 -28q23 2 44.5 3.5t43.5 2.5q14 0 27.5 -2t27.5 -4q59 -13 93 -55t32 -102q-5 -80 -38.5 -145t-98.5 -113q-45 -33 -94.5 -42t-103.5 2q-33 7 -66 18t-62 29q-26 15 -41 36.5t-11 53.5q2 16 10.5 27t20.5 17t25.5 5.5t27.5 -8.5
q25 -16 54 -23t58 -5t56.5 12.5t49.5 30.5q26 23 43.5 50.5t25.5 62.5q4 23 -3 32t-30 10q-49 0 -88 -17t-74 -46q-12 -9 -25.5 -15.5t-30.5 -4.5q-31 2 -46.5 26t-6.5 56q6 22 13.5 43.5t18.5 41.5q14 27 29.5 54t31.5 53q5 9 8 17t2 19q-2 23 11.5 38t37.5 13
q39 -3 75.5 2t72 12.5t71.5 14t73 6.5q15 0 24 -8.5t12 -20t0 -24t-13 -20.5q-17 -12 -52.5 -24.5t-76 -23.5t-79 -19t-59.5 -10z" />
    <glyph glyph-name="six" unicode="6" 
d="M219 378q33 -4 63 -12.5t53 -24.5t37 -41.5t15 -64.5q0 -13 -1 -27t-5 -27q-9 -32 -27.5 -63t-43 -58.5t-53.5 -48.5t-60 -32.5t-61.5 -11t-57.5 16.5q-62 37 -83 91.5t-13 116.5t38.5 127t70.5 123.5t83 105.5t76 74q22 17 42.5 27t44.5 10q14 1 24.5 -6.5t15.5 -21.5
q12 -27 -9 -49q-46 -57 -80 -106.5t-69 -97.5zM251 174q7 15 9 32q1 20 -12.5 29.5t-32.5 9.5q-20 0 -34.5 -9t-24 -23.5t-14 -31.5t-2.5 -32q3 -32 18 -37.5t33 3.5t35 26.5t25 32.5z" />
    <glyph glyph-name="seven" unicode="7" horiz-adv-x="438" 
d="M325 335q7 -1 13 -1t12 -2q36 -9 38 -40q2 -15 -7 -27t-25 -17q-19 -5 -37 -10t-37 -10q-12 -3 -20.5 -9t-13.5 -18q-17 -38 -34.5 -74.5t-33.5 -72.5q-7 -14 -10 -29.5t-7 -31.5q-6 -17 -17 -27t-27 -12q-14 -1 -26.5 8t-19.5 23q-7 17 -7.5 33t1.5 32q7 26 14 51.5
t12 51.5q2 4 3 8.5t2 9.5h-31q-45 2 -54 37q-5 16 2 31.5t27 25.5q40 19 82 30q14 5 21.5 12t13.5 19q22 38 44 75.5t45 75.5q4 8 8.5 14.5t11.5 17.5l-38.5 -5.5t-34.5 -4.5q-30 -5 -60 -5.5t-59 9.5q-12 3 -23.5 8.5t-19.5 13.5q-20 18 -16 41t28 34q8 4 16 5t18 1
q64 1 125.5 14t121.5 32q16 5 31.5 13t32.5 13q10 5 22 8t23 3q20 1 35.5 -8t24 -23t9 -32t-8.5 -36q-3 -5 -7 -10t-8 -9q-47 -52 -83.5 -109.5t-70.5 -117.5q-1 -3 -1 -9z" />
    <glyph glyph-name="quotesingle" unicode="'" horiz-adv-x="335" 
d="M160 722q5 17 9 35t9 35q6 23 27 31t41 -6q13 -10 16.5 -24t-0.5 -29q-5 -14 -12 -30t-15 -30q-10 -18 -24.5 -25t-28.5 -3q-30 6 -22 46z" />
    <glyph glyph-name="at" unicode="@" horiz-adv-x="807" 
d="M462 265q-18 -11 -34 -22t-33 -20q-18 -10 -37 -16t-40 -4q-22 2 -40.5 12t-30.5 26.5t-17.5 37t-2.5 43.5q7 47 39 83q32 39 73 64t93 34q40 5 75 -17q15 -9 23 -23t11 -30t3 -34v-36q-1 -15 -1.5 -28.5t2.5 -22t11.5 -10.5t26.5 7q21 12 37 28t26 38q22 46 21 88.5
t-20.5 72.5t-55.5 43t-84 -2q-88 -26 -161 -74t-130 -122q-25 -31 -41.5 -66t-23.5 -76q-9 -58 14 -89.5t64.5 -43t95 -7t105.5 18.5t96 35t66 41q17 16 37 23.5t44 2.5q26 -7 37 -28t3 -46q-12 -38 -44.5 -66.5t-76.5 -49.5q-55 -27 -113.5 -46t-116.5 -27t-113 -3.5
t-102 25t-83.5 58.5t-57.5 97q-12 43 -11.5 86t11.5 87q18 63 52 117t81 100q149 149 356 191q29 5 59 6t61 -6q109 -25 143 -135q13 -47 14 -93t-12 -93q-16 -57 -50.5 -98t-87.5 -69q-2 -1 -3.5 -1.5t-3.5 -2.5q-20 -9 -41 -13t-41 0t-38 17t-33 38zM346 303
q1 -9 12.5 -5.5t27.5 15.5t35 30t36 38q-73 -12 -111 -78z" />
    <glyph glyph-name="parenleft" unicode="(" horiz-adv-x="485" 
d="M-4 307q4 151 80 282q35 60 75.5 113t91.5 100q45 42 99 68t110 23q20 -1 34 -13t19 -30q4 -17 -3 -32.5t-25 -26.5q-9 -5 -17.5 -9.5t-16.5 -8.5q-47 -22 -84 -53.5t-67 -73.5q-24 -34 -51 -83.5t-48 -105.5t-31.5 -113.5t-1.5 -107t42.5 -87t99.5 -53.5
q17 -4 32.5 -7.5t32.5 -8.5q10 -2 18.5 -5.5t16.5 -7.5q18 -9 27.5 -22.5t11 -29t-6 -30.5t-23.5 -27q-17 -11 -36.5 -15.5t-39.5 -4.5q-66 2 -122.5 24.5t-104.5 69.5q-60 59 -87.5 127.5t-24.5 147.5z" />
    <glyph glyph-name="parenright" unicode=")" horiz-adv-x="490" 
d="M479 519q-4 -151 -80 -282q-35 -60 -75.5 -113t-91.5 -100q-45 -42 -99 -68t-110 -23q-20 1 -34 13t-19 30q-4 17 3 32.5t25 26.5q9 5 17.5 9.5t16.5 8.5q47 22 84 53.5t67 73.5q24 34 51 83.5t48 105.5t31.5 113.5t1.5 107t-42.5 87t-99.5 53.5q-17 4 -32.5 7.5
t-32.5 8.5q-10 2 -18.5 5.5t-16.5 7.5q-18 9 -27.5 22.5t-11 29t6 30.5t23.5 27q17 11 36.5 15.5t39.5 4.5q66 -2 122.5 -24.5t104.5 -69.5q118 -115 112 -275z" />
    <glyph glyph-name="asterisk" unicode="*" horiz-adv-x="476" 
d="M175 708q8 12 14 25t14 24q12 18 33 10q21 -7 16 -30q0 -5 -2 -15q0 -3 0.5 -5.5t0.5 -7.5q22 10 42 18.5t40 16.5q34 17 45 -7q10 -22 -22 -41q-23 -11 -46 -22.5t-48 -25.5q11 -9 21.5 -16.5t19.5 -15.5q11 -9 19.5 -18t15.5 -20q8 -12 5.5 -22.5t-10.5 -18.5
q-18 -13 -40 5q-20 14 -39 29t-42 32q-9 -24 -16.5 -45t-15.5 -42q-2 -7 -3 -13.5t-3 -12.5q-12 -30 -34 -26q-28 3 -26 38q3 20 9 43q1 5 2 11t3 14q-11 -6 -18.5 -10.5t-15.5 -8.5q-25 -11 -38 5q-7 7 -7.5 17.5t7.5 20.5q14 16 31 27q10 8 21.5 14.5t23.5 14.5
q-10 7 -17.5 13t-15.5 12q-24 21 -12 42q12 20 40 11q12 -5 24.5 -10t23.5 -10z" />
    <glyph glyph-name="plus" unicode="+" horiz-adv-x="366" 
d="M240 354q11 1 22.5 2t22 -1t18 -8.5t10.5 -19.5q2 -13 -6 -24.5t-24 -16.5q-15 -6 -31 -10t-34 -9q-8 -33 -15 -69q-7 -30 -31 -34q-18 -2 -30.5 8.5t-14.5 30.5q-2 13 -1.5 26t0.5 26q-7 0 -12.5 0.5t-11.5 0.5q-9 2 -18.5 3t-19.5 4q-14 5 -22.5 16t-8.5 25t8.5 25.5
t22.5 16.5q9 3 18 4t19 1q8 1 17.5 1h17.5q5 14 9 27.5t9 27.5q8 22 22.5 32t31.5 6q37 -11 34 -58q0 -7 -0.5 -14.5t-1.5 -18.5z" />
    <glyph glyph-name="comma" unicode="," horiz-adv-x="205" 
d="M132 37q-2 -44 -39 -81q-5 -5 -11 -9t-13 -7q-19 -7 -33 5t-11 32q1 6 3.5 12t4.5 13q2 8 2.5 15t-4.5 15q-18 34 7 62q12 14 26.5 16t29.5 -3q36 -12 38 -51q2 -3 1 -6.5t-1 -12.5z" />
    <glyph glyph-name="hyphen" unicode="-" horiz-adv-x="389" 
d="M66 237q-20 5 -29 17t-7 28q2 15 13 25.5t29 12.5q25 2 49.5 3t49.5 2q27 2 54 3l54 2q3 1 9 1q15 0 25 -7.5t14 -19.5q6 -29 -24 -43q-16 -7 -35 -12q-28 -4 -54 -9t-51 -7.5t-49 -2t-48 6.5z" />
    <glyph glyph-name="period" unicode="." horiz-adv-x="180" 
d="M34 91q11 19 30 24t38 -4q19 -11 28 -33t0 -42q-6 -11 -15 -21.5t-18 -18.5q-24 -21 -55 -5q-16 8 -22 20.5t-5.5 26.5t6 28t13.5 25z" />
    <glyph glyph-name="slash" unicode="/" horiz-adv-x="332" 
d="M-15 62q7 41 25.5 104t46.5 137t64 152.5t78 150t89 129t98 90.5q14 10 30.5 3t25.5 -21q8 -14 5.5 -27.5t-11.5 -29.5q-42 -74 -85 -162t-86 -182t-84.5 -188.5t-81.5 -180.5q-11 -23 -27 -37q-12 -11 -25.5 -13.5t-26 2t-22 15t-12.5 25.5q-2 9 -2 18t1 15z" />
    <glyph glyph-name="dollar" unicode="$" horiz-adv-x="476" 
d="M279 634q3 5 6.5 9t5.5 9q7 16 12 31.5t11 31.5q3 10 11 21q18 22 42 11q11 -4 15.5 -12.5t-0.5 -19.5q-7 -27 -21 -58q7 -1 11 -2.5t8 -1.5q28 -2 50.5 -12t36.5 -26t19.5 -37t-0.5 -44q-14 -49 -68 -77q-30 -18 -53 -3q-14 8 -15 19.5t4 22.5q2 10 4.5 20t5.5 21
q-18 -2 -40.5 -11t-45 -23t-42.5 -31t-32 -33q18 -4 35 -7t35 -6q48 -9 79.5 -32t48.5 -52t20 -62t-6 -62q-38 -128 -197 -160q-3 -10 -5.5 -21t-5.5 -22q-2 -7 -3.5 -14.5t-5.5 -14.5q-4 -10 -12.5 -14.5t-19.5 -3.5t-19 6.5t-11 15.5q-2 12 0 24q1 8 3 16l4 16t-5 21
q-2 -3 -5 -6t-6 -7q-2 -10 -4.5 -20t-6.5 -19q-13 -29 -40 -21q-11 2 -17.5 10.5t-3.5 22.5q5 16 9.5 32.5t10.5 31.5q-15 14 -29.5 26t-25.5 25q-11 12 -19 25.5t-13 27.5q-11 22 -5.5 41.5t23.5 37.5q22 22 53 14q15 -3 24.5 -11.5t9.5 -20.5q0 -17 10 -25.5t22 -15.5
q24 -15 49.5 -21t54.5 8q64 28 67 88q2 16 -8 28t-29 17q-17 5 -34.5 7t-35.5 4q-15 2 -30.5 2.5t-31.5 2.5q-42 8 -60 33.5t-6 60.5q5 14 13 28t17 25q20 21 40.5 39.5t41.5 37.5q10 8 15 16t8 18q6 23 13.5 47.5t16.5 47.5q1 10 7 20q14 21 36 17q12 -3 19 -12t5 -21
q-3 -8 -5.5 -16.5t-4.5 -17.5q-3 -9 -6 -18.5t-7 -20.5q3 -1 8 -1z" />
    <glyph glyph-name="grave" unicode="`" horiz-adv-x="298" 
d="M113 813q5 -2 13.5 -5.5t16.5 -9.5q22 -20 43.5 -40.5t43.5 -41.5q22 -22 4 -44q-8 -11 -20.5 -12.5t-26.5 8.5q-26 19 -52.5 38.5t-53.5 39.5q-9 8 -12 19.5t1 22.5q5 12 16.5 19.5t26.5 5.5z" />
    <glyph glyph-name="w" unicode="w" horiz-adv-x="753" 
d="M262 269q4 6 8 19t8.5 27t9 27t9.5 19q30 39 68 25q20 -7 31 -24t9 -40v-37t-1 -37q-2 -43 2 -68.5t11.5 -37.5t17.5 -13t21 5q33 18 53 57t30 84t10.5 89.5t-5.5 73.5q-5 39 9.5 62t37 30t48 -2.5t42.5 -35.5q29 -44 33 -100t-11.5 -113.5t-46.5 -112t-70.5 -94.5
t-85 -60t-88.5 -10q-48 11 -73.5 43.5t-38.5 86.5q-15 -22 -34 -44q-18 -22 -37 -42t-45 -34q-44 -23 -87.5 -12t-70.5 54q-7 11 -12 24t-9 26q-7 26 -5.5 51.5t5.5 51.5q8 54 23 104t41 98q15 28 39 54q18 20 41 24.5t44 -6.5t34 -32.5t3 -47.5q-15 -38 -29.5 -81
t-24.5 -80.5t-13 -63t5 -28t30.5 25t63.5 95.5z" />
    <glyph glyph-name="x" unicode="x" horiz-adv-x="467" 
d="M159 116q-17 -23 -31.5 -44t-28.5 -43q-5 -7 -9 -13.5t-10 -13.5q-10 -12 -22.5 -16.5t-25.5 -3t-24.5 9.5t-18.5 22q-9 19 -9 38.5t4 39.5q8 33 23.5 63.5t35.5 56.5q16 21 20.5 41t-3.5 46q-11 35 -9 70t13 69q8 27 25.5 41t41.5 16q25 1 43.5 -12.5t28.5 -37.5l6 -20
t5 -21q7 5 12 8.5t11 8.5q30 23 61 46t63 46q19 12 47 22q20 7 38 0t29 -24q8 -16 6 -33.5t-15 -32.5l-9 -9t-9 -8q-45 -46 -89 -91t-89 -91l-4 -6t-6 -8q19 -35 41.5 -66t60.5 -50q5 -3 10 -5t10 -6q14 -11 19 -26.5t0 -30.5q-5 -17 -18 -26.5t-30 -9.5q-45 -1 -87 22
q-20 11 -39 25t-37 28q-8 6 -15 13.5t-16 15.5z" />
    <glyph glyph-name="y" unicode="y" horiz-adv-x="611" 
d="M383 311q-15 -16 -30.5 -33.5t-31.5 -35.5q-21 -23 -41.5 -47.5t-41.5 -47.5q-14 -14 -27.5 -26t-28.5 -22q-42 -28 -84.5 -23t-71.5 42q-33 46 -32 102q1 58 18 112.5t52 103.5q18 25 45 46q20 17 45.5 18t42.5 -12q21 -14 26.5 -35t-2.5 -47q-8 -30 -16.5 -60.5
t-14.5 -64.5q-9 -35 -4 -44.5t19.5 -0.5t37.5 33t49.5 55t55 65.5t55.5 65.5q17 18 40 26t45.5 7.5t42 -8.5t30.5 -21q8 -11 9.5 -29.5t-0.5 -40.5q-8 -120 -44.5 -234.5t-92.5 -216.5q-18 -33 -42 -63.5t-54 -54.5q-38 -31 -82 -46t-88 -13.5t-83.5 19t-67.5 51.5
q-8 11 -14 22l-12 22q-10 23 -5.5 44.5t21.5 36.5q18 14 38.5 15t39.5 -15q16 -15 35 -22.5t42 -2.5q31 8 57 24t43 45q16 28 30 55t26 56q19 49 36 98l34 98q-1 3 -4 4z" />
    <glyph glyph-name="z" unicode="z" horiz-adv-x="548" 
d="M172 243q-8 0 -17 -1t-17 1q-14 1 -22 7.5t-11 17.5t1 22t17 17t28 10t30 6q14 2 28 2h27q5 1 11 1.5t8 4.5q11 12 24.5 31t18.5 36.5t-2.5 29t-38.5 7.5q-52 -5 -89 -34q-8 -6 -14 -13t-11 -15q-20 -31 -49 -23q-16 5 -26 17t-8 28q0 22 8 37q5 11 12 22t15 20
q54 51 118.5 70.5t137.5 2.5q28 -7 50 -22.5t35.5 -37.5t18.5 -48.5t0 -54.5q-3 -14 -7 -28.5t-8 -29.5q11 -2 21 -4t20 -5q14 -4 21.5 -13t5.5 -20q-1 -12 -10.5 -19.5t-23.5 -9.5q-15 -1 -29.5 -0.5t-29.5 -0.5q-6 -1 -12.5 -3.5t-9.5 -6.5q-18 -21 -34.5 -42t-33.5 -43
v-7q18 -3 36.5 -4.5t36.5 -5.5q14 -3 26.5 -8.5t24.5 -13.5t16 -21.5t0 -25.5q-5 -13 -16.5 -20t-25.5 -1q-22 8 -43.5 8.5t-43.5 0.5q-26 0 -53.5 -2t-53.5 -2q-11 -1 -18.5 -5t-15.5 -9q-27 -16 -53 -32t-53 -30q-44 -23 -94 -14q-23 4 -39 16.5t-22 35.5q-10 47 29 75
q11 8 23.5 13t23.5 11q14 6 28.5 12.5t28.5 16.5q58 37 105 96z" />
    <glyph glyph-name="braceleft" unicode="{" horiz-adv-x="390" 
d="M243 351q25 -32 24.5 -66.5t-14.5 -69.5q-11 -27 -19 -54t-18 -54q-2 -8 -3.5 -15.5l-3.5 -17.5q23 -2 43.5 -3t40.5 -3q6 -2 12 -2.5t11 -2.5q12 -5 20 -14.5t9.5 -20t-2.5 -20.5t-16 -17q-22 -15 -45 -26.5t-47.5 -17t-50 -3t-52.5 14.5q-62 27 -69 93q-5 48 11 88
q8 23 17.5 47.5t17.5 48.5l8 22t10 24l-17.5 3.5t-15.5 3.5q-6 1 -11.5 0.5t-11.5 0.5q-18 3 -30.5 13.5t-18.5 24t-4.5 29t11.5 29.5q9 11 21 20.5t25 16.5q14 8 29 13t30 12q24 10 48 26q39 22 29 64q-4 14 -7 27t-7 27q-11 37 -10.5 69.5t12 61t31.5 52.5t48 44
q24 17 50.5 30t55.5 17q16 2 32 1t31 -5q10 -2 19.5 -9t15.5 -15q9 -12 10.5 -25t-3 -24t-14.5 -19t-25 -9q-35 -3 -62.5 -18.5t-53.5 -35.5q-44 -35 -27 -86q5 -17 10 -33.5t10 -33.5q33 -112 -60 -184q-6 -4 -11.5 -9t-12.5 -10z" />
    <glyph glyph-name="bar" unicode="|" horiz-adv-x="291" 
d="M298 688q-4 -31 -6.5 -62.5t-7.5 -61.5q-11 -69 -27.5 -134.5t-41.5 -128.5q-27 -75 -55.5 -148t-56.5 -147q-7 -18 -15 -34t-18 -33q-6 -11 -15 -20.5t-23 -12.5q-15 -4 -27.5 -0.5t-20.5 12.5t-11 22t1 27q9 32 17.5 63t17.5 62q38 146 79 288.5t92 282.5
q5 11 8.5 21.5t6.5 20.5q21 44 56 38q36 -7 47 -55z" />
    <glyph glyph-name="braceright" unicode="}" horiz-adv-x="445" 
d="M189 444q-25 32 -24.5 66.5t14.5 69.5q11 27 19 54t18 54q2 8 3.5 15.5l3.5 17.5q-23 2 -43.5 3t-40.5 3q-6 2 -12 2.5t-11 2.5q-12 5 -20 14.5t-9.5 20t2.5 20.5t16 17q22 15 45 26.5t47.5 17t50 3t52.5 -14.5q61 -27 69 -93q5 -48 -11 -88q-8 -23 -17.5 -47.5
t-17.5 -48.5l-8 -22t-10 -24l17.5 -3.5t15.5 -3.5q6 -1 11.5 -0.5t11.5 -0.5q18 -3 30.5 -13.5t18.5 -24t4.5 -29t-11.5 -29.5q-9 -11 -21 -20.5t-25 -16.5q-14 -8 -29 -13t-30 -12q-24 -10 -48 -26q-39 -22 -29 -64q4 -14 7 -27t7 -27q11 -37 10.5 -69.5t-12 -61
t-31.5 -52.5t-48 -44q-24 -17 -50.5 -30t-55.5 -17q-16 -2 -32 -1t-31 5q-10 2 -19.5 9t-15.5 15q-9 12 -10.5 25t3 24t14.5 19t25 9q35 3 62.5 18.5t53.5 35.5q44 35 27 86q-5 17 -10 33.5t-10 33.5q-33 112 60 184q6 4 11.5 9t12.5 10z" />
    <glyph glyph-name="asciitilde" unicode="~" horiz-adv-x="498" 
d="M349 304q2 4 4 9t5 9q10 21 36 19q24 -5 29 -25q5 -16 4 -27q-2 -20 -13.5 -43t-30.5 -42t-44.5 -31t-54.5 -10q-35 3 -60.5 24.5t-33.5 57.5q0 17 -3.5 22.5t-9 2.5t-11.5 -11t-12 -18q-9 -15 -18 -31l-18 -32q-7 -13 -17.5 -20t-25.5 -5q-31 3 -39 34q-3 8 -4 17t1 17
q17 66 55 116.5t102 79.5q22 10 42 9t35 -11t24.5 -27.5t10.5 -41.5q1 -15 -1 -29.5t-4 -28.5q-6 -19 0.5 -22t17 3t21 16.5t13.5 18.5z" />
    <glyph glyph-name="yen" unicode="&#xa5;" horiz-adv-x="496" 
d="M125 82q-20 -6 -30 -7q-14 -3 -25.5 1.5t-15.5 15.5q-5 11 -0.5 23.5t15.5 20.5q14 9 27 15t27 12q9 3 18.5 4.5t18.5 3.5q17 1 16 21q-15 -5 -32 -10t-33 -10q-14 -5 -29 -8q-21 -3 -33 15q-10 22 6 42q6 8 13.5 14.5t15.5 13.5q-41 8 -58 30t-17 67q0 36 7.5 72
t21.5 71q13 34 28 68t30 67q8 17 21.5 27.5t33.5 11.5q26 2 39.5 -13.5t9.5 -41.5q-3 -21 -8.5 -42t-12.5 -43q-33 -71 -40 -102t3.5 -32.5t35 20t54.5 55.5t62 74.5t58 76.5q7 9 16.5 13.5t18.5 9.5q28 16 46 0q9 -8 9.5 -18.5t-3.5 -23.5q-8 -26 -12 -51
q-12 -57 -30 -113.5t-38 -113.5q-2 -5 -3.5 -11t-4.5 -14q14 0 27 0.5t25 -0.5q11 -1 20.5 -2t18.5 -4q13 -5 18 -14.5t0 -21.5q-5 -21 -38 -22q-24 -2 -48 -3t-50 -2q-5 -13 -8.5 -23t-8.5 -22q8 -1 14.5 -1t12.5 -2q10 -3 21 -6t19 -8q12 -6 14 -17t-3 -22
q-10 -21 -43 -16q-14 2 -29 3.5t-30 3.5q-5 -10 -9 -17.5t-9 -15.5q-14 -21 -26 -42.5t-29 -39.5q-24 -27 -54.5 -39t-60.5 -13t-56.5 8t-43.5 25q-22 21 -7 47q14 22 42 21q13 0 24.5 -1.5t22.5 -1.5q9 1 15.5 2.5t11.5 5t9.5 10.5t11.5 19zM217 282q9 26 18.5 50.5
t18.5 49.5l-4 2q-56 -59 -114 -117q21 4 40.5 7.5t40.5 7.5z" />
    <glyph glyph-name="currency" unicode="&#xa4;" horiz-adv-x="458" 
d="M299 188q14 -15 27 -29t24 -29q14 -17 8.5 -34.5t-25.5 -20.5q-6 -1 -14 1t-13 6q-12 6 -22 14t-21 16q-7 5 -13 10.5t-13 10.5q-34 -20 -69 -27t-73 12q-7 -8 -12.5 -17t-11.5 -17q-16 -17 -34.5 -16t-29.5 20q-12 19 0 39q7 11 15 19.5t16 19.5q3 6 6.5 12t2.5 11
q-8 57 11 105.5t49 94.5q2 2 4 4.5t5 7.5q-8 6 -15 11.5t-14 11.5q-8 6 -15.5 11t-14.5 12q-14 13 -14.5 28t10.5 27q10 12 24.5 13.5t28.5 -9.5q12 -8 24 -18.5t23 -21.5q5 -4 9.5 -8.5t10.5 -9.5q17 4 34 7.5t34 6.5q25 5 49 4t47 -15l22 22t22 20q8 7 17 12.5t19 9.5
q11 5 22 1t19 -14q9 -9 11.5 -20t-3.5 -23q-3 -5 -6.5 -10.5t-8.5 -10.5q-5 -7 -11 -12l-12 -10q-11 -9 -24 -17t-21 -19q-7 -11 -7.5 -25.5t-2.5 -27.5q-7 -33 -22.5 -62t-34.5 -56q-5 -5 -9 -10.5t-8 -10.5zM218 250q14 13 29 35.5t20.5 41.5t-4.5 27.5t-47 -6.5
q-11 -4 -21.5 -19t-18 -33.5t-11 -36t0.5 -27t16.5 -7t35.5 24.5z" />
    <glyph glyph-name="sterling" unicode="&#xa3;" horiz-adv-x="498" 
d="M302 234q-5 -20 -10.5 -38t-10.5 -36q28 4 65 -7.5t65.5 -34.5t40 -53.5t-12.5 -63.5q-12 -17 -27 -24.5t-29 -3.5q-19 7 -25.5 20.5t-4.5 31.5q-20 9 -39 9t-38 -2q-39 -3 -77 -9t-74 -25q-14 -8 -30 -12.5t-33 -8.5q-14 -4 -28.5 -1.5t-27.5 10t-23 18.5t-14 24
q-9 26 5 46.5t41 22.5q13 1 22.5 5t19.5 12q39 32 68 76q4 7 7 14.5t8 17.5q-11 0 -20 -1t-18 -1h-12.5t-13.5 2q-14 2 -22.5 11.5t-10.5 22.5q-3 31 22 44q15 7 31.5 11t31.5 9q8 3 17 4t18 3q4 27 7 53t7 53q9 65 37 122q11 22 25 41.5t32 35.5q46 45 113 34
q37 -5 64.5 -34.5t32.5 -71.5q6 -45 -5 -85.5t-40 -75.5q-13 -16 -32 -24q-22 -11 -40.5 2t-17.5 37q0 8 3.5 16.5t4.5 17.5q10 24 9.5 42t-7 22t-16.5 -8.5t-17 -49.5q-6 -33 -8 -70t-4 -60q16 -3 30 -4.5t28 -4.5l30 -8t29 -10t20 -18t1 -24q-4 -14 -16 -21t-29 -5
q-15 2 -30 3l-30 2h-42z" />
    <glyph glyph-name="cent" unicode="&#xa2;" horiz-adv-x="451" 
d="M143 53q-19 8 -36.5 14t-33.5 16q-37 23 -53.5 58.5t-19.5 78.5q-3 37 4.5 72.5t23.5 68.5q24 48 54 90q31 41 68.5 72t90.5 40q6 17 11 32.5t12 32.5q4 8 9.5 15.5t10.5 15.5q9 9 20 10t21 -5q11 -7 16.5 -17.5t1.5 -22.5q-5 -14 -11.5 -27t-11.5 -27q-1 -2 -2 -5t-3 -8
q5 -3 9.5 -6t9.5 -5q32 -19 49 -47.5t21.5 -59.5t-2.5 -61t-23 -52q-13 -18 -29.5 -29.5t-39.5 -9.5q-22 1 -36.5 14.5t-15.5 36.5q0 9 0.5 18t1.5 18v31q-11 -7 -18.5 -11t-12.5 -9q-29 -30 -46 -65.5t-22 -77.5q-2 -5 -1 -10t1 -10q2 -23 25 -23q34 0 67 7t64 21
q4 2 7 4.5t8 4.5q21 8 39.5 -3t20.5 -34q3 -34 -23 -54q-16 -14 -34.5 -26t-37.5 -23q-17 -12 -37 -17q-19 -5 -27 -16.5t-10 -28.5q-2 -11 -3.5 -21t-3.5 -20q-9 -37 -43 -35q-15 1 -25.5 12.5t-12.5 29.5q0 13 3 26.5t5 26.5z" />
    <glyph glyph-name="Euro" unicode="&#x20ac;" horiz-adv-x="535" 
d="M234 322q-2 -5 -4 -8.5t-3 -6.5q-2 -8 -2 -13h53h22q33 0 32 -25q0 -27 -31 -34q-17 -4 -33.5 -6.5t-33.5 -4.5q-8 -2 -22 -4q-9 -41 5 -77q5 -14 12.5 -17t22.5 2q37 11 70 31.5t63 46.5q4 4 8.5 8t9.5 7q12 7 23.5 8t21 -3.5t15 -13.5t4.5 -22q-1 -20 -13 -40
q-38 -59 -88.5 -101.5t-116.5 -63.5q-47 -15 -85 -3.5t-68 43.5q-25 27 -36 59.5t-13 69.5q-2 11 -2 22t-2 22q-8 2 -15.5 2t-15.5 2q-16 3 -24.5 14t-8.5 25q3 29 38 37q11 3 20 3.5t20 2.5q2 6 3.5 12.5t3.5 11.5q-8 3 -17 5.5t-17 4.5q-22 8 -19 32q2 23 26 30q14 4 28 6
t31 4q4 9 9 18t10 20q23 42 51.5 81t66.5 71q14 14 31.5 26t34.5 22q34 18 67.5 21t62 -7t50.5 -33t34 -57q13 -38 12.5 -77.5t-12.5 -80.5q-5 -17 -12 -33.5t-15 -33.5q-8 -16 -20 -28q-11 -12 -24 -16t-25 -1.5t-21.5 11.5t-13.5 24q-1 7 -0.5 14t0.5 14q0 22 1.5 43
t0.5 42q2 31 -4.5 44t-18.5 13.5t-26.5 -9.5t-29 -25t-26.5 -32.5t-18 -33.5q8 -2 13.5 -3t10.5 -2q9 -2 18.5 -3t17.5 -5q11 -4 15.5 -12.5t2.5 -17.5q-6 -21 -33 -22h-72z" />
    <glyph glyph-name="multiply" unicode="&#xd7;" horiz-adv-x="360" 
d="M174 376q18 11 35 20.5t34 19.5q5 2 9.5 4t9.5 3q28 11 42 -10q16 -22 -7 -45q-8 -7 -16 -13t-16 -13l-10 -8t-12 -9q7 -6 13 -11t11 -11q7 -7 14 -13.5t13 -14.5q14 -23 -4 -43q-8 -9 -18.5 -11.5t-23.5 4.5l-38 20t-39 22q-11 -11 -22.5 -21t-22.5 -20
q-11 -8 -21.5 -15.5t-21.5 -13.5q-17 -8 -31.5 -5t-24.5 15q-10 11 -10.5 26t9.5 29q7 10 15.5 19t17.5 17q5 6 11.5 11t13.5 11q-7 6 -12.5 12.5t-11.5 13.5q-21 29 -1 54q8 12 22 16t30 -4t31 -17t32 -19z" />
    <glyph glyph-name="divide" unicode="&#xf7;" horiz-adv-x="402" 
d="M72 233q-32 11 -32 47q-2 17 7 29t24 19q20 10 39 10q45 -2 88.5 -3.5t88.5 -3.5q24 -2 43 -17t14 -38q-6 -28 -37 -32q-32 -3 -64 -5.5t-64 -5.5q-30 -4 -55.5 -6.5t-51.5 6.5zM222 357q-16 -2 -27 9t-11 26t11.5 26t26.5 9q15 0 25 -10t12 -24q1 -15 -10.5 -25.5
t-26.5 -10.5zM194 143q-15 0 -26 11t-11 26q1 14 12 24.5t25 10.5q16 0 27 -11t9 -27q0 -14 -10.5 -24t-25.5 -10z" />
    <glyph glyph-name="zero" unicode="0" horiz-adv-x="395" 
d="M299 160q-21 -40 -46 -75t-60 -64q-25 -24 -56 -39q-45 -21 -85 -8.5t-60 51.5q-11 18 -15 37.5t-4 42.5q1 43 11 96t26.5 108t38.5 108t48.5 97t55.5 75t60 41q10 4 19.5 11.5t18.5 11.5q38 17 71.5 6.5t50.5 -44.5q24 -44 23.5 -104t-15 -123.5t-37.5 -124t-45 -103.5z
M109 117q1 -17 15.5 -9t37.5 34q21 25 39 58.5t32.5 71t24.5 76.5t14 75q7 57 -3.5 71.5t-29.5 -2.5q-20 -19 -37.5 -48t-32.5 -63.5t-26.5 -72t-19 -73t-11.5 -66t-3 -52.5z" />
    <glyph glyph-name="one" unicode="1" horiz-adv-x="287" 
d="M94 411q-5 -2 -10 -3t-10 -1q-11 -2 -19.5 3t-14.5 13q-14 20 -1 39q7 11 19 23q23 24 47.5 47t49.5 47q16 15 31.5 31.5t29.5 33.5q16 18 35 24t38 -2q18 -8 28.5 -25.5t8.5 -39.5q-2 -11 -4 -21t-7 -20q-12 -38 -25.5 -76.5t-27.5 -75.5q-20 -54 -40.5 -106t-39.5 -102
t-34.5 -99.5t-25.5 -100.5q-4 -17 -11.5 -28t-22.5 -16q-20 -7 -36.5 1t-27.5 22q-12 15 -14 40t1 52.5t9 53t9 42.5q12 60 27.5 118t37.5 115v11z" />
    <glyph glyph-name="A" unicode="A" horiz-adv-x="750" 
d="M518 166q-54 -8 -106 -15.5t-104 -15.5q-20 -3 -38.5 -4.5t-35.5 -9.5q-16 -8 -28 -22.5t-26 -25.5q-17 -14 -33 -27.5t-34 -24.5q-21 -13 -46 -18q-28 -3 -44 17.5t-7 48.5q2 7 5 13t7 16q-12 0 -23 -0.5t-22 0.5q-20 2 -33.5 12.5t-15.5 26.5q-4 18 3.5 33.5t26.5 23.5
q17 8 35 14t36 11q26 7 51 12t51 13q8 2 16.5 6t13.5 10q91 109 179.5 216.5t179.5 216.5q17 21 32 43t31 44q9 11 18 21.5t19 20.5q21 18 43.5 22.5t48.5 -7.5q25 -11 39.5 -30t13.5 -47t-5 -55t-10 -55q-12 -66 -25.5 -132t-26.5 -132q-9 -57 -12 -116q-2 -7 0.5 -14
t4.5 -14q11 -30 -7 -54q-4 -5 -7.5 -11.5t-3.5 -11.5q0 -33 -3.5 -67t9.5 -67q7 -16 1 -31t-20 -26q-14 -12 -30 -13t-33 6q-16 8 -27 19.5t-20 26.5q-13 23 -19 47.5t-11 50.5q-2 12 -4 25.5t-4 29.5zM524 428q-10 -7 -30 -27.5t-41 -44t-38 -44.5t-20 -28q29 2 58 3.5
t58 3.5q3 35 5.5 68.5t7.5 68.5z" />
    <glyph glyph-name="B" unicode="B" horiz-adv-x="732" 
d="M-1 116q3 80 17 156t31 148q-10 13 -18.5 22.5t-13.5 20.5q-5 15 -1.5 30t10.5 29q15 35 38 64t49 57q8 11 15.5 20.5t12.5 20.5q21 38 44 75.5t54 69.5q14 15 29.5 29t35.5 20q29 9 50 -2.5t26 -39.5q0 -3 0.5 -5.5t0.5 -4.5q34 10 65.5 19.5t65.5 16.5q35 10 72 11.5
t74 -7.5q62 -14 87.5 -59t3.5 -103q-11 -29 -29 -54t-41 -47q-25 -23 -51.5 -45.5t-52.5 -45.5q-5 -4 -10.5 -9t-12.5 -10q16 -8 28 -16q38 -21 66.5 -49t42.5 -70q13 -40 8.5 -78.5t-23.5 -75.5q-28 -53 -70.5 -93.5t-94.5 -71.5q-63 -39 -130.5 -61.5t-142.5 -30.5
q-48 -5 -93.5 -5t-91.5 11q-38 10 -69 27.5t-57 45.5q-22 24 -18 52q5 24 25.5 37t45.5 8q6 -2 11 -3.5t12 -3.5zM179 321q-12 -28 -22.5 -63t-18 -68t-11 -61t-1.5 -41q11 3 22.5 4.5t22.5 4.5q54 11 104 29t99 40q30 14 56.5 32.5t47.5 43.5q19 18 32 45q17 37 -18 55
q-43 22 -86 30t-91 -18q-32 -17 -65 -29t-71 -4zM534 730q-63 -13 -119.5 -36.5t-110.5 -55.5q-16 -8 -22 -24q-8 -23 -17 -46t-17 -46q-2 -4 -2 -8.5t-2 -9.5q41 4 90.5 26t96 51t84.5 60t56.5 54.5t12 35t-49.5 -0.5z" />
    <glyph glyph-name="C" unicode="C" horiz-adv-x="685" 
d="M522 677q-24 5 -46.5 1t-44.5 -13q-67 -26 -115.5 -71.5t-81.5 -107.5q-65 -111 -53 -230q4 -29 14.5 -53.5t33.5 -42.5q26 -18 53.5 -19t59.5 19q9 5 19 12t19 16q42 38 81.5 77.5t72.5 86.5q4 5 8 10.5t9 10.5q13 14 28 20t32 2t27.5 -15t10.5 -28q1 -17 -0.5 -35
t-7.5 -35q-32 -91 -88.5 -162t-142.5 -121q-44 -25 -89.5 -35.5t-88.5 -6t-82 23t-71 51.5q-47 46 -66 103t-16 125q5 134 60.5 248.5t164.5 209.5q122 110 275 128q48 5 91 -4.5t78 -38.5q29 -23 38.5 -54.5t3.5 -69.5q-10 -55 -37.5 -104t-62.5 -94q-20 -25 -47 -27
t-46 18q-11 11 -16 23.5t-6 29.5q-2 32 6.5 64t16.5 64q1 5 2.5 10.5t3.5 13.5z" />
    <glyph glyph-name="D" unicode="D" horiz-adv-x="710" 
d="M428 832q32 2 61 5.5t59 2.5q19 0 39 -4t38 -10q59 -21 90.5 -64.5t38.5 -105.5q8 -63 -4.5 -122t-38.5 -116q-42 -89 -103 -159.5t-144 -123.5q-63 -40 -130 -72t-140 -51q-20 -5 -39 -8t-39 -7q-2 -5 -2.5 -9.5t-1.5 -8.5q-5 -16 -16 -26.5t-24 -14.5t-27.5 -0.5
t-26.5 15.5q-8 8 -14.5 20.5t-11.5 23.5q-4 8 -9.5 14.5t-13.5 9.5q-14 6 -25 14q-18 11 -24.5 28t0.5 35q15 37 59 32q3 0 6 -1t8 -3q26 115 53.5 228t72.5 224l-10 10q-13 17 -14 34.5t14 33.5q11 14 26 25.5t29 22.5q9 7 16.5 15.5t14.5 18.5q18 27 36.5 54t40.5 53
q11 13 26 23t30 17q31 14 58 1.5t39 -44.5q1 -3 2 -5t1 -5zM145 147l3 -3l3 -3q7 4 14 6t14 7q79 38 147 89.5t128 115.5q35 38 63 78t47 87q11 23 18.5 48t11.5 51q7 43 -9.5 62t-59.5 22h-11q-32 0 -63 -6t-61 -14q-20 -5 -31 -28q-35 -79 -69.5 -157.5t-69.5 -158.5
q-20 -48 -38 -97t-37 -99z" />
    <glyph glyph-name="E" unicode="E" horiz-adv-x="833" 
d="M241 514q-20 54 -10 100t42 88q45 60 105.5 96t130.5 57q42 11 83.5 13.5t84.5 -9.5q20 -5 39.5 -14t36.5 -22q22 -17 34.5 -38t15 -44t-5 -47t-25.5 -45q-11 -14 -24 -26t-27 -23q-20 -18 -45 -5q-11 5 -16.5 16.5t-3.5 26.5q2 11 5 21.5t5 21.5q2 16 -2.5 22t-19.5 11
q-19 6 -37.5 5.5t-38.5 -4.5q-46 -9 -86.5 -29t-73.5 -55q-10 -10 -17.5 -21.5t-10.5 -29.5q11 -2 21.5 -3.5t21.5 -3.5q20 -2 36 -11t26.5 -23.5t14.5 -32t-1 -36.5q-6 -23 -24 -40.5t-42 -20.5q-77 -8 -138.5 -47t-112.5 -94q-31 -34 -52 -75q-22 -41 -9 -62t60 -21
q48 -2 92 12t88 33q50 22 95.5 51t85.5 67q20 17 39 34.5t38 35.5q14 12 14 24q3 29 19.5 44t39.5 20q27 5 51 -6t38 -34q9 -17 11 -35t-4 -35q-7 -20 -14.5 -39t-18.5 -36q-33 -55 -78 -98.5t-98 -79.5q-74 -51 -153.5 -85.5t-167.5 -50.5q-38 -6 -74.5 -7t-73.5 9
q-48 11 -84 37t-57.5 62.5t-26.5 81t9 92.5t40.5 87.5t61.5 74.5q36 38 76.5 69.5t85.5 59.5q7 4 12.5 7.5t13.5 8.5z" />
    <glyph glyph-name="F" unicode="F" horiz-adv-x="742" 
d="M323 664q-14 -1 -25.5 -2t-22.5 -1h-45.5t-45.5 1q-32 3 -40 36t19 52q27 21 55 32q49 20 99 33t101 24q92 21 184.5 24t186.5 -5q29 -3 58.5 -6t58.5 -8q13 -2 26 -6t24 -9q21 -12 30 -30.5t5 -38.5q-5 -20 -19 -32t-37 -14q-47 -4 -92.5 -7.5t-92.5 -8.5
q-64 -5 -127.5 -10t-128.5 -11l-44 -168t-45 -171q26 -1 50.5 -1t50.5 -2q28 -2 54.5 -5t53.5 -8q18 -3 34 -10.5t30 -21.5q11 -13 15.5 -27.5t-0.5 -31.5q-5 -19 -20 -30t-35 -7q-38 8 -74 4t-73 -5q-30 -1 -60.5 -5t-61.5 -5q-16 -1 -25 -8t-16 -22q-25 -56 -55.5 -106.5
t-70.5 -97.5q-13 -13 -27.5 -25.5t-30.5 -22.5q-43 -25 -92 -2q-37 18 -37 59q1 36 38 55q16 5 24 20q14 29 27.5 58t27.5 60q-8 0 -12.5 -0.5t-9.5 -0.5q-21 -1 -41.5 -2.5t-40.5 0.5q-33 2 -42 31q-12 31 10 55q8 8 18 14.5t21 10.5q35 12 69.5 23t69.5 22q10 3 16.5 7
t10.5 15q30 83 61 165t61 163q1 2 0.5 3.5t-0.5 6.5z" />
    <glyph glyph-name="G" unicode="G" horiz-adv-x="724" 
d="M653 338q5 -28 -2.5 -49t-20.5 -41q-23 -35 -39 -73t-27 -80q-2 -8 -3 -16.5t-2 -17.5q-1 -21 18 -33q21 -11 24 -30.5t-10 -39.5q-17 -25 -47.5 -30.5t-56.5 12.5q-21 14 -33.5 33.5t-20.5 43.5q-7 18 -14 42q-7 -5 -13.5 -8t-11.5 -7q-34 -22 -69 -39t-74 -27
q-48 -11 -91 -3.5t-77 30.5t-56.5 60.5t-29.5 86.5q-8 51 -1 98t22 95q88 260 311 415q44 29 90.5 50t99.5 29q29 5 56 4.5t55 -10.5q33 -10 58 -30t41.5 -47t22 -59.5t-0.5 -66.5q-7 -40 -24 -75.5t-40 -67.5q-9 -11 -20.5 -17t-25.5 -2q-12 4 -20.5 15.5t-7.5 28.5
q2 20 4 38.5t4 37.5q0 12 -0.5 25.5t-2.5 26.5q-7 51 -60 42q-53 -10 -100 -40q-112 -67 -184.5 -163t-108.5 -221q-6 -20 -7 -42.5t1 -43.5q2 -28 15.5 -36t40.5 0q27 7 55 20q45 24 86 55t78 66q3 3 5 6.5t8 8.5q-24 -2 -43 -4l-38 -4h-17.5t-16.5 1q-15 3 -25 12
t-14.5 21t-2.5 24.5t13 23.5q9 11 23 19.5t28 15.5q34 15 68.5 23t70.5 11q43 4 86 5.5t86 3.5q32 0 55 -19q14 -11 19.5 -27t0.5 -30q-11 -32 -51 -30h-36z" />
    <glyph glyph-name="H" unicode="H" horiz-adv-x="724" 
d="M259 440q57 6 113 11t113 11q10 23 18.5 47.5t19.5 49.5q29 69 64 132.5t83 120.5q20 24 47 48q11 11 25 15t29 4q18 -1 31 -9t20.5 -20.5t8 -27.5t-6.5 -31q-31 -66 -61.5 -131t-61.5 -131q-9 -22 -18 -44.5t-20 -45.5q6 -4 11.5 -6.5t10.5 -6.5q8 -5 15 -10.5t13 -13.5
q11 -12 12 -26.5t-6 -28.5q-15 -27 -45 -27h-56q-4 -3 -6 -7q-24 -60 -45 -119.5t-34 -122.5q-2 -11 -2 -20t5 -19q15 -30 -8 -54q-22 -26 -57 -15q-40 11 -51 50q-5 14 -7 28.5t-3 28.5q-2 53 8 103t21 100q1 5 1 10t2 13q-20 -3 -38.5 -5.5t-36.5 -5.5q-40 -8 -80 -15
t-80 -13q-18 -3 -24 -20q-11 -38 -23 -76t-23 -76q-3 -11 -3 -21.5t1 -21.5q5 -34 -20 -51q-27 -19 -59 -6q-19 8 -29 23.5t-14 35.5q-7 29 -3.5 58t7.5 58q2 18 4.5 35.5t5.5 35.5q-6 2 -11.5 4t-10.5 4q-34 13 -38 45q-5 37 26 55q9 7 19.5 12t21.5 10t18 12t10 21
q17 75 41 147.5t58 141.5q14 30 30 58.5t33 57.5q7 10 14.5 18.5t16.5 15.5q15 10 31.5 11.5t30.5 -4.5t23.5 -18.5t12.5 -30.5q3 -32 -4 -61q-14 -69 -36 -134.5t-45 -131.5q-3 -5 -5 -11.5t-4 -12.5z" />
    <glyph glyph-name="I" unicode="I" horiz-adv-x="354" 
d="M390 772q-25 -77 -49 -151.5t-49 -149.5q-22 -69 -45 -137.5t-45 -137.5q-6 -19 -10 -38t-9 -39q-4 -13 -4 -32q1 -15 5.5 -20.5t21.5 -7.5q11 -1 22.5 -0.5t24.5 -1.5t26.5 -5t24.5 -10q16 -8 21 -21.5t0 -25.5q-12 -26 -46 -23q-14 2 -26.5 2.5t-26.5 0.5
q-156 -5 -313 -6q-7 -2 -13.5 -1t-13.5 2q-15 2 -25.5 11t-12.5 23q-2 12 6 25t23 17q34 9 70 12q26 2 51.5 3.5t50.5 3.5q1 34 0.5 67t3.5 66q14 141 50.5 274t107.5 258q3 5 5.5 10.5t5.5 12.5h-24q-22 0 -43.5 -1.5t-43.5 -1.5q-8 0 -16 2.5t-16 5.5q-20 11 -24 33.5
t14 37.5q20 14 42 20q47 8 93 15.5t93 12.5q47 4 93 4.5t94 0.5q23 0 45 -2.5t44 -7.5q11 -2 21 -8.5t19 -14.5q11 -8 12.5 -20.5t-5.5 -24.5q-5 -13 -17 -19.5t-26 -2.5q-23 7 -45.5 5.5t-45.5 -2.5q-25 -2 -49 -6t-47 -7z" />
    <glyph glyph-name="J" unicode="J" horiz-adv-x="684" 
d="M500 658q-38 -18 -73 -35.5t-70 -34.5q-67 -30 -142 -42q-23 -2 -40.5 7t-23.5 29q-5 19 3 35.5t29 24.5q69 27 128.5 65.5t119.5 80.5q19 13 38.5 25.5t39.5 24.5q18 13 42 20q40 18 68 -16q3 -4 5.5 -7.5t6.5 -5.5q23 -12 30 -31.5t5 -42.5q-3 -54 -14 -106t-28 -103
q-11 -34 -24 -67t-25 -68q-2 -3 -3 -6t-2 -8q8 -4 15 -6t15 -6q14 -5 24.5 -13.5t17.5 -22.5q6 -14 5.5 -28t-11.5 -26q-9 -12 -22 -15.5t-27 0.5q-8 1 -14.5 3t-14.5 2q-11 1 -22 1h-22q-6 -11 -11.5 -20t-11.5 -19q-32 -54 -72 -102.5t-91 -87.5q-48 -36 -100.5 -56.5
t-112.5 -22.5q-33 -2 -66 5t-63 24q-50 29 -66.5 75.5t4.5 100.5q11 26 27.5 48t36.5 41q36 32 77 55t86 40q50 18 100 30t104 12q16 0 26.5 6t17.5 23q23 49 46 97.5t46 98.5q3 5 4.5 10.5t4.5 13.5zM0 120q22 -5 51 0.5t60.5 18t63 30.5t59 38.5t48 42t29.5 41.5
q-20 9 -49 6t-61 -15t-64.5 -30t-60.5 -40t-48.5 -46t-27.5 -46z" />
    <glyph glyph-name="K" unicode="K" horiz-adv-x="605" 
d="M249 536l17 8.5t12 8.5q82 52 162.5 104t162.5 105q11 8 23 14.5t25 13.5q7 5 14 8t15 5q39 11 63 -19q11 -14 13 -31t-9 -34q-19 -26 -41 -46q-92 -87 -191 -164t-207 -145q-9 -5 -18.5 -11t-20.5 -13q7 -5 13 -9.5t13 -9.5q59 -41 113 -86.5t100 -102.5
q12 -14 22.5 -29.5t15.5 -34.5q7 -23 2.5 -42.5t-24.5 -34.5q-34 -26 -79 2q-80 51 -157 105t-149 116l-4 2l-6 3q-8 -14 -14 -28l-46 -104l-46 -104q-9 -23 -24 -41q-11 -15 -26.5 -19t-30.5 3q-16 7 -25 20t-7 31q2 12 5 24t6 25q54 196 121.5 385t147.5 375
q11 23 22 45.5t22 43.5q5 11 13.5 19.5t16.5 15.5q14 11 29 11t29 -8t19 -21.5t0 -31.5q-13 -53 -27 -104l-28 -102q-7 -24 -15 -46.5t-16 -45.5q-1 -10 -6 -26z" />
    <glyph glyph-name="L" unicode="L" horiz-adv-x="659" 
d="M147 83q-9 -8 -20.5 -16t-22.5 -16q-44 -32 -98 -29q-27 1 -47 13t-31.5 30t-12.5 41t10 47q16 36 45 59t67 32q18 4 29.5 13.5t20.5 24.5q38 70 67.5 144t57.5 149q20 55 39 110.5t39 110.5q5 12 10 24.5t11 23.5q10 14 23.5 21.5t31.5 3.5q18 -3 29 -17t10 -37
q0 -26 -2 -51t-6 -50q-19 -129 -59.5 -249t-94.5 -238q-2 -5 -4 -9.5t-5 -11.5q34 -20 67.5 -35.5t71.5 -23.5q77 -18 148 2q19 6 36 18q17 11 32.5 13.5t28.5 -8.5q14 -10 19 -26t-1 -34q-14 -43 -50 -63q-76 -43 -156 -54.5t-164 25.5q-29 13 -58 29.5t-61 33.5z" />
    <glyph glyph-name="M" unicode="M" horiz-adv-x="784" 
d="M343 303q8 11 13.5 19t12.5 16q57 80 114.5 159.5t115.5 157.5q26 35 54 67l56 64q16 19 37 25t45 -3q23 -8 37.5 -26.5t14.5 -44.5q0 -15 -2.5 -30t-7.5 -29q-21 -66 -43 -131.5t-43 -132.5q-29 -95 -52.5 -190.5t-41.5 -193.5q-2 -11 -2 -22t-1 -22q-5 -43 -42 -55
q-17 -5 -34.5 2t-28.5 25q-9 14 -14.5 29.5t-8.5 32.5q-11 78 -10.5 155t20.5 153q2 6 3 12.5t3 17.5q-8 -9 -12 -14.5t-8 -10.5q-23 -31 -46 -62.5t-49 -63.5q-11 -14 -25 -27.5t-29 -24.5q-33 -23 -68.5 -15.5t-55.5 42.5q-11 20 -19 43t-15 46q-5 17 -7 35t-4 35
q-3 16 -5 33t-7 34q-2 -7 -4 -13t-3 -11q-18 -60 -35.5 -119.5t-34.5 -119.5q-11 -34 -24.5 -66t-33.5 -62q-5 -9 -12.5 -17.5t-16.5 -14.5q-21 -14 -44.5 -6.5t-32.5 31.5q-4 11 -4.5 23t0.5 24q2 40 11 79t22 77q32 91 62 180t62 179q14 37 30.5 71.5t33.5 69.5
q5 11 12 20.5t15 17.5q15 16 32 15.5t34 -12.5q16 -11 24 -26.5t10 -35.5q5 -54 11.5 -108.5t13.5 -108.5q5 -38 10 -74.5t10 -73.5q2 -5 3 -10.5t4 -13.5z" />
    <glyph glyph-name="N" unicode="N" horiz-adv-x="682" 
d="M170 305q-2 -6 -4 -9.5t-3 -7.5q-4 -14 -10 -42.5t-13 -64t-15 -73.5t-16.5 -71t-17.5 -56.5t-17 -30.5q-15 -11 -35 -12.5t-37 9.5q-23 13 -30.5 40t-7.5 57.5t4.5 60.5l7.5 50q14 81 29 157.5t35.5 148t47 139t63.5 131.5q12 19 24.5 37t26.5 35q25 35 68 32
q28 -2 46.5 -17t23.5 -43q3 -18 3.5 -36t0.5 -37q-2 -48 -4.5 -94.5t-4.5 -94.5q-4 -78 13 -151.5t46 -145.5q0 -2 2 -3.5t4 -6.5q2 6 4 11.5t4 10.5q29 125 75.5 243t108.5 230q17 30 36.5 57t45.5 50q14 13 30.5 22.5t36.5 10.5q19 1 35.5 -6t27 -20t14 -30t-2.5 -36
q-9 -28 -20.5 -55t-26.5 -53q-74 -128 -123.5 -267.5t-91.5 -281.5q-6 -21 -9 -43q-1 -7 1 -14l4 -14q13 -26 12.5 -45t-15.5 -36q-14 -16 -38.5 -20t-47.5 6q-56 20 -100 63t-78.5 96.5t-62 111.5t-49.5 108z" />
    <glyph glyph-name="O" unicode="O" horiz-adv-x="647" 
d="M683 580q-13 -154 -80 -283.5t-188 -232.5q-43 -37 -91.5 -60.5t-105.5 -28.5q-46 -5 -83 6t-65 33.5t-46.5 54t-25.5 67.5q-11 49 -5.5 96t19.5 95q31 102 79.5 194t116.5 175q15 18 30.5 34t32.5 32q14 14 31 23.5t37 16.5q8 2 14.5 5.5t14.5 7.5q38 19 77 25.5
t82 -1.5q49 -10 81.5 -39t51.5 -74q14 -32 17.5 -68t5.5 -78zM195 333q-7 -15 -13 -34t-10.5 -38.5t-6.5 -38t-2 -33.5q0 -5 1 -9.5t2 -10.5q4 -19 11 -24.5t27 -4.5q11 0 22 3q26 5 49 17t44 27q147 111 198 285q12 43 15 86t-10 87q-7 25 -19 30.5t-35 -7.5q-8 -4 -16 -10
t-13 -13q-11 -11 -20 -23t-17 -26q-26 -50 -38.5 -103t-18.5 -108q-1 -11 2.5 -21t14.5 -19q12 -10 16.5 -23.5t3 -27t-9 -25.5t-20.5 -20q-31 -19 -65 -12q-29 7 -47 24.5t-31 41.5q-3 8 -6 15t-8 15z" />
    <glyph glyph-name="P" unicode="P" horiz-adv-x="611" 
d="M149 259q-15 -46 -28.5 -89t-28.5 -86q-12 -39 -29 -75q-12 -27 -40 -36q-25 -6 -46 8t-23 42q-2 17 -1 35.5t2 38.5q14 132 51 257.5t88 246.5q20 47 42 91.5t43 89.5q9 19 20.5 36t23.5 35q14 17 32.5 20.5t35.5 -4.5q37 -16 31 -61q-3 -28 -14 -60q-2 -14 -6.5 -27.5
t-6.5 -30.5l8 6t9 7q26 20 51 40.5t52 38.5q53 36 117 35q30 0 56 -10.5t46 -28.5t33 -43t18 -55q5 -38 0.5 -73.5t-15.5 -70.5q-17 -61 -44 -115.5t-65 -105.5q-21 -28 -45.5 -50.5t-51.5 -42.5q-81 -54 -175 -30q-37 11 -71 27.5t-69 39.5zM215 396q20 -11 39.5 -16
t40.5 -10q36 -7 65 14q8 6 15.5 12t14.5 13q36 37 66 77t51 88q4 11 13.5 33t14.5 42.5t0.5 33.5t-27.5 7q-24 -5 -42.5 -17.5t-36.5 -26.5q-37 -29 -68 -63t-61 -72q-21 -27 -42.5 -56t-42.5 -59z" />
    <glyph glyph-name="Q" unicode="Q" horiz-adv-x="645" 
d="M256 156q2 30 4 59.5t6 57.5q11 88 36.5 169.5t73.5 155.5q16 26 36 49.5t44 41.5q21 15 44 24t49 11q29 2 51.5 -6.5t38.5 -24t25 -35.5t12 -41q4 -32 1 -62.5t-11 -61.5q-27 -101 -79 -185.5t-127 -156.5q-13 -13 -27 -25t-28 -23t-17 -29q-2 -45 -3 -84.5t11 -81.5
q5 -17 2.5 -30.5t-14.5 -24.5q-25 -23 -58 -7q-21 11 -32.5 29t-18 39.5t-9.5 44t-7 42.5q0 4 -0.5 7.5t-0.5 8.5q-8 -1 -15 -2l-14 -2q-113 -21 -182 73q-30 43 -41.5 91.5t-7.5 99.5q12 156 81.5 280.5t193.5 219.5q17 14 36.5 23.5t39.5 17.5q11 5 26 4.5t26 -4.5
q15 -5 24 -16t11 -23.5t-3.5 -26t-18.5 -23.5q-75 -55 -126.5 -126.5t-88.5 -156.5q-23 -48 -37 -98.5t-13 -104.5q2 -15 4 -31.5t7 -31.5q14 -47 63 -35q8 2 16.5 5t16.5 6zM545 569q-16 -12 -35.5 -46t-36.5 -75.5t-29 -83.5t-13 -72q53 61 81.5 128.5t32.5 148.5z" />
    <glyph glyph-name="R" unicode="R" horiz-adv-x="725" 
d="M282 226q65 -58 130.5 -107.5t143.5 -82.5q18 -8 36 -11.5t38 1.5q17 4 30 -5t18 -24q4 -14 -2 -27t-22 -21q-20 -11 -42.5 -13.5t-45.5 2.5q-61 9 -118 36q-80 38 -153 85t-135 112q-8 9 -15.5 17.5t-16.5 19.5q-8 -21 -14.5 -39.5t-13.5 -37.5q-9 -25 -17.5 -49.5
t-16.5 -50.5q-3 -7 -5.5 -13.5t-6.5 -13.5q-9 -20 -25.5 -28t-36.5 -6q-18 4 -30.5 17.5t-14.5 34.5q-1 14 -1 29t2 29q19 123 45 243t71 236q22 57 45 111t54 105l20 30t22 29q15 17 33 20.5t36 -4.5q17 -9 25.5 -26t3.5 -39q-7 -30 -14.5 -60.5t-15.5 -60.5
q-2 -8 -4.5 -17t-0.5 -18q5 5 11 10t11 11q38 38 78 71.5t87 59.5q29 17 58.5 29.5t62.5 17.5q36 5 67 -3.5t54.5 -28t37.5 -48t15 -64.5q2 -41 -10.5 -78t-32.5 -72q-33 -59 -79 -106t-100 -89q-98 -73 -220 -106q-5 -1 -11.5 -3t-14.5 -4zM452 634q-72 -52 -129 -114.5
t-108 -134.5q-2 -2 -2 -5t-2 -8q8 3 13 4.5t10 3.5q87 38 163 90.5t140 123.5q42 48 46.5 70t-13.5 23.5t-51.5 -13.5t-66.5 -40z" />
    <glyph glyph-name="S" unicode="S" horiz-adv-x="742" 
d="M534 696q-80 -8 -140 -44t-109 -95q17 -11 33 -14l32 -6q42 -8 82.5 -15t81.5 -17q51 -14 98 -40q52 -30 70 -80t-2 -108q-9 -22 -21 -44t-26 -41q-66 -78 -146 -132.5t-177 -80.5q-75 -22 -143 -6t-130 63q-38 28 -57.5 67t-11.5 90q5 16 11 31.5t14 30.5
q11 20 28.5 25.5t34.5 -2.5q19 -7 28.5 -23.5t4.5 -37.5q-2 -6 -4 -16q-2 -17 1.5 -24.5t18.5 -15.5q26 -14 53 -19.5t56 1.5q83 20 156.5 58.5t136.5 98.5q31 28 26.5 41t-39.5 23q-31 6 -62.5 12.5t-61.5 12.5q-32 6 -63.5 10.5t-61.5 13.5q-41 12 -68 35.5t-39.5 54
t-10 66.5t22.5 75q20 38 48 68t61 54q65 50 136 77.5t154 22.5q29 -3 55 -13.5t49 -31.5q32 -30 37.5 -69.5t-14.5 -77.5q-38 -70 -115 -96q-36 -12 -57 15q-11 15 -8 29t11 28q6 11 12.5 21t14.5 25z" />
    <glyph glyph-name="T" unicode="T" horiz-adv-x="303" 
d="M320 704q-27 -86 -54.5 -170t-53.5 -169q-23 -69 -44 -138.5t-35 -140.5q-3 -15 -3.5 -29t3.5 -29q5 -16 1 -30.5t-14.5 -24t-26 -13.5t-31.5 1q-24 8 -37.5 26t-17.5 42q-5 23 -6 46.5t0 46.5q11 149 44 290.5t99 277.5q1 2 2 4.5t2 7.5q-18 2 -35 4t-34 6
q-28 6 -54.5 13.5t-54.5 16.5q-9 4 -18.5 9t-17.5 12q-12 10 -16.5 23.5t-2.5 26.5t10 24t23 17q14 7 30 8.5t33 1.5q45 1 88 -0.5t87 -0.5q49 2 98 6l98 8q27 2 54.5 4.5t54.5 3.5q78 4 156 7l156 6q14 0 28 -2.5t27 -6.5q19 -6 27.5 -19.5t8.5 -31.5q-1 -16 -9 -26.5
t-21 -18.5q-5 -2 -9.5 -2.5t-9.5 -1.5q-96 -16 -190.5 -31t-190.5 -31q-35 -6 -71 -11.5t-73 -11.5z" />
    <glyph glyph-name="U" unicode="U" horiz-adv-x="798" 
d="M141 171q37 18 60 45q43 46 84.5 90t78.5 92q75 97 146 194.5t142 196.5q7 10 12.5 19.5t11.5 17.5q15 21 35.5 29t43.5 2q55 -19 58 -74q2 -14 0 -30t-6 -31q-15 -69 -33 -136.5t-31 -137.5q-20 -105 -38 -208.5t-37 -209.5q0 -9 -3 -18q-15 -43 -55 -47q-19 -1 -34 7.5
t-21 28.5q-8 19 -13.5 40.5t-6.5 43.5q-2 66 -2 132t-1 135q0 2 -3 13q-8 -9 -14 -17t-14 -16q-44 -54 -88 -107t-91 -107q-20 -21 -43 -39.5t-48 -36.5q-29 -20 -69 -33q-46 -13 -85.5 5t-66.5 61q-14 25 -21 52t-11 56q-5 55 0.5 108.5t17.5 107.5q20 86 50 166.5
t72 155.5q12 22 26.5 42t30.5 39q12 14 28 24t39 9q24 -2 38 -21.5t9 -45.5q-2 -11 -6.5 -21t-9.5 -19q-45 -97 -76 -195.5t-51 -204.5q-5 -29 -6 -60t-4 -63q-1 -8 1 -16t4 -18z" />
    <glyph glyph-name="V" unicode="V" horiz-adv-x="361" 
d="M156 355q2 4 4 8.5t4 9.5q67 135 153.5 254t193.5 226q10 11 22 21t24 18q28 21 61 5q21 -11 27.5 -32.5t-4.5 -43.5q-5 -9 -11 -17t-12 -17q-48 -62 -96.5 -122.5t-96.5 -123.5q-58 -78 -104 -161.5t-79 -174.5q-26 -69 -31 -145q-1 -11 -2 -21.5t-5 -21.5
q-7 -23 -22.5 -36t-38.5 -16q-24 -3 -42.5 5.5t-29.5 29.5q-11 24 -20.5 48.5t-16.5 50.5q-23 79 -28 159.5t-3 162.5q2 62 10 122t28 120q5 16 11 30.5t14 28.5q10 16 24 22.5t28 2.5q34 -8 34 -48q1 -32 -1 -63t-2 -62q-1 -51 -1 -101t-1 -101q0 -5 1 -9t3 -9q1 0 2 0.5
t3 0.5z" />
    <glyph glyph-name="W" unicode="W" horiz-adv-x="938" 
d="M158 224q10 12 18 24l16 24q34 48 67.5 96t67.5 96q13 18 24.5 37.5t23.5 39.5q15 20 35.5 29t45.5 4q51 -15 61 -67q2 -11 2.5 -23.5t-0.5 -23.5q-3 -29 -6.5 -56.5t-6.5 -55.5q-2 -36 -3 -72.5t6 -72.5q11 -55 35 -67.5t69 18.5q45 32 68 86q34 79 44.5 159t-6.5 165
q-11 46 -29 88t-41 81q-33 51 -3 96q14 23 37.5 33t48.5 -1q17 -5 32.5 -15.5t29.5 -23.5q54 -51 82 -115.5t39 -141.5q5 -39 3 -78t-10 -77q-21 -125 -74 -235q-29 -61 -71 -107t-99 -77q-49 -26 -95 -28.5t-85.5 15.5t-70.5 54t-50 87q-10 25 -15.5 52t-13.5 54
q-5 -5 -10.5 -12.5t-9.5 -13.5q-23 -34 -45 -67t-45 -65q-11 -14 -22 -25.5t-25 -21.5q-44 -35 -89.5 -22.5t-71.5 63.5q-15 29 -20 60t-7 64q-2 42 3.5 84t13.5 85q39 192 118 363q10 24 22.5 46t27.5 43q8 11 20.5 19.5t23.5 14.5q16 6 30 2.5t23.5 -13.5t14 -25t1.5 -33
q-2 -8 -4 -15t-4 -15q-27 -93 -53 -184.5t-50 -185.5q-10 -35 -15 -71.5t-10 -74.5q2 0 3.5 -0.5t3.5 -0.5z" />
    <glyph glyph-name="X" unicode="X" horiz-adv-x="621" 
d="M193 199q-22 -33 -42 -64t-40 -60q-7 -11 -14.5 -22t-15.5 -21q-14 -16 -34 -19.5t-38 5.5q-17 9 -26 26.5t-4 38.5q5 17 10.5 33t12.5 32q21 49 49 92t60 85q8 11 10 20t-1 23q-20 81 -22.5 162t14.5 163q3 16 8.5 31t11.5 29q12 21 30.5 31t38.5 6q20 -5 33.5 -19.5
t16.5 -39.5q4 -35 7 -68t6 -67q1 -18 2.5 -37.5t3.5 -41.5q7 6 11 10l7 7q58 55 115.5 110t115.5 111q33 32 67 62.5t72 57.5q7 5 13.5 9t14.5 8q37 17 65 -10q14 -12 19.5 -28.5t-1.5 -34.5q-5 -12 -11.5 -25t-16.5 -23q-25 -25 -49.5 -49t-52.5 -46q-91 -72 -172 -151.5
t-154 -167.5q-2 -2 -4 -5t-4 -7q30 -73 73 -136.5t106 -114.5q14 -12 29.5 -20t35.5 -9q15 0 25 -10t16 -24q9 -28 -14 -51q-11 -11 -24 -15t-27 -5q-26 -2 -48.5 4.5t-44.5 17.5q-42 19 -76 45.5t-64 57.5q-23 23 -43 47t-41 48q-7 7 -15 19z" />
    <glyph glyph-name="Y" unicode="Y" horiz-adv-x="664" 
d="M471 499q-8 -8 -16 -16.5t-16 -17.5q-45 -47 -90 -92.5t-97 -84.5q-22 -17 -44.5 -31t-49.5 -21q-38 -9 -71.5 3.5t-56.5 44.5q-26 39 -29 89q-4 40 -0.5 79t11.5 78q14 66 35 129.5t52 123.5q7 13 14 25t15 23q6 7 13 14t15 12q30 17 57 -2q15 -9 19.5 -23t0.5 -31
q-4 -15 -9 -30t-11 -30q-21 -63 -39 -125.5t-29 -128.5q-9 -50 -8.5 -75t11.5 -29.5t32 8.5t51 40q73 66 140 137.5t128 149.5q17 22 31.5 45t31.5 47q8 11 15.5 24t17.5 24q17 19 39 25t43 -3q47 -20 49 -70q2 -23 -5 -47q-28 -119 -55 -237.5t-68 -234.5
q-23 -67 -52 -130.5t-71 -121.5q-26 -34 -56.5 -63t-71.5 -45q-60 -24 -116.5 -17t-110.5 38q-20 11 -32.5 29.5t-19.5 40.5q-13 40 19 65q28 24 65 7q18 -9 39 -11t42 2t39.5 13.5t32.5 24.5q23 25 40 53t31 58q31 64 54.5 129.5t40.5 135.5z" />
    <glyph glyph-name="Z" unicode="Z" horiz-adv-x="664" 
d="M481 721q-79 -23 -154 -55t-144 -77q-6 -3 -12 -6.5t-11 -5.5q-11 -4 -20.5 -2.5t-17.5 10.5q-17 18 -6 38q5 8 9.5 17t11.5 14q23 20 46 41t49 38q81 51 169 84t183 48q30 5 55 -4t40.5 -27t20 -43.5t-5.5 -54.5q-8 -20 -17 -40.5t-23 -37.5q-36 -50 -74 -97.5
t-76 -95.5q-9 -11 -18 -21.5t-20 -23.5q17 -2 31 -4t28 -6q17 -4 33 -8t31 -11q12 -5 16 -15.5t0 -21.5q-6 -21 -32 -21q-3 0 -6 1t-5 1q-35 2 -68 5l-66 6q-26 3 -43 -19q-29 -36 -60 -72t-60 -72q-6 -6 -11 -12.5t-11 -14.5q32 3 63 6t61 5q39 2 77.5 -0.5t76.5 -13.5
q10 -2 18.5 -5.5t17.5 -8.5q16 -12 24 -28.5t6.5 -33.5t-11.5 -31.5t-28 -22.5q-14 -8 -31 -11t-34 -5q-56 -1 -111 0q-74 2 -145.5 -8.5t-142.5 -35.5q-12 -5 -26.5 -7t-27.5 1q-20 4 -33.5 15.5t-20 28t-4.5 35t14 36.5q20 29 41 57.5t44 56.5q29 35 59 67.5t59 67.5
q7 7 15 19q-8 -2 -13.5 -3t-10.5 -1q-29 0 -40 25q-5 11 -2.5 23.5t13.5 22.5q12 10 27 14.5t30 6.5q16 2 32 3l32 2q15 0 26 11q45 54 89 106.5t89 106.5q10 12 25 29t22.5 29.5t0 16.5t-42.5 -11z" />
    <glyph glyph-name="a" unicode="a" horiz-adv-x="529" 
d="M292 107q-8 -8 -14.5 -15.5t-14.5 -15.5q-25 -26 -52.5 -47.5t-65.5 -29.5q-71 -15 -117 41q-17 20 -26 42.5t-11 48.5q-9 200 151 319q45 34 95.5 41.5t102.5 -16.5q16 -7 30 -17.5t29 -20.5q9 6 17.5 13t18.5 12q42 27 77 -1q34 -28 20 -71q-10 -27 -20.5 -53
t-19.5 -54l-57 -159q-7 -25 1 -48q16 -42 -16 -66q-16 -12 -34.5 -13t-36.5 11q-17 11 -28 27t-18 36q-2 8 -4.5 16.5t-6.5 19.5zM227 173q22 20 44.5 48t36.5 54.5t14.5 46.5t-21.5 25q-26 5 -47.5 -2.5t-41.5 -24.5q-36 -33 -56 -78q-17 -39 -22 -68.5t3 -42.5t30 -4.5
t60 46.5z" />
    <glyph glyph-name="b" unicode="b" horiz-adv-x="513" 
d="M205 422q11 8 18 13t15 10q21 13 43.5 22.5t48.5 12.5q46 5 81.5 -17t51.5 -66q11 -29 11 -59t-7 -59q-17 -65 -49.5 -119t-85.5 -96q-54 -42 -115.5 -57.5t-129.5 -1.5q-56 9 -81 62q-4 8 -6.5 17.5t-2.5 17.5q1 113 20 222t49 217q18 66 46 127.5t68 118.5
q8 12 18 24.5t21 22.5q23 19 47 27q15 4 28 1t23 -11t15 -21t3 -28q-2 -11 -5.5 -23.5t-7.5 -23.5q-28 -79 -56 -157t-56 -157q-2 -4 -2.5 -7.5t-2.5 -11.5zM170 129q26 8 61 32t65 56.5t48.5 68.5t10.5 68q-5 21 -24 14.5t-44 -28.5t-51 -55t-45 -64.5t-26.5 -57.5t5.5 -34
z" />
    <glyph glyph-name="c" unicode="c" horiz-adv-x="438" 
d="M-1 207q10 81 47 147t106 117q54 38 107.5 41.5t97.5 -27.5q22 -17 34 -38.5t13.5 -45.5t-7 -49t-28.5 -49q-10 -11 -22 -17t-26 -3q-25 8 -25 44q0 3 0.5 6t0.5 6q2 23 -9 32t-34 1q-11 -4 -22.5 -11t-21.5 -15q-79 -81 -73 -190q3 -30 15.5 -40t29 -6t35.5 18t36.5 31
t31.5 34t21 26q19 27 41 31.5t37.5 -6t20.5 -34t-10 -52.5q-18 -35 -46.5 -66.5t-63 -54.5t-72 -36t-73.5 -10t-68 24t-55 64q-15 29 -18.5 61t0.5 67z" />
    <glyph glyph-name="d" unicode="d" horiz-adv-x="551" 
d="M331 121q-19 -17 -34.5 -31t-32.5 -26q-14 -11 -29.5 -23t-31.5 -20q-34 -18 -66.5 -19t-59.5 12t-46.5 39.5t-27.5 63.5q-7 33 -4 65.5t13 64.5q38 115 130 191q55 47 117 59t131 -17q1 -2 8 -2q13 30 23 57.5t21.5 54t25.5 52t34 52.5q10 13 20 24t22 22
q17 14 36.5 15.5t36.5 -9.5q16 -11 22.5 -30t-1.5 -41q-29 -86 -62.5 -170t-61.5 -168t-45 -169t-12 -172q0 -13 2 -23.5t3 -20.5t-2.5 -18.5t-13.5 -16.5q-13 -10 -29.5 -10.5t-32.5 10.5q-23 17 -34 42.5t-15.5 53.5t-4 56.5t0.5 51.5zM198 274q-15 -15 -27 -32t-20.5 -34
t-13 -32.5t-2.5 -27.5q0 -12 15.5 -10.5t38.5 13.5t49 32.5t47 47.5q37 49 40 73t-14 27t-48.5 -12t-64.5 -45z" />
    <glyph glyph-name="e" unicode="e" horiz-adv-x="486" 
d="M167 141q23 -26 49.5 -22.5t53 22.5t52 46.5t47.5 49.5q11 11 25 10.5t27 -8.5q14 -8 19.5 -21.5t3.5 -28.5q-3 -16 -13 -35q-37 -76 -108 -128q-52 -36 -105 -40t-110 21q-49 31 -74.5 77.5t-30.5 98t9 104.5t43 97.5t73 76.5t98 43q55 10 95.5 -10t62 -54t21 -72.5
t-26.5 -64.5q-22 -23 -49 -44.5t-55.5 -42t-56 -39t-50.5 -36.5zM152 245q33 23 59 42t43 36q29 27 33 44t-6.5 23t-30 -0.5t-37.5 -27.5q-33 -38 -61 -117z" />
    <glyph glyph-name="f" unicode="f" horiz-adv-x="509" 
d="M312 330q17 -2 31 -3t28 -4q29 -4 49.5 -19t25.5 -37q2 -10 -1.5 -20t-11 -17.5t-18 -11.5t-23.5 -3q-11 2 -31 1t-41 -4.5t-40 -8.5t-28 -12q-11 -9 -15.5 -24t-8.5 -29q-11 -29 -20 -56.5t-17 -56.5q-5 -17 -9.5 -46.5t-6.5 -62t0 -63t11 -48.5q10 -21 3 -41.5
t-25.5 -33t-45 -13.5t-55.5 17q-28 17 -43.5 40t-23.5 50q-12 40 -12 79.5t7 78.5t17.5 76.5t20.5 75.5q1 4 2 8.5t3 9.5q-6 2 -10.5 3t-9.5 3q-20 6 -31.5 18t-14.5 25.5t3.5 27t23.5 24.5q15 10 31 17t34 13q19 6 28.5 15.5t16.5 23.5q14 30 32 67t39.5 73.5t47.5 70
t56.5 57.5t65 36t74.5 6q3 -1 6 -1t5 -1q48 -11 70 -38t15 -67q-2 -16 -5.5 -30.5t-8.5 -28.5q-5 -18 -16.5 -34.5t-34.5 -13.5q-18 2 -34.5 9.5t-33 4.5t-34 -24.5t-37.5 -77.5z" />
    <glyph glyph-name="g" unicode="g" horiz-adv-x="504" 
d="M400 388q34 -11 47 -28.5t15 -39t-2.5 -45.5t-7.5 -47q-15 -111 -52 -213t-90 -200q-23 -42 -53.5 -75t-72.5 -55q-59 -32 -115.5 -28.5t-110.5 43.5q-40 31 -61 73t-12 96q8 52 55 77q28 17 55.5 7t39.5 -38q7 -14 13.5 -28t12.5 -28q14 -29 38 -11q8 5 15.5 11t12.5 14
q11 15 21 30t18 32q17 30 30.5 63t25.5 69q-7 -1 -10.5 -1t-5.5 -2q-36 -17 -72 -15.5t-66 19.5t-49.5 50.5t-22.5 77.5q-2 43 9 93t33.5 95.5t55.5 80.5t75 49q49 17 102 6.5t94 -46.5q19 -17 28.5 -38t6.5 -48zM141 173q5 -16 17.5 -18.5t27.5 6.5t31 28t28 46
q21 48 32.5 73.5t19.5 37.5t15.5 16t21.5 9q-22 25 -46.5 26t-48.5 -13.5t-45 -40.5t-35.5 -56.5t-20 -61t2.5 -52.5z" />
    <glyph glyph-name="h" unicode="h" horiz-adv-x="535" 
d="M209 302q40 33 78.5 63t85.5 50q46 19 75.5 13.5t44 -24.5t15.5 -47t-9 -53q-6 -16 -14 -44t-15 -59t-12.5 -59.5t-8.5 -45.5q-3 -14 -7 -27.5t-10 -25.5q-10 -23 -28.5 -34.5t-40.5 -10.5q-34 3 -54.5 18.5t-30 39t-10 52.5t4.5 57.5t14 55t19 45.5q5 10 8 20.5t1 15
t-10 1.5t-26 -20q-17 -17 -37.5 -40.5t-38 -51.5t-30 -58.5t-14.5 -61.5q-3 -53 -46 -68q-34 -12 -55.5 -4t-33.5 27.5t-16.5 47.5t-4 57.5t3 55.5t4.5 42q17 154 66 277t112 219q13 20 31.5 40.5t40.5 33t45.5 14t46.5 -15.5q22 -15 28.5 -36.5t3 -44t-14 -43.5t-21.5 -37
q-29 -45 -50 -85t-36.5 -79.5t-28 -81t-25.5 -88.5z" />
    <glyph glyph-name="i" unicode="i" horiz-adv-x="305" 
d="M93 417q25 36 69 48q24 6 45 0t36 -20.5t21.5 -35t1.5 -44.5q-2 -14 -7.5 -26.5t-13.5 -23.5q-14 -22 -34 -58t-38 -75.5t-30.5 -76.5t-12.5 -60q0 -44 -39 -63q-40 -16 -75 10q-32 26 -38 71q-7 48 2 97q13 72 44.5 135.5t68.5 121.5zM183 594q2 26 20 49.5t46 42.5
q16 11 36.5 6.5t34.5 -17.5q15 -14 20.5 -34.5t-3.5 -40.5q-8 -16 -17.5 -32t-20.5 -30q-14 -20 -34.5 -26t-39.5 2q-43 16 -42 80z" />
    <glyph glyph-name="j" unicode="j" horiz-adv-x="320" 
d="M-381 -140q0 24 13 41t35 24q21 6 41 -1.5t31 -29.5q10 -18 24 -23.5t32 -5.5q58 -3 101 38q38 38 66.5 84.5t51.5 95.5q23 48 37 98.5t22 102.5q7 35 23 72q21 46 73 46q55 -7 76.5 -40t14.5 -77q-10 -65 -28.5 -130.5t-45.5 -128.5t-61.5 -121.5t-76.5 -108.5
q-27 -31 -61 -55t-71.5 -38.5t-77 -18.5t-76.5 5q-66 15 -102.5 61.5t-40.5 109.5zM145 578q-2 28 11 58.5t35 52t50 27.5t56 -14q16 -12 21.5 -29.5t-1.5 -35.5q-19 -56 -47 -110q-11 -23 -32.5 -32t-44.5 -4q-22 6 -35 24.5t-13 45.5q-1 4 -0.5 8t0.5 9z" />
    <glyph glyph-name="k" unicode="k" horiz-adv-x="502" 
d="M319 241q15 -9 31.5 -24t32.5 -32.5t29.5 -37t21.5 -38.5q14 -32 4 -60t-32.5 -44.5t-51 -17t-51.5 22.5q-14 14 -23.5 29t-17.5 31t-16 31.5t-18 29.5q-17 22 -34 32t-31 3t-24.5 -33t-13.5 -75q-2 -26 -14 -42t-33 -21q-20 -5 -40.5 3.5t-34.5 29.5q-13 22 -15.5 55.5
t1.5 70.5t11 71.5t12 57.5q24 114 63 219.5t90 208.5q19 39 47.5 76t66.5 55q19 8 38 6t33 -12.5t22 -27.5t6 -38q-1 -14 -5.5 -29.5t-10.5 -29.5q-19 -45 -38.5 -88t-38.5 -88q-4 -10 -15 -36t-23 -56t-22 -58.5t-13 -43.5q16 13 36.5 38.5t41 54t39 56.5t30.5 46
q19 29 50 37.5t59.5 -0.5t47 -35t12.5 -65q-5 -32 -28.5 -66.5t-55.5 -66.5t-66 -58t-59 -41z" />
    <glyph glyph-name="l" unicode="l" horiz-adv-x="247" 
d="M0 163q3 78 20 156t45.5 153t65 145.5t78.5 132.5q14 20 31 38.5t34 36.5q11 11 23.5 17t29.5 7q38 3 62 -20.5t23 -61.5q-2 -10 -2.5 -19.5t-5.5 -17.5q-52 -94 -103.5 -178.5t-87.5 -167.5q-11 -24 -24 -64t-21.5 -83t-10.5 -82.5t10 -63.5q13 -20 11 -39.5t-16 -37.5
q-13 -17 -34 -22.5t-43 2.5q-19 6 -32 17t-22.5 26t-15 32t-9.5 34t-4.5 33.5t-1.5 26.5z" />
    <glyph glyph-name="m" unicode="m" horiz-adv-x="818" 
d="M433 186q-9 -11 -17 -22.5t-19 -19.5q-27 -21 -53.5 -10.5t-33.5 43.5q-3 12 -2.5 25.5t2.5 26.5q12 70 8 94.5t-18 18.5t-35 -36t-43 -69t-42 -80t-32 -70q-5 -11 -9 -22.5t-11 -22.5q-15 -25 -42.5 -34.5t-55.5 -1.5q-28 9 -45.5 30t-19.5 50q0 26 6 49q13 49 31 101
t40 102.5t48.5 96.5t58.5 82q15 16 38.5 21.5t45 0t36 -21t11.5 -40.5q-3 -27 -24 -58q82 32 126 14t45 -75q24 28 53 59.5t62.5 57t71 39t78.5 5.5q38 -7 59 -25t30 -43t7.5 -54t-8.5 -58q-16 -63 -38 -127.5t-29 -128.5q-2 -11 -5 -20.5t-8 -18.5q-14 -29 -40 -44t-53 -9
q-38 2 -56 19.5t-23 42t-0.5 52.5t12.5 52q34 107 52.5 164t10 61.5t-48 -44t-121.5 -152.5z" />
    <glyph glyph-name="n" unicode="n" horiz-adv-x="604" 
d="M271 405q28 19 59 34t62 23t59 7t49.5 -15t34.5 -42t13 -74q0 -41 -8 -90.5t-22 -95.5t-32 -83t-39 -53q-27 -22 -56 -27t-51.5 4t-35 29t-7.5 48q2 10 12 38.5t22 64t21.5 71.5t11.5 62q1 15 -4 23t-13 10t-19 -1.5t-22 -9.5q-26 -16 -49.5 -44t-43 -63t-35 -75
t-25.5 -80q-5 -20 -16 -36t-26.5 -26.5t-34 -14t-37.5 1.5q-24 6 -38 16t-21 22.5t-7.5 29t1.5 36.5q6 52 18.5 110.5t33 114.5t50 105.5t68.5 82.5q19 16 40 24.5t44 3.5q25 -8 38 -22t16.5 -32t0 -38t-11.5 -39z" />
    <glyph glyph-name="o" unicode="o" horiz-adv-x="505" 
d="M334 64q-38 -37 -80.5 -56.5t-83 -22t-76 10.5t-60 41t-35.5 70t-3 96q4 24 9 47.5t10 46.5q11 61 46 104.5t95 79.5q37 23 75.5 32.5t73.5 7t65 -16t51 -37.5q36 -40 40 -95.5t-12 -112.5t-47.5 -109t-67.5 -86zM287 185q24 38 41 81t13 83q0 15 -10 23t-23.5 9.5
t-29 -4t-25.5 -18.5q-5 -3 -8.5 -8.5t-2.5 -9.5q5 -14 -1 -26.5t-17 -24.5q-22 -21 -34 -43.5t-20 -46.5q-17 -47 -10.5 -68.5t26 -21.5t47.5 19.5t54 55.5z" />
    <glyph glyph-name="p" unicode="p" horiz-adv-x="582" 
d="M123 51q-24 -76 -47.5 -148.5t-46.5 -145.5q-7 -23 -18 -44.5t-27 -36.5t-37.5 -22t-49.5 0q-26 9 -40 25t-18.5 36t-0.5 42t13 43q57 138 116.5 303.5t114.5 349.5q5 11 10 20t12 19q13 18 31 25.5t36 5.5t33.5 -13.5t23.5 -32.5q5 -16 6.5 -33t3.5 -34q1 -10 -2 -29
q38 32 76 62t86 41q30 5 55 -2.5t43.5 -24.5t29.5 -40.5t14 -49.5q5 -100 -35.5 -177t-120.5 -135q-26 -18 -53.5 -30t-58.5 -16q-35 -5 -66 2.5t-61 25.5q-4 3 -9 5.5t-13 8.5zM402 376q-29 -16 -58.5 -40t-56.5 -51t-51 -55t-43 -52q39 -4 75 7t66 29.5t51.5 42.5
t31.5 47.5t7 42.5t-22 29z" />
    <glyph glyph-name="q" unicode="q" horiz-adv-x="527" 
d="M407 287q3 -2 5.5 -4.5t5.5 -4.5q20 -17 28.5 -39t-2.5 -46q-17 -38 -37 -75t-39 -74t-33.5 -74.5t-19.5 -75t2 -75.5t32 -77q14 -20 14 -41.5t-11 -38.5t-30 -25.5t-42 -1.5q-53 14 -83 57t-41 99t-5.5 119t24.5 117q-45 -25 -80 -17.5t-58.5 35.5t-33.5 71t-4 89
q13 94 56 169t125 126q37 22 80 31.5t84 3.5t75.5 -28.5t54.5 -64.5q8 -18 11.5 -36t1.5 -38q-4 -35 -22 -53.5t-58 -27.5zM283 242q20 24 45.5 40.5t63.5 11.5q-10 3 -17 12t-12 20.5t-9.5 22t-8.5 15.5q-15 16 -40 13q-33 -4 -60.5 -26t-48.5 -51t-33.5 -60.5t-14 -55
t9 -33.5t35.5 4q29 16 50.5 38.5t39.5 48.5z" />
    <glyph glyph-name="r" unicode="r" horiz-adv-x="515" 
d="M252 416q20 6 32 11q70 20 115 -36q11 -16 23.5 -29t32.5 -22q13 -5 19.5 -17.5t5.5 -26.5q-5 -29 -37 -34q-25 -5 -43 -2t-34 11.5t-31.5 20t-35.5 23.5q-20 14 -42 5.5t-42 -28t-35.5 -44t-21.5 -42.5q-10 -36 -16.5 -80t-18.5 -79q-8 -21 -21.5 -36.5t-38.5 -22.5
q-22 -6 -43 -1t-37.5 18t-26.5 31.5t-9 40.5q1 9 2.5 17t3.5 17q26 85 57.5 168.5t67.5 165.5q5 11 12.5 21t16.5 18q18 15 39.5 18.5t42 -3t37 -22.5t23.5 -38q1 -5 1.5 -10t1.5 -13z" />
    <glyph glyph-name="s" unicode="s" horiz-adv-x="460" 
d="M353 80q0 -38 -14 -78t-38.5 -75t-58 -63t-71.5 -43t-79 -14t-81 24q-27 15 -43.5 39.5t-23.5 54.5t-4 62.5t13.5 62.5t28.5 56.5t43 43.5q30 16 56 -4q12 -8 17 -21t3 -27q-2 -12 -4 -19t-4 -13t-3 -12.5t-1 -16.5q-1 -23 7.5 -31.5t20.5 -6t25 16t21 35.5
q11 30 4.5 53.5t-22 43t-36 37.5t-36.5 36q-30 35 -40 81t5 90q16 45 47.5 76.5t72 48.5t86.5 19.5t90 -11.5q48 -16 76.5 -50t30.5 -79q2 -35 -12.5 -61.5t-40.5 -47.5q-14 -11 -26.5 -12t-23.5 7q-9 8 -12 19t1 29q2 6 4 10q5 22 -1.5 36t-19 19.5t-28.5 3.5t-31 -10
t-26 -22t-14 -33q0 -13 7 -20q9 -9 19 -17t19 -16q48 -40 72.5 -91t24.5 -110z" />
    <glyph glyph-name="t" unicode="t" horiz-adv-x="287" 
d="M191 684q16 27 26 42.5t19 28.5t21.5 26.5t33.5 36.5q19 22 40 37q42 26 78 1q22 -15 24.5 -38.5t-4 -49t-17 -50t-15.5 -40.5q10 -1 17.5 -1.5t15.5 -0.5q66 -2 131.5 -2.5t131.5 -1.5q26 -1 51 0.5t51 2.5q10 0 19.5 0.5t18.5 -0.5q12 -2 19.5 -9.5t6.5 -19.5
q3 -25 -20 -37q-8 -3 -16 -5.5t-16 -2.5q-58 -5 -114.5 -9.5t-113.5 -6.5q-55 -3 -109 -4.5t-109 -4.5q-14 0 -30 -3q-30 -58 -60.5 -121t-52 -125t-29.5 -121.5t7 -110.5q31 -47 0 -89q-16 -22 -38 -30.5t-43.5 -6t-41 14.5t-31.5 32q-35 61 -36 133.5t16.5 146.5
t46.5 143.5t55 125.5q-23 2 -45 2.5t-44 2.5q-35 2 -70.5 5t-71.5 6q-8 1 -15.5 4t-14.5 8q-12 9 -16.5 21t-2 25t11 24.5t22.5 17.5q24 11 50 9q65 -1 129.5 -2.5t133.5 -3.5z" />
    <glyph glyph-name="u" unicode="u" horiz-adv-x="554" 
d="M324 143q-27 -24 -51.5 -49t-49.5 -48q-13 -12 -25.5 -22.5t-26.5 -18.5q-24 -14 -48 -17.5t-45.5 3t-40 23t-30.5 41.5q-18 34 -23.5 70t-2.5 74q2 32 12.5 80.5t29.5 94t47 78.5t66 35q33 2 53 -21t15 -55q-6 -26 -15 -50q-4 -11 -7 -21l-6 -20q-23 -71 -29 -109.5
t0.5 -53.5t22.5 -9t37 24t44 45.5t44 55.5q27 38 53.5 81.5t47.5 81.5q19 37 55 44q18 3 33.5 -2.5t27 -17t17.5 -28.5t4 -36q-3 -35 -17 -74.5t-26.5 -80t-18.5 -79t7 -72.5q5 -14 3 -27.5t-9.5 -23.5t-19 -16t-26.5 -6q-58 4 -83 62q-7 16 -11 32.5t-8 31.5z" />
    <glyph glyph-name="v" unicode="v" horiz-adv-x="499" 
d="M264 251q31 42 60.5 82.5t59.5 81.5q11 14 20.5 29.5t19.5 29.5q5 7 9.5 12.5t9.5 10.5q11 10 25 12t25 -3q13 -5 18 -16.5t1 -25.5q-2 -4 -3 -7.5t-4 -7.5q-46 -91 -94.5 -179.5t-109.5 -173.5q-14 -18 -29.5 -35.5t-32.5 -33.5q-25 -22 -52 -32t-52.5 -7.5t-48.5 16
t-40 37.5q-24 34 -32.5 79t-6.5 93t12.5 94.5t24.5 84.5q5 16 12.5 31t15.5 29q6 9 12 16.5t15 13.5q13 10 28.5 13t29.5 -0.5t24.5 -13.5t14.5 -25q3 -17 3 -35v-35q-2 -69 -3 -135q-1 -36 1.5 -50.5t10 -12.5t21.5 19t35 44z" />
    <glyph glyph-name="colon" unicode=":" horiz-adv-x="213" 
d="M81 400q11 19 30 24t38 -4q19 -11 28 -33t0 -42q-6 -11 -15 -21.5t-18 -18.5q-24 -21 -55 -5q-16 8 -22 20.5t-5.5 26.5t6 28t13.5 25zM37 167q11 19 30 24t38 -4q19 -11 28 -33t0 -42q-6 -11 -15 -21.5t-18 -18.5q-24 -21 -55 -5q-16 8 -22 20.5t-5.5 26.5t6 28t13.5 25
z" />
    <glyph glyph-name="plusminus" unicode="&#xb1;" horiz-adv-x="366" 
d="M240 354q11 1 22.5 2t22 -1t18 -8.5t10.5 -19.5q2 -13 -6 -24.5t-24 -16.5q-15 -6 -31 -10t-34 -9q-8 -33 -15 -69q-7 -30 -31 -34q-18 -2 -30.5 8.5t-14.5 30.5q-2 13 -1.5 26t0.5 26q-7 0 -12.5 0.5t-11.5 0.5q-9 2 -18.5 3t-19.5 4q-14 5 -22.5 16t-8.5 25t8.5 25.5
t22.5 16.5q9 3 18 4t19 1q8 1 17.5 1h17.5q5 14 9 27.5t9 27.5q8 22 22.5 32t31.5 6q37 -11 34 -58q0 -7 -0.5 -14.5t-1.5 -18.5zM260 133q8 -1 19 -5q15 -5 21.5 -15t6.5 -23q-1 -13 -10 -23t-24 -12q-30 -5 -61 -6q-36 -4 -72.5 -6.5t-73.5 -6.5q-16 0 -29 3q-23 5 -35 19
t-12 33q1 20 14 34.5t34 17.5q10 1 39 0.5t63.5 -2.5t67.5 -4.5t52 -3.5z" />
    <glyph glyph-name="trademark" unicode="&#x2122;" horiz-adv-x="397" 
d="M230 644l6 6l58 55l28 23q8 6 21 3q13 -2 13 -12q0 -6 -3 -10l-21 -46q-15 -34 -24 -67q-1 -2 -1 -7q-2 -9 -10 -10q-11 -2 -16 5q-4 4 -6 11q-6 28 2 53q1 1 1 2t1 3l-5 -4q-6 -5 -11.5 -11t-12.5 -11q-3 -2 -6.5 -4.5t-7.5 -4.5q-8 -4 -17 -3t-14 8q-3 3 -5 7l-4 8
q-2 8 -2 12l-3 12l-2 -4l-18 -42q-4 -11 -15 -22q-1 -2 -7 -6q-5 -2 -11 -1t-8 6q-3 3 -1 8q0 7 2.5 13.5t5.5 13.5q8 16 15.5 31.5t15.5 30.5q4 7 8 13l8 12l2 2h-2q-9 -1 -18 -1.5t-19 -2.5l-27 -59q-6 -12 -11 -24t-9 -24q-1 -6 0 -10q3 -6 -3.5 -10t-14.5 -2
q-10 3 -14 12q-1 4 -1 8v8q3 26 11 51t25 48q1 1 1 2q-5 0 -9 0.5t-9 1.5q-7 1 -13.5 2t-13.5 3q-6 2 -9 4q-6 3 -5 8t8 7q4 2 8 2h8h44q13 0 25.5 0.5t24.5 1.5q7 1 13.5 1.5t14.5 0.5l78 2q6 0 14 -2q9 -1 9 -8q0 -6 -7 -8q-2 -1 -5 -1l-70 -8q5 -3 7 -9q1 -9 2.5 -18.5
t3.5 -18.5q1 -7 2 -13.5t3 -12.5z" />
    <glyph glyph-name="quoteright" unicode="&#x2019;" horiz-adv-x="335" 
d="M160 722q5 17 9 35t9 35q6 23 27 31t41 -6q13 -10 16.5 -24t-0.5 -29q-5 -14 -12 -30t-15 -30q-10 -18 -24.5 -25t-28.5 -3q-30 6 -22 46z" />
    <glyph glyph-name="quoteleft" unicode="&#x2018;" horiz-adv-x="335" 
d="M262 785q-5 -17 -9 -35t-9 -35q-6 -23 -27 -31t-41 6q-13 10 -16.5 24t0.5 29q5 14 12 30t15 30q10 18 24.5 25t28.5 3q30 -6 22 -46z" />
    <glyph glyph-name="quotedblright" unicode="&#x201d;" horiz-adv-x="456" 
d="M160 722q5 17 9 35t9 35q6 23 27 31t41 -6q13 -10 16.5 -24t-0.5 -29q-5 -14 -12 -30t-15 -30q-10 -18 -24.5 -25t-28.5 -3q-30 6 -22 46zM268 722q5 17 9 35t9 35q6 23 27 31t41 -6q13 -10 16.5 -24t-0.5 -29q-5 -14 -12 -30t-15 -30q-10 -18 -24.5 -25t-28.5 -3
q-30 6 -22 46z" />
    <glyph glyph-name="quotedblleft" unicode="&#x201c;" horiz-adv-x="456" 
d="M370 785q-5 -17 -9 -35t-9 -35q-6 -23 -27 -31t-41 6q-13 10 -16.5 24t0.5 29q5 14 12 30t15 30q10 18 24.5 25t28.5 3q30 -6 22 -46zM262 785q-5 -17 -9 -35t-9 -35q-6 -23 -27 -31t-41 6q-13 10 -16.5 24t0.5 29q5 14 12 30t15 30q10 18 24.5 25t28.5 3q30 -6 22 -46z
" />
    <glyph glyph-name="numbersign" unicode="#" horiz-adv-x="776" 
d="M326 508h50q12 24 22.5 48t24.5 48q17 29 33.5 57.5t34.5 57.5q12 18 28 27.5t39 7.5q21 -2 37 -15.5t19 -35.5q3 -24 -4 -49q-8 -29 -18.5 -58.5t-21.5 -60.5q-2 -5 -4 -11.5t-6 -15.5h20t18 -2q23 -2 46 -4.5t46 -6.5q13 -3 24 -10.5t17 -18.5q12 -21 -1 -39
q-15 -20 -33 -13q-19 7 -38 9.5t-37.5 2.5t-37.5 -1t-38 -1q-5 1 -10 0.5t-12 -1.5q-8 -17 -15.5 -33.5t-17.5 -36.5q11 -1 19.5 -2t16.5 -3q12 -2 24.5 -4.5t23.5 -7.5q12 -6 17 -16.5t2 -21.5q-4 -14 -14.5 -19.5t-24.5 -4.5q-21 2 -41.5 2t-41.5 2q-18 0 -24 -17
q-29 -73 -58 -145t-57 -145q-8 -21 -21.5 -33t-31.5 -10q-19 1 -31.5 15t-14.5 35q-2 7 -2 13v11q2 15 4 30.5t7 30.5q10 43 21.5 85t22.5 84q2 8 3.5 15t3.5 17q-18 -2 -34 -2t-31 -2q-4 -1 -8.5 -5t-5.5 -8q-11 -32 -25 -63.5t-16 -67.5q-1 -24 -20.5 -36t-42.5 -3
q-21 8 -30.5 23t-9.5 35q-2 19 1 37t5 36q2 10 4 19t4 20q-6 0 -12 1t-11 1q-32 5 -37 32q-3 14 3 26t20 17q14 7 29.5 11t32.5 10q2 8 4.5 18.5t6.5 24.5q-13 -2 -25.5 -3t-23.5 -3q-5 -1 -9 -2t-9 -1q-17 -2 -30 7t-18 24t1.5 30.5t21.5 24.5q8 4 16 6.5t17 4.5
q17 4 34.5 7.5t34.5 5.5q13 0 18.5 5t10.5 16q18 41 36.5 81.5t38.5 81.5q13 28 35 53q17 19 38 24t42 -5q20 -10 30.5 -28t6.5 -41q-2 -16 -7.5 -31t-10.5 -29q-10 -26 -21 -52.5t-22 -55.5zM320 350l4 10t3 10q4 8 6.5 17t5.5 18q-23 1 -35.5 2t-20 -4t-12 -17t-11.5 -36
h60z" />
    <glyph glyph-name="exclam" unicode="!" horiz-adv-x="297" 
d="M134 663q13 33 30 66t40 62q17 20 35 32q15 11 31 13.5t35 -5.5q17 -8 26 -20.5t7 -31.5q0 -11 -2.5 -22t-6.5 -22q-21 -62 -44.5 -125.5t-45 -127.5t-37.5 -128.5t-22 -130.5q5 -21 -5 -35.5t-30 -20.5q-17 -5 -36 0.5t-27 24.5q-15 29 -19 68.5t-0.5 83t12 89.5
t19 88.5t21.5 79.5t19 62zM97 110q31 0 52 -18t21 -46q0 -34 -24.5 -57t-59.5 -23q-29 1 -48 21t-19 50q1 32 23 52.5t55 20.5z" />
    <glyph glyph-name="quotedbl" unicode="&#x22;" horiz-adv-x="456" 
d="M160 722q5 17 9 35t9 35q6 23 27 31t41 -6q13 -10 16.5 -24t-0.5 -29q-5 -14 -12 -30t-15 -30q-10 -18 -24.5 -25t-28.5 -3q-30 6 -22 46zM268 722q5 17 9 35t9 35q6 23 27 31t41 -6q13 -10 16.5 -24t-0.5 -29q-5 -14 -12 -30t-15 -30q-10 -18 -24.5 -25t-28.5 -3
q-30 6 -22 46z" />
  </font>
</defs>
</svg>
