<?xml version="1.0" standalone="no"?>
<!DOCTYPE svg PUBLIC "-//W3C//DTD SVG 1.1//EN" "http://www.w3.org/Graphics/SVG/1.1/DTD/svg11.dtd" >
<svg xmlns="http://www.w3.org/2000/svg" xmlns:xlink="http://www.w3.org/1999/xlink" version="1.1">
<metadata>
Created by FontForge 20200511 at Wed Aug 19 23:00:47 2020
 By convertio
Copyright (c) 2020 Kika Tech, Inc. All rights reserved. 
</metadata>
<defs>
<font id="HFComic" horiz-adv-x="500" >
  <font-face 
    font-family="HFComic"
    font-weight="400"
    font-stretch="normal"
    units-per-em="1000"
    panose-1="0 0 0 0 0 0 0 0 0 0"
    ascent="800"
    descent="-200"
    x-height="486"
    cap-height="648"
    bbox="-88 -223 1018 877"
    underline-thickness="50"
    underline-position="-317"
    unicode-range="U+000D-FB02"
  />
<missing-glyph horiz-adv-x="649" 
d="M496 643l53 -49l-53 -686l-39 -42l-304 -46l-53 50l52 686l39 41zM407 -49l45 592l-211 -31l-45 -592z" />
    <glyph glyph-name=".notdef" horiz-adv-x="649" 
d="M496 643l53 -49l-53 -686l-39 -42l-304 -46l-53 50l52 686l39 41zM407 -49l45 592l-211 -31l-45 -592z" />
    <glyph glyph-name=".null" horiz-adv-x="0" 
 />
    <glyph glyph-name=".null" horiz-adv-x="0" 
 />
    <glyph glyph-name="uni000D" unicode="&#xd;" horiz-adv-x="250" 
 />
    <glyph glyph-name="space" unicode=" " horiz-adv-x="420" 
 />
    <glyph glyph-name="quotedbl" unicode="&#x22;" horiz-adv-x="650" 
d="M321 517q6 9 12.5 24.5t12 33t9 36t3.5 34.5h92q0 -22 -4 -47t-11.5 -49.5t-17 -46.5t-20.5 -37zM150 517q6 9 12.5 24t11.5 33t8.5 36.5t3.5 34.5h92q0 -22 -4 -47t-11 -49.5t-16.5 -46.5t-20.5 -37z" />
    <glyph glyph-name="numbersign" unicode="#" horiz-adv-x="719" 
d="M558 422l-15 -161l95 14l14 -91l-118 -17l-15 -166l-92 9l14 143l-144 -21l-13 -131l-91 9l10 108l-90 -13l-13 91l112 17l15 161l-96 -14l-13 91l118 17l16 172l92 -9l-14 -149l144 21l12 137l92 -9l-11 -115l89 13l13 -91zM465 408l-144 -21l-15 -161l144 21z" />
    <glyph glyph-name="dollar" unicode="$" horiz-adv-x="619" 
d="M108 479q13 46 46 81.5t82 57.5q41 18 89 24l26 103l89 -22l-21 -85q64 -12 103 -48q46 -43 46 -105v-10l-92 7v4q0 15 -8 26.5t-20.5 19t-26 11.5t-22.5 6h-3l-63 -249q5 -2 8.5 -3.5t7.5 -3.5q55 -21 83 -61q30 -39 31 -84v-4q0 -37 -20 -73q-22 -36 -60 -55
q-31 -16 -74 -16q-24 0 -39 4q-3 0 -5.5 0.5t-5.5 1.5l-23 -93l-89 22l27 110q-8 5 -17 11t-17 14l58 71h1l27 110q-54 31 -84 67q-29 35 -38 76q-4 16 -4 34q0 24 8 51zM194 413q4 -18 19 -36q16 -20 37 -32l50 198l-27 -9q-21 -10 -44 -29t-33 -51q-4 -14 -4 -26
q0 -8 2 -15zM342 99q14 7 22 19.5t8 26.5q-1 39 -58 63q-1 0 -1.5 0.5t-1.5 0.5l-29 -114q14 -4 27 -4q18 0 33 8z" />
    <glyph glyph-name="percent" unicode="%" horiz-adv-x="1013" 
d="M616 662l80 -46l-361 -630l-79 46zM50 519l36 29q14 11 27.5 20.5t26.5 18.5l7 4q48 30 92 42q33 9 58 9q12 0 33 -4.5t39 -15.5q40 -29 51 -81q3 -17 3 -34q0 -35 -11 -72q-14 -51 -37 -86.5t-49.5 -57t-54.5 -31.5t-52 -10q-29 0 -53.5 13t-41.5 36q-27 38 -27 92v8
q0 13 1.5 26.5t3.5 27.5zM189 395q0 -19 3.5 -29t6.5 -14q7 -10 20 -10q10 0 23.5 5.5t28.5 19t28.5 36t23.5 57.5q8 27 8 48q0 3 -1 16t-12 21q-7 5 -25 5q-4 0 -19.5 -1t-57.5 -24l-2 -6q-15 -44 -20 -72t-5 -46v-6zM539 271l36 29q31 25 55 39l7 5q24 14 47 25t45 17
q32 9 57 9q12 0 33.5 -4.5t38.5 -16.5q42 -29 51 -81q3 -17 3 -36q0 -33 -10 -70q-15 -51 -38 -86t-49 -57t-53.5 -31.5t-52.5 -9.5q-61 0 -95 48q-27 36 -27 93v8q0 12 1 25.5t4 28.5zM679 148q0 -20 3.5 -30t6.5 -13q6 -10 20 -10q10 0 23.5 5t28 18.5t28.5 36t24 57.5
q7 26 7 46q0 5 -1 18.5t-12 21.5q-6 4 -23 4q-5 0 -20.5 -1t-57.5 -24l-2 -5q-15 -44 -20 -72t-5 -46v-6z" />
    <glyph glyph-name="ampersand" unicode="&#x26;" horiz-adv-x="664" 
d="M102 157q7 40 39 73q15 17 35.5 31t44.5 27q-7 18 -11 35.5t-6 34.5q-6 34 -6 65q0 38 12.5 85t55.5 85q51 45 109 52q13 2 25 2q43 0 80 -22q46 -24 67 -70q17 -35 17 -73q0 -15 -3 -30q-13 -76 -92 -134q-29 -22 -62.5 -39.5t-67.5 -34.5q10 -20 22 -39t26 -38
q13 11 24 20.5t19 19.5l68 -62q-10 -11 -22.5 -22.5t-26.5 -22.5q42 -38 93 -60l-36 -84q-74 30 -135 91q-1 0 -1 -1q-31 -17 -68 -31.5t-69 -14.5h-8q-37 2 -69 25t-46 59q-10 25 -10 51q0 11 2 22zM294 373l10 -43q30 14 58.5 29.5t51.5 32.5q50 38 56 75q2 9 2 17
q0 16 -8 33t-28 28q-19 10 -37 10q-37 0 -72 -31q-24 -21 -30.5 -51t-6.5 -53q0 -22 4 -47zM195 119q5 -11 14.5 -19t20.5 -9q10 0 30 6.5t48 20.5q-1 3 -5 7q-14 19 -25 38t-22 39q-30 -17 -48 -35q-16 -17 -16 -34q0 -7 3 -14z" />
    <glyph glyph-name="quotesingle" unicode="'" horiz-adv-x="478" 
d="M150 517q6 9 12.5 24t11.5 33t8.5 36.5t3.5 34.5h92q0 -22 -4 -47t-11.5 -49.5t-17 -46.5t-20.5 -37z" />
    <glyph glyph-name="parenleft" unicode="(" horiz-adv-x="721" 
d="M209 270q13 69 41.5 132t70.5 118q88 114 215 166l35 -85q-51 -21 -95.5 -56t-80 -80.5t-60 -99.5t-35.5 -112q-9 -46 -9 -90q0 -66 26.5 -148t111.5 -163l-64 -66q-104 99 -144 232q-21 74 -21 150q0 50 9 102z" />
    <glyph glyph-name="parenright" unicode=")" horiz-adv-x="743" 
d="M279 -50q56 56 94.5 122.5t58 137.5t19.5 134q0 27 -5 62.5t-20.5 71.5t-44 69t-75.5 55l38 84q100 -46 152 -142q47 -89 47 -200q0 -82 -24.5 -165.5t-70.5 -161.5q-23 -38 -51 -73t-60 -66q-35 -32 -72 -57.5t-77 -43.5l-38 84q73 33 129 89z" />
    <glyph glyph-name="asterisk" unicode="*" horiz-adv-x="620" 
d="M470 505l-89 -35l55 -78l-75 -53l-53 74l-55 -72l-73 55l57 76l-87 36l36 85l81 -34l5 88l92 -5l-4 -82l76 30z" />
    <glyph glyph-name="plus" unicode="+" horiz-adv-x="614" 
d="M514 296l-165 -24l-17 -192l-91 8l15 170l-142 -21l-14 91l164 24l16 181l91 -8l-14 -159l143 21z" />
    <glyph glyph-name="comma" unicode="," horiz-adv-x="479" 
d="M150 -34q6 9 13 24t12 32.5t8.5 36t3.5 34.5h92q0 -22 -4 -47t-11.5 -49t-17 -46t-20.5 -38z" />
    <glyph glyph-name="hyphen" unicode="-" horiz-adv-x="513" 
d="M400 380l13 -91l-300 -45l-13 91z" />
    <glyph glyph-name="period" unicode="." horiz-adv-x="450" 
d="M158 97l92 -8l-8 -92l-92 8z" />
    <glyph glyph-name="slash" unicode="/" horiz-adv-x="590" 
d="M410 662l80 -46l-360 -630l-80 46z" />
    <glyph glyph-name="zero" unicode="0" 
d="M1 434l32 37q45 51 91 88.5t92 57.5q55 25 103 25q38 0 72 -15q70 -31 94 -118q12 -40 12.5 -66.5t0.5 -31.5q0 -45 -8 -96q-17 -103 -55 -175.5t-93 -108.5q-46 -31 -94 -31q-21 0 -33 4q-74 16 -112 85q-32 57 -32 143q0 25 3 53q2 25 6 51t10 53l-15 -18zM171 193
q4 -35 17 -58q15 -28 49 -37q6 -1 11 -1q9 0 20 4t20 10t23 20t29.5 39.5t30 64.5t23.5 95q8 43 8 79q0 40 -10 72q-12 45 -42 58q-13 6 -30 6q-10 0 -31 -3.5t-59 -26.5l-16 -44q-19 -54 -30 -105t-13.5 -81.5t-2.5 -47.5q0 -23 3 -44z" />
    <glyph glyph-name="one" unicode="1" horiz-adv-x="301" 
d="M192 2l-97 9l60 630l96 -9z" />
    <glyph glyph-name="two" unicode="2" 
d="M87 114q22 18 49 44.5t57 60.5t59 73q34 46 55 83t31.5 65.5t11 40t0.5 14.5q0 15 -4 25q-8 15 -16 19.5t-15 6.5q-5 1 -13 1q-6 0 -19 -1t-42 -14q-58 -24 -125 -81l-62 75q144 119 248 119q17 0 34 -4q65 -14 97 -79q14 -30 14 -66q0 -45 -22 -99q-14 -37 -37.5 -77.5
t-57.5 -85.5q-26 -33 -51.5 -62t-50.5 -55l157 28l15 -91l-304 -50l-45 85q13 7 36 25z" />
    <glyph glyph-name="three" unicode="3" 
d="M31 529q46 34 96 60t98 40q42 13 61.5 14t25.5 1q25 0 47.5 -5.5t40 -16.5t28.5 -23q28 -29 34 -55t6 -41q0 -22 -7 -45q-14 -42 -43 -77q-26 -30 -60 -57q11 -8 18.5 -17t12.5 -17q22 -34 22.5 -54t0.5 -21q0 -38 -20 -75q-33 -63 -115 -101q-81 -40 -193 -40v97
q45 0 82.5 8t68.5 22q52 24 72 60q8 15 8 28t-7 24q-10 15 -33 15q-2 0 -16 -1t-50 -8q-4 -1 -9 -2l-6 -1q-4 0 -9 -2l-19 95q30 7 63.5 23t62.5 39q30 22 50 46t26 45q3 9 3 17q0 16 -13 29t-41.5 13t-65.5 -11t-79.5 -32.5t-83.5 -51.5z" />
    <glyph glyph-name="four" unicode="4" 
d="M254 11l17 183l-182 -33l-71 64l162 368l89 -39l-125 -285l137 25l32 347l97 -9l-30 -320l85 15l17 -96l-112 -20l-19 -209z" />
    <glyph glyph-name="five" unicode="5" 
d="M73 341l45 252l327 52l15 -96l-259 -40l-18 -103q16 7 30 12t27 10q47 15 85 15q29 0 52 -9q50 -16 75 -70q10 -22 11.5 -40.5t1.5 -21.5q0 -31 -20 -70q-25 -49 -67.5 -86.5t-79.5 -61.5q-46 -30 -94.5 -51.5t-91.5 -30.5l-20 95q34 7 74.5 25t78.5 43q42 27 71 55.5
t42 54.5q10 19 10 31q0 1 -1 7.5t-3 10.5q-5 10 -9 13.5t-9 5.5q-8 2 -26.5 2t-50.5 -10q-26 -8 -57.5 -22t-70.5 -35z" />
    <glyph glyph-name="six" unicode="6" 
d="M43 190q2 45 16.5 95t40.5 101q21 42 48 81.5t57 74.5q23 26 56 57t71 50l43 -87q-32 -16 -70.5 -55t-73.5 -90q42 16 81 16t71 -17q51 -25 67 -81q7 -23 7 -50q0 -32 -10 -69q-10 -35 -28 -67.5t-42 -59.5t-52.5 -47.5t-59.5 -32.5q-17 -6 -33.5 -9.5t-33.5 -3.5
q-45 0 -83 25q-41 26 -59 75q-13 33 -13 77v17zM141 152q5 -36 27 -50q12 -9 29 -9q15 0 34 7q20 7 39 21.5t35.5 33.5t29 41.5t19.5 46.5q2 8 4 20.5t2 25t-4.5 24t-16.5 17.5t-28 6q-21 0 -49 -11q-21 -9 -51 -28.5t-64 -61.5q-8 -33 -8 -60q0 -12 2 -23z" />
    <glyph glyph-name="seven" unicode="7" 
d="M130 22l68 199l-80 -12l-15 94l130 20l74 213l-242 -39l-15 96l284 46l85 -77l-77 -223l61 10l15 -94l-111 -17l-86 -248z" />
    <glyph glyph-name="eight" unicode="8" 
d="M27 192q17 51 68 92q-17 17 -31.5 45.5t-14.5 73.5q0 46 21.5 91t60.5 80q38 35 83 54t93 19q26 0 43 -4q52 -11 86.5 -44.5t43.5 -82.5q3 -17 3 -34q0 -45 -23 -92q-30 -63 -98 -107q32 -36 32 -85q0 -7 -1 -14q-3 -42 -24 -78t-57 -64q-31 -23 -68.5 -36.5t-75.5 -13.5
q-53 0 -90 27q-38 26 -53 70q-8 25 -8 49q0 27 10 54zM146 403q0 -6 1 -17.5t8 -23t21.5 -19.5t41.5 -8q23 0 46 7.5t43 20.5q47 32 67 71q13 26 13 48q0 8 -2 16q-8 41 -55 50q-5 2 -11 2h-12q-28 0 -57.5 -12t-53.5 -35q-50 -45 -50 -100zM117 120q10 -31 51 -31
q22 0 44.5 8t40.5 22q14 11 27.5 28.5t15.5 43.5v4q0 16 -8 26q-17 17 -50 17q-43 0 -81 -29q-31 -24 -37 -43t-6 -30q0 -9 3 -16z" />
    <glyph glyph-name="nine" unicode="9" 
d="M31 393q9 83 61 150q25 30 55.5 53t64.5 37q40 14 76 14q12 0 23 -1q55 -6 95 -43q46 -42 60 -114q4 -27 4 -56q0 -38 -7 -79q-11 -60 -35.5 -121t-59.5 -115q-18 -28 -37.5 -51t-39.5 -43q-44 -44 -93 -63l-36 90q42 16 82.5 63t72.5 110q-39 -22 -67.5 -26t-43.5 -4
q-25 0 -49 6q-61 17 -97 68q-30 42 -30 99q0 13 1 26zM181 294q12 -3 24 -3q11 0 29 3.5t42 18.5q60 35 98 119q0 69 -33 99q-13 11 -26 15t-26 4t-23.5 -2.5t-18.5 -5.5q-19 -8 -39 -22.5t-37 -34.5t-29 -46t-15 -56q-1 -7 -1 -13q0 -61 55 -76z" />
    <glyph glyph-name="colon" unicode=":" horiz-adv-x="474" 
d="M182 392l92 -8l-8 -93l-92 8zM158 97l91 -8l-8 -92l-91 8z" />
    <glyph glyph-name="semicolon" unicode=";" horiz-adv-x="486" 
d="M186 299l8 93l92 -8l-8 -93zM150 -34q6 9 12.5 24t11.5 32.5t8.5 36t3.5 34.5h92q0 -22 -4 -47t-11.5 -49t-17 -46t-20.5 -38z" />
    <glyph glyph-name="less" unicode="&#x3c;" horiz-adv-x="640" 
d="M540 442l-314 -143l246 -126l-41 -82l-331 169l11 87l391 179z" />
    <glyph glyph-name="equal" unicode="=" horiz-adv-x="614" 
d="M500 498l14 -91l-400 -60l-14 91zM500 282l14 -91l-400 -59l-14 91z" />
    <glyph glyph-name="greater" unicode="&#x3e;" horiz-adv-x="640" 
d="M210 525l330 -169l-1 -82l-400 -184l-39 84l314 144l-246 125z" />
    <glyph glyph-name="question" unicode="?" horiz-adv-x="739" 
d="M430 641q63 -15 95 -78q14 -28 14 -63q0 -53 -31 -123q-22 -48 -52.5 -93t-56.5 -79q-8 0 -21.5 1t-28 1.5t-26.5 1.5t-16 1q24 34 44.5 66t37.5 63q14 26 27 52.5t21 51t9 37t1 16.5q0 15 -5 26q-8 16 -16 21.5t-16 7.5q-6 1 -14 1q-25 0 -61 -15q-57 -25 -126 -82
l-59 71q145 119 246 119q18 0 34 -4zM392 141l44 -81l-114 -62l-44 81z" />
    <glyph glyph-name="at" unicode="@" horiz-adv-x="900" 
d="M102 281q5 50 22 99q30 91 95 159t150 100q61 22 119 22q79 0 153 -42q83 -50 123 -131q17 -35 26.5 -75t9.5 -82q0 -41 -7.5 -79.5t-21.5 -71.5t-33.5 -58t-43.5 -39q-29 -17 -50.5 -20.5t-32.5 -3.5q-21 0 -41 7q-26 8 -47.5 26t-32.5 41q-29 -33 -56 -44t-47 -12h-5
q-41 0 -72 24q-30 23 -44 65q-9 31 -9 66q0 7 1 31t18 66q15 40 40.5 73.5t57.5 56.5q26 19 55 29t59 10q66 0 128 -45l-54 -74q-37 27 -73 27q-32 0 -62 -22q-22 -15 -38.5 -38t-26.5 -49.5t-11.5 -43.5t-1.5 -24q0 -19 5 -36q3 -8 9.5 -16t17.5 -8h2q9 0 19.5 7.5
t21.5 20.5q12 15 27 45.5t26 87.5l90 -19q-4 -35 -5.5 -55.5t-1.5 -26.5q0 -30 12 -55q2 -5 8.5 -11t16.5 -9q8 -2 15 -2q17 0 35 10q24 16 40 57q11 25 16 53.5t5 57.5q0 20 -4 47.5t-16 56t-34 56.5t-59 50q-45 25 -73.5 27t-35.5 2q-42 0 -85 -16q-66 -25 -116 -78.5
t-74 -123.5q-14 -39 -16.5 -66.5t-2.5 -42.5q0 -23 4.5 -52.5t19 -62t37.5 -57.5q51 -55 108.5 -66t93.5 -11q57 0 123 15l21 -89q-77 -18 -144 -18q-50 0 -102 11q-104 24 -168 97q-64 70 -81 174q-4 28 -4 57q0 20 2 41z" />
    <glyph glyph-name="A" unicode="A" horiz-adv-x="545" 
d="M48 -22l-88 44l294 601l100 10l171 -584l-94 -27l-46 158l-257 -38zM180 249l177 26l-62 209z" />
    <glyph glyph-name="B" unicode="B" horiz-adv-x="562" 
d="M162 595q63 26 121 38q46 10 83 10q15 0 29 -2q61 -6 96 -41q30 -29 38 -56t8 -46t-6 -39q-13 -45 -45 -80t-63 -58q16 -12 28 -28q23 -30 24.5 -50.5t1.5 -25.5q0 -30 -14 -60q-17 -34 -50 -63t-81 -51q-42 -19 -91 -30t-87 -13l-91 83l29 367l-7 -3l-50 84
q63 37 127 64zM161 93q37 5 73.5 17.5t56.5 21.5q31 14 53 32t31 36q5 10 5 17q0 2 -1 6.5t-6 10.5q-12 16 -37 16q-2 0 -16 -0.5t-52 -8.5l-22 -3l3 44q2 17 3 34t2 25l4 2q30 10 60 26.5t54.5 36t41.5 40.5t22 40q2 6 2 12q0 17 -15 32q-10 10 -28.5 12.5t-28.5 2.5
q-26 0 -63 -8q-26 -5 -53 -13.5t-56 -21.5z" />
    <glyph glyph-name="C" unicode="C" horiz-adv-x="508" 
d="M38 274q4 32 12 59q14 51 35.5 96t50.5 83q57 81 135 116q43 20 86 20q44 0 87 -21l-43 -88q-22 10 -44 11q-23 -1 -46 -11q-26 -12 -51 -34.5t-46.5 -53t-39.5 -67.5t-29 -77q-12 -40 -12 -80q0 -9 2 -37.5t21 -58.5q19 -31 56 -37q9 -2 18 -2q39 0 79 31q56 43 104 129
l85 -47q-57 -103 -125 -157t-143 -54q-18 0 -34 3q-39 7 -70.5 27.5t-52.5 54.5q-18 28 -26.5 61t-10 55.5t-1.5 34.5q0 22 3 44z" />
    <glyph glyph-name="D" unicode="D" horiz-adv-x="531" 
d="M176 605q69 32 138 39q16 2 30 2q69 0 113 -35q53 -42 62 -116q2 -15 2 -30q0 -20 -4 -49.5t-18 -69.5q-25 -78 -80 -150q-28 -38 -61 -70t-69 -56q-32 -23 -65.5 -42t-68.5 -28q-9 9 -27 25.5t-35 31.5l-6 5v1l-2 2q-2 0 -2 2h-1l-12 11q-1 1 -2 1l-1 2q-1 0 -1 1h-1v1
l-1 1q0 4 2 24t4.5 50.5t5 68.5t6 78t6 79t5.5 71l-9 -6l-47 87q69 37 139 69zM257 165q47 40 84 89q43 58 62.5 113t19.5 95q0 11 -1 21q-2 13 -6.5 25.5t-15 22t-25 13.5t-30.5 4q-10 0 -21 -1q-30 -3 -62 -14t-66 -27l-33 -402q47 20 94 61z" />
    <glyph glyph-name="E" unicode="E" horiz-adv-x="491" 
d="M137 0l-92 84l38 472l365 89l23 -95l-296 -72l-14 -178l233 53l22 -95l-264 -61l-7 -96l212 42l18 -97z" />
    <glyph glyph-name="F" unicode="F" horiz-adv-x="438" 
d="M143 0h-98l46 573l329 80l23 -95l-260 -64l-14 -178l188 44l22 -96l-218 -50z" />
    <glyph glyph-name="G" unicode="G" horiz-adv-x="505" 
d="M25 208q1 72 33 157q17 45 45 86.5t61.5 76t69 61t67.5 41.5l44 20l42 -88l-45 -21q-25 -12 -53.5 -33.5t-54.5 -49.5t-48.5 -61t-35.5 -67q-25 -63 -27 -119v-9q0 -44 17 -68q21 -34 73 -40h9q21 0 45.5 9.5t48.5 29t45.5 48t36.5 66.5l-136 -41l-28 94l219 66l15 -15
q7 -7 14 -12q11 -11 21 -19t12 -10q-10 -69 -39.5 -128.5t-74.5 -104.5q-40 -39 -85.5 -60t-93.5 -21h-9q-4 0 -9 1q-100 9 -148 86q-31 50 -31 121v4z" />
    <glyph glyph-name="H" unicode="H" horiz-adv-x="562" 
d="M143 -1l-98 7l42 584l98 -7l-20 -277l232 44l38 299l97 -12l-79 -624l-97 12l28 222l-226 -42z" />
    <glyph glyph-name="I" unicode="I" horiz-adv-x="258" 
d="M153 0l-98 9l60 639l98 -9z" />
    <glyph glyph-name="J" unicode="J" horiz-adv-x="339" 
d="M-50 174l96 19q3 -17 9 -33.5t14 -30.5t17.5 -23.5t20.5 -11.5h6t13 1t20 9q31 23 38 84q4 32 8.5 78.5t8.5 96.5t8 99.5t7 89.5t4.5 65t1.5 26l97 -6q0 -1 -1.5 -26t-4.5 -65.5t-6.5 -91t-7.5 -101.5t-8.5 -97.5t-8.5 -79.5q-5 -32 -13.5 -56.5t-19 -42.5t-22.5 -30.5
t-22 -21.5q-41 -29 -89 -29h-13q-6 0 -12 2q-22 4 -50.5 20t-53.5 57q-17 28 -25.5 55.5t-11.5 43.5z" />
    <glyph glyph-name="K" unicode="K" horiz-adv-x="528" 
d="M143 -2l-98 8l53 609l97 -9l-22 -259l279 299l71 -67l-288 -309l208 -195l-67 -72l-215 203z" />
    <glyph glyph-name="L" unicode="L" horiz-adv-x="418" 
d="M127 0l-92 83l44 551l98 -7l-42 -527l259 37l14 -97z" />
    <glyph glyph-name="M" unicode="M" horiz-adv-x="724" 
d="M553 42l24 380l-184 -328l-88 5l-130 304l-32 -405l-98 8l47 590l90 39l174 -406l241 430l92 -27l-39 -597z" />
    <glyph glyph-name="N" unicode="N" horiz-adv-x="579" 
d="M142 -2l-97 8l47 587l88 43l201 -420l76 429l97 -17l-104 -579l-92 -13l-182 381z" />
    <glyph glyph-name="O" unicode="O" horiz-adv-x="572" 
d="M234 624q56 22 106 22q49 0 91 -22q69 -38 93 -120q13 -43 13 -94q0 -45 -10 -97q-18 -101 -60 -173q-39 -71 -95 -107q-53 -36 -111 -36q-19 0 -35 3q-89 18 -130 95q-32 57 -32 144q0 25 3 53q3 26 8.5 54.5t13.5 58.5l-69 69q108 110 214 150zM182 142q19 -37 64 -46
q7 -1 14 -1q28 0 57 19q12 8 27.5 23t31.5 40.5t30.5 63t24.5 90.5q8 44 8 79q0 38 -9 66q-12 44 -45 61q-19 10 -46 10q-3 0 -19 -0.5t-51 -14.5q-10 -4 -19.5 -8t-19.5 -9l-17 -45q-41 -105 -46 -159t-5 -72q0 -60 20 -97z" />
    <glyph glyph-name="P" unicode="P" horiz-adv-x="529" 
d="M175 616q63 20 117 27q28 3 52 3q36 0 63 -7q61 -17 93 -63q23 -34 25 -56t2 -29q0 -32 -14 -64q-12 -27 -31 -51.5t-41 -45.5t-46 -38.5t-46 -30.5q-45 -28 -92.5 -49t-82.5 -29l-14 -182l-98 8l37 473l-12 -6l-42 88q66 32 130 52zM182 287q24 9 54 23t61 34
q48 30 81 61.5t45 60.5q6 13 6 25q0 16 -10 31q-8 12 -22 17.5t-27.5 7t-24.5 1.5q-6 0 -17 -0.5t-24 -1.5q-23 -3 -49 -9.5t-54 -15.5z" />
    <glyph glyph-name="Q" unicode="Q" horiz-adv-x="576" 
d="M52 370q5 28 14 56.5t20.5 54.5t24.5 47.5t27 36.5q32 36 71 58t80 25q12 1 23 1q74 0 125 -53q42 -42 57 -112q8 -32 8.5 -52t0.5 -25q0 -29 -4 -61q-7 -68 -24 -124q31 -3 61 -3v-98q-48 0 -97 6q-5 -10 -10 -18l-10 -16q-19 -29 -40 -48t-42 -30t-41 -16t-36 -6
q-3 -1 -15 -1q-83 0 -139 62q-16 18 -31 44.5t-24 65t-9.5 66t-0.5 31.5q0 48 11 109zM152 373q43 -56 135 -100q45 -21 92 -33q8 26 13 55t10 63q3 24 3 46q0 30 -7.5 65t-30.5 59q-23 23 -60 23h-9q-22 -2 -44.5 -15.5t-42.5 -35.5q-14 -16 -29.5 -42.5t-25.5 -66.5z
M139 248q1 -13 2 -25t3 -23q9 -53 34 -81q19 -20 37.5 -24.5t32.5 -4.5h5q51 5 85 57q0 1 1 2q-25 7 -48 15.5t-46 19.5q-30 14 -56.5 30.5t-49.5 33.5z" />
    <glyph glyph-name="R" unicode="R" horiz-adv-x="551" 
d="M45 564q66 32 129.5 51.5t117.5 26.5q28 3 51 3q36 0 63 -7q61 -15 94 -60q30 -42 30 -90q0 -25 -8 -51q-14 -42 -40.5 -74.5t-50.5 -52.5q-17 -14 -35.5 -27t-38.5 -24l122 -177l-81 -55l-138 200l8 99q52 17 99 58q23 20 39 41t22 41q4 11 4 21q0 18 -12 33
q-8 12 -22.5 18t-28 7.5t-24.5 1.5q-6 0 -17 -0.5t-24 -1.5q-50 -6 -102 -24l-42 -520l-97 8l37 473q-6 -4 -13 -6z" />
    <glyph glyph-name="S" unicode="S" horiz-adv-x="520" 
d="M48 477q29 97 130 141q42 18 75.5 22.5t53.5 4.5q26 0 52 -5q37 -7 67 -22t50.5 -37t29.5 -46.5t9 -47.5q0 -7 -1 -14l-98 7v4q0 14 -7.5 25t-19.5 18t-25 10.5t-22 5.5q-18 3 -37 3q-13 0 -36 -2.5t-52 -15.5q-20 -9 -42.5 -27.5t-31.5 -50.5q-4 -13 -4 -25
q0 -7 2.5 -19t16.5 -29q18 -21 51.5 -42.5t84.5 -41.5q55 -21 84 -61q30 -39 32 -86v-4q0 -41 -21 -75q-22 -36 -61 -56q-37 -17 -75 -17q-24 0 -41 4q-65 13 -130 67l62 76q40 -33 67 -41t42 -8q17 0 31 7q28 13 28 40v4q-1 37 -56 60q-63 25 -105 52.5t-68 58.5
q-30 36 -39 77q-4 16 -4 34q0 25 8 52z" />
    <glyph glyph-name="T" unicode="T" horiz-adv-x="470" 
d="M197 512l-167 -9l-5 98l445 23l5 -97l-180 -9l-38 -526l-97 7z" />
    <glyph glyph-name="U" unicode="U" horiz-adv-x="546" 
d="M24 304q10 112 59 276l94 -29q-23 -76 -37 -140t-19 -116q-3 -29 -3 -53q0 -69 23 -105q18 -32 55 -39q13 -3 25 -3q36 0 66 27q29 26 51.5 75t38.5 118q7 30 12.5 62t11 70.5t11 86t12.5 109.5l97 -11q-7 -63 -13 -112t-11.5 -88.5t-11.5 -72.5t-13 -65
q-38 -170 -119 -244q-40 -36 -88 -48q-28 -5 -45 -5t-45 5q-43 11 -70 31q-30 21 -49 54q-35 61 -35 158q0 28 3 59z" />
    <glyph glyph-name="V" unicode="V" horiz-adv-x="536" 
d="M158 12l-128 534l96 23l97 -404l241 477l87 -45l-301 -595z" />
    <glyph glyph-name="W" unicode="W" horiz-adv-x="681" 
d="M544 641l97 -11l-57 -552l-83 -53l-168 222l-201 -247l-87 33l16 528l98 -3l-12 -384l149 183l78 -1l123 -163z" />
    <glyph glyph-name="X" unicode="X" horiz-adv-x="548" 
d="M311 289l137 -222l-83 -51l-116 188l-155 -209l-79 58l178 241l-145 236l83 52l125 -203l198 268l79 -58z" />
    <glyph glyph-name="Y" unicode="Y" horiz-adv-x="470" 
d="M433 644l77 -61l-246 -321l-21 -264l-98 8l21 263l-161 261l83 52l133 -216z" />
    <glyph glyph-name="Z" unicode="Z" horiz-adv-x="495" 
d="M392 125l10 -97l-292 -28l-80 73l314 461l-264 -42l-15 96l337 55l83 -76l-315 -463z" />
    <glyph glyph-name="bracketleft" unicode="[" horiz-adv-x="608" 
d="M345 534l-48 -611l97 15l14 -91l-154 -23l-54 49l56 705l39 42l150 22l13 -91z" />
    <glyph glyph-name="backslash" unicode="\" horiz-adv-x="540" 
d="M129 662l361 -630l-80 -46l-360 630z" />
    <glyph glyph-name="bracketright" unicode="]" horiz-adv-x="608" 
d="M354 646l54 -48l-56 -705l-39 -42l-149 -23l-14 91l114 17l48 611l-98 -14l-14 91z" />
    <glyph glyph-name="asciicircum" unicode="^" horiz-adv-x="592" 
d="M364 642l78 -264l-89 -26l-43 150l-77 -157l-83 41l129 263z" />
    <glyph glyph-name="underscore" unicode="_" horiz-adv-x="250" 
d="M0 93h250v-92h-250v92z" />
    <glyph glyph-name="grave" unicode="`" horiz-adv-x="464" 
d="M230 662l84 -148l-79 -46l-85 148z" />
    <glyph glyph-name="a" unicode="a" horiz-adv-x="440" 
d="M21 192q3 48 21 96t47 86.5t67 64.5q60 44 130 45q77 0 147 -52l-56 -76q-27 19 -50 25.5t-42 6.5q-2 0 -14 -0.5t-29.5 -8t-30.5 -17.5q-27 -19 -47.5 -47t-32.5 -60t-14 -52.5t-2 -28.5q0 -24 7 -45q10 -34 40 -34q29 2 62.5 48t55.5 145v3l93 -19l-2 -13
q-6 -43 -8 -63t-2 -30q0 -14 3 -29.5t14.5 -29t32.5 -26.5l-50 -80q-47 28 -72 70q-33 -42 -66 -55.5t-56 -14.5q-1 -1 -6 -1q-45 0 -80 28q-17 14 -30 32t-20 41q-11 35 -11 73q0 9 1 18z" />
    <glyph glyph-name="b" unicode="b" horiz-adv-x="464" 
d="M80 645l95 -7l-15 -189q10 5 20 9t21 8q59 22 105 22q27 0 50 -7q56 -16 82 -75q11 -25 11 -54q0 -51 -34 -113q-23 -42 -61 -83t-83 -76q-38 -29 -76.5 -49.5t-73.5 -30.5l-86 78zM190 139q29 19 55.5 43t49 50.5t37.5 53.5q14 26 17.5 41.5t3.5 23.5q0 10 -3 18
q-5 11 -11 15.5t-11 6.5q-9 3 -20 3q-29 0 -74 -17q-24 -8 -45.5 -19t-37.5 -20l-18 -232q28 13 57 33z" />
    <glyph glyph-name="c" unicode="c" horiz-adv-x="410" 
d="M11 185q2 28 10 57.5t21 58.5q14 31 34 59.5t45 51.5q51 49 108 69q34 11 65 11q38 0 71 -17l-44 -84q-13 7 -26 7q-3 0 -12.5 -1t-22.5 -6q-39 -14 -75 -49t-56 -80q-20 -43 -22 -66.5t-2 -30.5q0 -28 10 -46q5 -8 14.5 -16t32.5 -10h10q15 0 31.5 5t37 19.5t43.5 38
t52 56.5l71 -63q-27 -30 -55.5 -59.5t-58.5 -50.5q-59 -42 -120 -42h-5l-11 1h-5q-51 6 -79 28.5t-40 45.5q-23 40 -23 96q0 8 1 17z" />
    <glyph glyph-name="d" unicode="d" horiz-adv-x="458" 
d="M46 313q24 48 58 86.5t76 60.5q47 26 96 26q13 0 25 -2q10 -2 19.5 -4.5t19.5 -5.5q3 33 6.5 64.5t6 55.5t4.5 39l2 15l94 -10q0 -1 -2.5 -24.5t-7 -59.5t-9 -80t-9 -85t-8 -75t-4.5 -50q-2 -9 -2.5 -17.5t-1.5 -16.5q-4 -34 -5.5 -49.5t-1.5 -22.5q0 -16 4 -28
q2 -11 9.5 -23.5t33.5 -32.5l-56 -77q-30 22 -47 43.5t-26 46.5l-25 -26q-38 -36 -72 -47.5t-60 -11.5h-9q-52 3 -90 37q-18 16 -30 37t-18 44q-6 26 -6 53q0 67 36 140zM109 141q5 -18 18.5 -30.5t31.5 -13.5h3q15 0 33.5 8.5t39.5 30t42.5 57t41.5 88.5q2 15 4.5 39
t5.5 53q-26 17 -53 17q-25 0 -51 -14q-29 -15 -53 -43t-40.5 -61t-21.5 -59t-5 -41q0 -16 4 -31z" />
    <glyph glyph-name="e" unicode="e" horiz-adv-x="441" 
d="M26 192q3 50 26 108q14 34 37 65.5t51 56.5q72 63 149 63q51 0 85.5 -27.5t42.5 -72.5q1 -9 1 -19q0 -23 -10 -50.5t-37 -56.5q-56 -59 -166 -96l-30 90q54 19 83.5 38t43.5 33q21 24 21 42v4q-3 20 -34 20q-26 0 -48.5 -12.5t-37.5 -26.5q-20 -17 -36.5 -40.5
t-26.5 -46.5q-16 -38 -17.5 -58.5t-1.5 -26.5q0 -26 9 -45q13 -27 45 -35q13 -3 21.5 -3.5t9.5 -0.5q15 0 34.5 6.5t44.5 22.5t55 46l67 -67q-32 -31 -61.5 -52.5t-58.5 -33.5q-45 -17 -83 -17q-29 0 -53 7q-75 20 -106 84q-11 23 -15.5 44t-4.5 41q0 8 1 16z" />
    <glyph glyph-name="f" unicode="f" horiz-adv-x="338" 
d="M15 409l110 17l6 84q2 33 4.5 62t7.5 52q6 32 16 49q10 19 22.5 27.5t22.5 12.5q12 4 25 4q12 0 25 -4q19 -6 41 -22q19 -13 40.5 -34.5t47.5 -51.5l-71 -62q-14 16 -27.5 31t-23.5 23.5t-17 8.5q-1 0 -5 -0.5t-6 -15.5q-2 -18 -3.5 -40t-3.5 -47l-5 -63l94 15l15 -94
l-116 -18l-26 -373l-95 7l25 352l-88 -14z" />
    <glyph glyph-name="g" unicode="g" horiz-adv-x="421" 
d="M68 -30q10 -12 24 -24t31 -21t31.5 -12t23.5 -3q10 0 20 2q29 6 49 33t23 65q0 8 0.5 16t1.5 16q-20 -17 -37 -24q-33 -18 -71 -20h-7q-47 0 -85 26q-41 29 -55 76q-10 32 -10 67q0 11 2.5 40.5t22.5 77.5q20 46 50.5 84.5t68.5 65.5q66 48 142 51h9q80 0 149 -52
l-56 -76q-29 21 -52.5 27t-41.5 6q-7 0 -22 -1.5t-36 -10.5t-37 -21q-27 -20 -49.5 -48.5t-36.5 -61.5q-18 -42 -18 -80q0 -21 6 -41q5 -16 18.5 -25t29.5 -9h4q35 2 68 39q46 52 69 160l93 -20q0 -1 -3 -28t-7 -67t-8.5 -86.5t-7.5 -86.5q-5 -71 -45 -122t-103 -63
q-18 -3 -37 -3q-44 0 -90 20q-27 13 -50.5 31.5t-43.5 41.5z" />
    <glyph glyph-name="h" unicode="h" horiz-adv-x="463" 
d="M90 646l94 -7l-26 -346q26 57 57.5 102.5t68.5 71.5q32 22 45 22.5t15 0.5q21 0 36 -6q14 -5 31 -22t26 -52q5 -25 5 -55q0 -21 -2 -44q-3 -22 -6.5 -53t-6.5 -64l-7 -67q-4 -34 -6.5 -60.5t-3.5 -43.5l-2 -17l-95 9q0 1 3.5 36.5t8 84.5t10 100.5t10.5 85.5q1 11 1 19
q0 27 -7 28t-8 1q-19 0 -54 -46q-10 -13 -24 -37t-29.5 -54.5t-31 -64.5t-28 -65.5t-20.5 -58.5t-9 -44l-95 7z" />
    <glyph glyph-name="i" unicode="i" horiz-adv-x="220" 
d="M90 552l-45 84l114 61l45 -83zM152 -3l-94 6l27 473l94 -6z" />
    <glyph glyph-name="j" unicode="j" horiz-adv-x="279" 
d="M112 634l114 62l46 -84l-114 -61zM-8 -50l5 -7q5 -7 14 -14.5t19 -12t19 -4.5q5 0 10 1q7 1 15 3.5t15.5 11.5t14 26.5t10.5 48.5l35 473l95 -7l-36 -475v-1q-9 -83 -47 -127q-35 -38 -86 -47q-6 -1 -12.5 -1.5t-12.5 -0.5q-44 0 -81 25q-35 22 -57 57z" />
    <glyph glyph-name="k" unicode="k" horiz-adv-x="411" 
d="M125 -2l-95 8l50 640l95 -7l-24 -304l217 193l63 -71l-219 -195l155 -202l-75 -57l-152 196z" />
    <glyph glyph-name="l" unicode="l" horiz-adv-x="209" 
d="M87 638l95 -8l-50 -626l-95 7z" />
    <glyph glyph-name="m" unicode="m" horiz-adv-x="562" 
d="M239 80l-88 187l-26 -266l-95 9l43 438l90 15l121 -257l153 288l90 -24l-20 -447l-95 4l11 237l-99 -186z" />
    <glyph glyph-name="n" unicode="n" horiz-adv-x="460" 
d="M32 6l37 484l95 -7l-15 -190q26 57 57.5 102.5t69.5 71.5q32 23 45 23.5t15 0.5q21 0 35 -6q15 -6 32 -22.5t26 -52.5q5 -25 5 -53q0 -21 -3 -45q-3 -23 -6 -54t-6 -64l-7 -67q-4 -34 -6.5 -60t-3.5 -43l-2 -17l-95 9q0 1 1.5 17.5t4 43t6 59.5t7 67t7 65.5t6.5 54.5
q1 9 1 17q0 27 -7.5 28.5t-8.5 1.5q-19 0 -54 -46q-10 -13 -24 -37t-29 -54.5t-30.5 -64t-28 -65t-20.5 -59t-9 -44.5z" />
    <glyph glyph-name="o" unicode="o" horiz-adv-x="474" 
d="M224 478q29 9 46 10.5t26 1.5q14 0 30 -2.5t31 -8.5t26 -13q50 -32 66 -98q5 -23 5 -48q0 -41 -13 -88q-18 -66 -46 -111t-61 -73t-67.5 -40.5t-64.5 -12.5q-29 0 -55.5 14.5t-45.5 40.5q-11 16 -20.5 39t-13 49.5t-3.5 50.5q0 14 1.5 42.5t13.5 83.5l-44 51
q97 85 189 112zM159 174q2 -30 8.5 -46.5t10.5 -22.5q10 -15 24 -15q15 0 34.5 7.5t40 26.5t39.5 51t33 82q10 34 10 62q0 15 -3 29q-6 26 -24 38q-13 8 -24 8.5t-12 0.5q-21 0 -45 -8q-30 -10 -61 -27q-21 -65 -26 -105t-5 -65v-16z" />
    <glyph glyph-name="p" unicode="p" horiz-adv-x="451" 
d="M76 327q-2 4 -5 9.5t-7.5 14.5t-11.5 23.5t-19 37.5q26 13 46.5 22t38 16t34.5 13l34 11q58 16 102 16q34 0 60 -9q55 -19 79 -72q7 -14 11.5 -31.5t4.5 -37.5q0 -3 -0.5 -15.5t-8 -40t-25.5 -59.5q-22 -40 -56 -79t-76 -74q-9 -8 -24.5 -19.5t-34 -23t-39.5 -21
t-41 -13.5l-18 -177l-95 10zM180 118q17 11 37 28q35 28 63.5 60.5t45.5 64.5q12 20 17 39t5 30q0 15 -6 29q-9 17 -25 23q-12 4 -29 4q-42 0 -112 -26l-28 -271q14 8 32 19z" />
    <glyph glyph-name="q" unicode="q" horiz-adv-x="468" 
d="M17 219q10 84 65 154q25 32 56 57t65 40q47 20 87 20q6 0 32 -2t74 -30q8 -5 17 -12t20 -15q0 -1 -4 -40t-10.5 -98.5t-14 -131.5t-14.5 -140.5t-12.5 -124t-7.5 -82.5l-95 6q1 15 3 39t5 54.5t6.5 66.5t7.5 74q-12 -11 -32 -24q-45 -30 -94 -30q-25 0 -43 7
q-29 9 -52.5 30t-38.5 50q-22 44 -22 100q0 15 2 32zM122 130q5 -9 13 -18.5t21 -14.5q6 -2 14 -2q7 0 19 2.5t31.5 16t41 39t42.5 65.5l13 24q5 42 8.5 79t6.5 65q-18 10 -36 10q-7 0 -23 -3t-31 -10q-21 -9 -42.5 -25.5t-39.5 -39t-31 -50.5t-17 -60q-2 -13 -2 -24
q0 -31 12 -54z" />
    <glyph glyph-name="r" unicode="r" horiz-adv-x="348" 
d="M36 11l40 465l94 -8l-12 -147q38 45 77 77t95 58l41 -86q-57 -30 -96.5 -64.5t-66.5 -70.5t-43.5 -73t-27.5 -73l-8 -90z" />
    <glyph glyph-name="s" unicode="s" horiz-adv-x="377" 
d="M53 401q20 56 73 78q24 9 41.5 10t23.5 1q23 0 49 -5q58 -10 122 -44l-45 -84q-57 30 -85 34t-41 4q-18 0 -29 -5q-13 -4 -19 -19q-2 -8 -2 -16t4 -19.5t16.5 -26.5t31 -29.5t39.5 -28.5l11 -8q51 -36 65 -89q4 -15 4 -30q0 -35 -21 -68q-16 -23 -41.5 -38t-55.5 -17
q-3 -1 -15 -1q-57 0 -116 38l51 80q36 -23 62 -23t36 14q4 7 4 15q0 5 -3 15.5t-24 25.5l-12 8q-20 14 -45.5 33.5t-46.5 45.5q-36 44 -38 68t-2 32q0 28 8 49z" />
    <glyph glyph-name="t" unicode="t" horiz-adv-x="335" 
d="M25 409l90 7q5 37 9.5 70t7.5 58.5t5 41t2 16.5l95 -13l-2 -13q-2 -14 -5 -36l-7 -53q-4 -30 -8 -63l83 6l8 -94l-104 -9l-23 -182q-1 -7 -1 -13q0 -18 9 -18q1 0 8.5 1.5t45.5 34.5q6 5 12 11l7 7l12 10l63 -71q-8 -7 -15 -14t-15 -13q-15 -12 -32.5 -27t-37 -27.5
t-40 -21.5t-41.5 -9q-15 0 -31 8q-34 16 -40 66q-2 17 -2 38.5t4 49.5l21 162l-71 -4z" />
    <glyph glyph-name="u" unicode="u" horiz-adv-x="452" 
d="M36 231q1 85 30 219l93 -20q-29 -135 -29 -216q0 -69 21 -99q10 -17 33 -21q7 -2 13 -2q19 0 36 13q13 10 31 36t36 83q30 99 46 262l94 -9q-8 -88 -20.5 -157.5t-29.5 -123.5q-38 -120 -100 -167q-40 -31 -93 -31q-8 0 -15 0.5t-15 1.5q-62 12 -95 62q-36 54 -36 153v16
z" />
    <glyph glyph-name="v" unicode="v" horiz-adv-x="426" 
d="M137 8l-112 435l92 24l81 -313l173 345l85 -42l-230 -459z" />
    <glyph glyph-name="w" unicode="w" horiz-adv-x="560" 
d="M453 497l95 -11l-50 -415l-85 -46l-130 166l-169 -196l-84 33l24 428l95 -6l-16 -288l116 134l73 -1l93 -119z" />
    <glyph glyph-name="x" unicode="x" horiz-adv-x="389" 
d="M-20 31l156 204l-119 193l81 49l100 -161l155 205l76 -57l-178 -234l105 -171l-81 -49l-86 139l-133 -176z" />
    <glyph glyph-name="y" unicode="y" horiz-adv-x="448" 
d="M78 -27q10 -12 24 -24t31 -21t31.5 -12t23.5 -3q10 0 20 2q29 6 48.5 33t23.5 67q0 5 0.5 10.5t1.5 11.5q-26 -20 -49 -27.5t-41 -8.5h-6q-45 0 -80 28q-36 27 -50 74q-11 36 -11.5 62t-0.5 32q0 39 6 84t18.5 92t28.5 86l88 -36q-14 -34 -25 -74.5t-16 -80.5
q-6 -40 -6 -73q0 -3 0.5 -22t7.5 -43q5 -16 16 -25t23 -9h3q26 1 55 37q14 18 32.5 55.5t32.5 106.5q4 40 8 76t7 63.5t4.5 44t1.5 17.5l94 -10q0 -1 -3 -29t-7 -71.5t-10 -97.5t-11 -107t-10 -99.5t-8 -75.5q-6 -71 -46 -121q-41 -51 -102 -63q-18 -3 -37 -3q-44 0 -90 20
q-27 13 -50.5 31.5t-43.5 41.5z" />
    <glyph glyph-name="z" unicode="z" horiz-adv-x="403" 
d="M354 119l7 -95l-259 -19l-72 86l248 301l-230 -31l-12 94l310 42l52 -109l-234 -283z" />
    <glyph glyph-name="braceleft" unicode="{" horiz-adv-x="627" 
d="M210 270h9q22 0 34.5 9t21.5 26q11 24 16.5 57.5t10.5 68.5q3 27 7 55t12 53.5t20 46.5t32 36q32 23 76 23q14 0 28 -2l-15 -91q-9 2 -16 2q-5 0 -10.5 -2t-7.5 -4q-4 -3 -9.5 -11.5t-10.5 -28.5q-5 -19 -8.5 -41.5t-6.5 -46.5q-5 -42 -12 -81.5t-24 -73.5
q-13 -28 -37 -51q9 -11 15 -23.5t11 -27.5q7 -27 7 -54q0 -8 -1.5 -30t-6.5 -57q-2 -14 -4 -29.5t-2.5 -25t-0.5 -13.5q0 -9 1 -18t6 -15q8 -9 38 -11l-4 -92q-72 4 -105 45q-26 31 -28 88q0 20 2.5 41.5t4.5 42.5q5 29 6.5 46.5t1.5 25.5q0 18 -4 32q-2 8 -12 21t-45 19z
" />
    <glyph glyph-name="bar" unicode="|" horiz-adv-x="268" 
d="M127 644l91 -8l-76 -817l-92 8z" />
    <glyph glyph-name="braceright" unicode="}" horiz-adv-x="627" 
d="M150 -179l15 91q7 -1 13 -1q12 0 21 5q8 6 13.5 19t9 29.5t6.5 36t6 39.5q5 40 12 79.5t24 73.5q15 28 36 48q-17 22 -27 52q-8 28 -8 58q0 6 1 27.5t6 56.5q2 16 3.5 32t2 24.5t0.5 11.5q0 11 -2 21.5t-7 16.5q-7 10 -34 13l10 91q64 -7 96 -47q14 -18 20 -38.5t7 -36
t1 -25.5q0 -13 -1.5 -31.5t-4.5 -41.5q-3 -29 -4 -47t-1 -24q0 -20 4 -35q4 -14 15 -25t44 -17l-10 -91h-6q-19 0 -33 -6.5t-24 -24.5t-16.5 -49t-12.5 -77q-3 -27 -7 -54.5t-12 -52t-20.5 -45t-31.5 -35.5q-31 -23 -74 -23h-15q-7 0 -15 2z" />
    <glyph glyph-name="asciitilde" unicode="~" horiz-adv-x="787" 
d="M150 529q7 13 19 30.5t28 34t35.5 30t42.5 19.5q17 4 34 4q29 0 57 -13q17 -8 31 -19t27 -22q18 -16 31 -25t25 -9t22.5 7.5t19.5 19t17 25.5t14 28l84 -37q-12 -27 -25 -47.5t-27 -37.5q-29 -31 -57 -40.5t-48 -9.5q-38 0 -66 18.5t-50 37.5q-23 20 -34.5 26t-20.5 6
q-5 0 -10 -1q-16 -4 -34.5 -23t-34.5 -48z" />
    <glyph glyph-name="quotesinglbase" unicode="&#x201a;" horiz-adv-x="479" 
d="M200 -34q6 9 13 24t12 32.5t8.5 36t3.5 34.5h92q0 -22 -4 -47t-11.5 -49t-17 -46t-20.5 -38z" />
    <glyph glyph-name="quotedblbase" unicode="&#x201e;" horiz-adv-x="650" 
d="M371 -35q6 9 12.5 24.5t12 33t9 36t3.5 34.5h92q0 -22 -4 -47t-11.5 -49.5t-17 -46.5t-20.5 -37zM200 -35q6 9 12.5 24t11.5 33t8.5 36.5t3.5 34.5h92q0 -22 -4 -47t-11 -49.5t-16.5 -46.5t-20.5 -37z" />
    <glyph glyph-name="ellipsis" unicode="&#x2026;" horiz-adv-x="712" 
d="M108 374l92 -8l-8 -92l-92 8zM318 374l92 -8l-8 -92l-92 8zM520 374l92 -8l-8 -92l-92 8z" />
    <glyph glyph-name="dagger" unicode="&#x2020;" horiz-adv-x="614" 
d="M263 497l14 147l91 -8l-12 -125l144 22l14 -91l-166 -25l-38 -417l-92 8l36 395l-140 -21l-14 91z" />
    <glyph glyph-name="daggerdbl" unicode="&#x2021;" horiz-adv-x="638" 
d="M287 497l14 147l91 -8l-12 -125l144 22l14 -91l-166 -25l-15 -158l143 22l14 -91l-165 -25l-15 -165l-92 8l13 143l-141 -21l-14 91l164 24l14 158l-140 -21l-14 91z" />
    <glyph glyph-name="perthousand" unicode="&#x2030;" horiz-adv-x="999" 
d="M5 519l36 29q14 11 27.5 20.5t26.5 18.5l7 4q48 30 92 42q33 9 58 9q12 0 33 -4.5t39 -15.5q40 -29 51 -81q3 -17 3 -34q0 -35 -11 -72l-9 -28q-5 -14 -11 -26l161 281l80 -46l-153 -266q22 12 42 21.5t40 14.5q32 9 57 9q12 0 33.5 -4.5t38.5 -16.5q28 -19 42 -50l30 20
q24 14 47 25t45 17q32 9 57 9q12 0 33.5 -4.5t38.5 -16.5q42 -29 51 -81q3 -17 3 -36q0 -33 -10 -70q-15 -51 -38 -86t-49 -57t-53.5 -31.5t-52.5 -9.5q-61 0 -95 48q-24 32 -27 79q-17 -35 -37.5 -59t-43.5 -39t-46 -22t-44 -7q-61 0 -95 48q-27 36 -27 93v8q0 12 1 25.5
t4 28.5l-16 19l-137 -239l-79 46l174 304q-33 -47 -73.5 -66.5t-74.5 -19.5q-29 0 -53.5 13t-41.5 36q-27 38 -27 92v8q0 13 1.5 26.5t3.5 27.5zM144 395q0 -19 3.5 -29t6.5 -14q7 -10 20 -10q10 0 23.5 5.5t28.5 19t28.5 36t23.5 57.5q8 27 8 48q0 3 -1 16t-12 21
q-7 5 -25 5q-4 0 -19.5 -1t-57.5 -24l-2 -6q-15 -44 -20 -72t-5 -46v-6zM760 148q0 -20 3.5 -30t6.5 -13q6 -10 20 -10q10 0 23.5 5t28 18.5t28.5 36t24 57.5q7 26 7 46q0 5 -1 18.5t-12 21.5q-6 4 -23 4q-5 0 -20.5 -1t-57.5 -24l-2 -5q-15 -44 -20 -72t-5 -46v-6zM467 148
q0 -20 3.5 -30t6.5 -13q6 -10 20 -10q10 0 23.5 5t28 18.5t28.5 36t24 57.5q7 26 7 46q0 5 -1 18.5t-12 21.5q-6 4 -23 4q-5 0 -20.5 -1t-57.5 -24l-2 -5q-15 -44 -20 -72t-5 -46v-6z" />
    <glyph glyph-name="Scaron" unicode="&#x160;" horiz-adv-x="520" 
d="M278 855l32 -71l39 71l78 -41l-86 -153l-85 7l-63 156zM48 477q29 97 130 141q42 18 75.5 22.5t53.5 4.5q26 0 52 -5q37 -7 67 -22t50.5 -37t29.5 -46.5t9 -47.5q0 -7 -1 -14l-98 7v4q0 14 -7.5 25t-19.5 18t-25 10.5t-22 5.5q-18 3 -37 3q-13 0 -36 -2.5t-52 -15.5
q-20 -9 -42.5 -27.5t-31.5 -50.5q-4 -13 -4 -25q0 -7 2.5 -19t16.5 -29q18 -21 51.5 -42.5t84.5 -41.5q55 -21 84 -61q30 -39 32 -86v-4q0 -41 -21 -75q-22 -36 -61 -56q-37 -17 -75 -17q-24 0 -41 4q-65 13 -130 67l62 76q40 -33 67 -41t42 -8q17 0 31 7q28 13 28 40v4
q-1 37 -56 60q-63 25 -105 52.5t-68 58.5q-30 36 -39 77q-4 16 -4 34q0 25 8 52z" />
    <glyph glyph-name="guilsinglleft" unicode="&#x2039;" horiz-adv-x="454" 
d="M197 171l-97 118l4 66l135 127l65 -69l-102 -97l68 -83z" />
    <glyph glyph-name="Zcaron" unicode="&#x17d;" horiz-adv-x="495" 
d="M239 668l-63 156l85 31l32 -71l39 71l78 -41l-86 -153zM392 125l10 -97l-292 -28l-80 73l314 461l-264 -42l-15 96l337 55l83 -76l-315 -463z" />
    <glyph glyph-name="quoteleft" unicode="&#x2018;" horiz-adv-x="478" 
d="M204 512q4 25 11.5 49.5t17 46.5t20.5 37l75 -52q-6 -9 -12.5 -24t-11.5 -33t-8.5 -36.5t-3.5 -34.5h-92q0 22 4 47z" />
    <glyph glyph-name="quoteright" unicode="&#x2019;" horiz-adv-x="478" 
d="M200 517q6 9 12.5 24t11.5 33t8.5 36.5t3.5 34.5h92q0 -22 -4 -47t-11.5 -49.5t-17 -46.5t-20.5 -37z" />
    <glyph glyph-name="quotedblleft" unicode="&#x201c;" horiz-adv-x="650" 
d="M154 512q4 25 11.5 49.5t17 46.5t20.5 37l76 -52q-6 -9 -12.5 -24.5t-12 -33t-9 -36t-3.5 -34.5h-92q0 22 4 47zM326 512q4 25 11 49.5t16.5 46.5t20.5 37l76 -52q-6 -9 -12.5 -24t-11.5 -33t-8.5 -36.5t-3.5 -34.5h-92q0 22 4 47z" />
    <glyph glyph-name="quotedblright" unicode="&#x201d;" horiz-adv-x="650" 
d="M371 517q6 9 12.5 24.5t12 33t9 36t3.5 34.5h92q0 -22 -4 -47t-11.5 -49.5t-17 -46.5t-20.5 -37zM200 517q6 9 12.5 24t11.5 33t8.5 36.5t3.5 34.5h92q0 -22 -4 -47t-11 -49.5t-16.5 -46.5t-20.5 -37z" />
    <glyph glyph-name="bullet" unicode="&#x2022;" horiz-adv-x="300" 
d="M108 374l92 -8l-8 -92l-92 8z" />
    <glyph glyph-name="endash" unicode="&#x2013;" horiz-adv-x="579" 
d="M466 386l13 -91l-366 -57l-13 91z" />
    <glyph glyph-name="emdash" unicode="&#x2014;" horiz-adv-x="976" 
d="M938 455l13 -91l-913 -133l-13 91z" />
    <glyph glyph-name="trademark" unicode="&#x2122;" horiz-adv-x="907" 
d="M723 655l84 -25l-24 -373l-90 6l12 175l-77 -137l-81 5l-54 126l-14 -182l-90 7l28 352l84 34l93 -218zM388 643l4 -90l-99 -5l-22 -301l-89 6l20 290l-97 -5l-5 90z" />
    <glyph glyph-name="scaron" unicode="&#x161;" horiz-adv-x="367" 
d="M191 704l32 -71l39 71l78 -41l-86 -153l-85 7l-63 156zM33 401q20 56 73 78q24 9 41.5 10t23.5 1q23 0 49 -5q58 -10 122 -44l-45 -84q-57 30 -85 34t-41 4q-18 0 -29 -5q-13 -4 -19 -19q-2 -8 -2 -16t4 -19.5t16.5 -26.5t31 -29.5t39.5 -28.5l11 -8q51 -36 65 -89
q4 -15 4 -30q0 -35 -21 -68q-16 -23 -41.5 -38t-55.5 -17q-3 -1 -15 -1q-57 0 -116 38l51 80q36 -23 62 -23t36 14q4 7 4 15q0 5 -3 15.5t-24 25.5l-12 8q-20 14 -45.5 33.5t-46.5 45.5q-36 44 -38 68t-2 32q0 28 8 49z" />
    <glyph glyph-name="guilsinglright" unicode="&#x203a;" horiz-adv-x="454" 
d="M257 482l97 -118l-4 -66l-135 -127l-65 69l102 97l-68 83z" />
    <glyph glyph-name="zcaron" unicode="&#x17e;" horiz-adv-x="403" 
d="M181 517l-63 156l85 31l32 -71l39 71l78 -41l-86 -153zM354 119l7 -95l-259 -19l-72 86l248 301l-230 -31l-12 94l310 42l52 -109l-234 -283z" />
    <glyph glyph-name="uni00A0" unicode="&#xa0;" horiz-adv-x="202" 
 />
    <glyph glyph-name="caron" unicode="&#x2c7;" horiz-adv-x="434" 
d="M163 668l-63 156l85 31l32 -71l39 71l78 -41l-86 -153z" />
    <glyph glyph-name="breve" unicode="&#x2d8;" horiz-adv-x="434" 
d="M163 517l-63 156l85 31l32 -71l39 71l78 -41l-86 -153z" />
    <glyph glyph-name="Lslash" unicode="&#x141;" horiz-adv-x="593" 
d="M189 435l15 208l98 -7l-14 -186l162 24l14 -91l-182 -27l-18 -256l265 57l14 -97l-287 -60l-92 83l18 258l-118 -18l-14 91z" />
    <glyph glyph-name="currency" unicode="&#xa4;" horiz-adv-x="633" 
d="M110 220q-5 25 -5 46q0 57 32 110l-68 119l82 48l52 -91q36 28 76.5 43t82.5 15q18 0 43 -5q11 -2 21.5 -5.5t19.5 -7.5l55 96l82 -47l-65 -115q5 -11 9.5 -22.5t6.5 -24.5q3 -17 3 -33q0 -45 -23 -92l-10 -18q-5 -9 -12 -17l59 -103l-82 -47l-47 82l-6 -5
q-32 -20 -69 -31.5t-74 -11.5q-62 0 -104 30l-36 -64l-83 47zM214 219l4 -2l-1 -1l2 -2q16 -16 54 -16q23 0 46.5 7t43.5 20q44 29 67 72q13 26 13 48q0 8 -2 16q-7 42 -56 51q-11 3 -23 3q-28 0 -57.5 -12.5t-53.5 -35.5q-51 -47 -51 -101q0 -31 14 -47z" />
    <glyph glyph-name="brokenbar" unicode="&#xa6;" horiz-adv-x="268" 
d="M96 308l31 336l91 -8l-31 -338zM175 168l-33 -349l-92 8l33 351z" />
    <glyph glyph-name="section" unicode="&#xa7;" horiz-adv-x="678" 
d="M60 313q11 34 37.5 58.5t64.5 35.5q32 10 69 10q13 0 26 -1l-8 23q-5 21 -5 42q0 29 9 56q23 65 85 91q36 14 79 14q28 0 60 -6q71 -13 151 -56l-44 -84q-34 17 -65 29t-60 17q-23 5 -43 5q-23 0 -42 -7q-22 -10 -31 -33q-5 -14 -5 -26q0 -9 4 -23t22 -37
q17 -22 40.5 -40.5t45.5 -34.5q5 -4 10 -7l7 -5q5 -3 10 -7q64 -46 79 -118q4 -19 4 -38q0 -48 -27 -91q-21 -33 -54.5 -54t-75.5 -28q-17 -3 -35 -3h-8q4 -18 4 -35q0 -41 -24 -76q-20 -29 -53.5 -47.5t-78.5 -18.5q-32 0 -67.5 11t-73.5 36l51 80q52 -33 88 -33
q2 0 21.5 1t33.5 24q7 11 7 26q0 8 -3.5 24.5t-36.5 39.5l-14 10q-26 17 -57.5 41.5t-57.5 56.5q-32 37 -42 78q-6 23 -6 45q0 28 9 55zM148 239q6 -22 21.5 -42t38.5 -38.5t49 -36.5q39 -21 66 -26.5t45 -5.5q9 0 25 2t33 13t26 26q7 12 9.5 23.5t2.5 19.5t-2 19.5
t-12.5 27.5t-29.5 30l-18 13q-1 1 -2 1l-2 2q-1 1 -2 1q-60 39 -101.5 46.5t-64.5 7.5q-22 0 -40 -5q-31 -10 -40 -34q-5 -13 -5 -26q0 -9 3 -18z" />
    <glyph glyph-name="dieresis" unicode="&#xa8;" horiz-adv-x="647" 
d="M208 644l92 -8l-8 -92l-92 8zM405 644l92 -8l-8 -92l-92 8z" />
    <glyph glyph-name="copyright" unicode="&#xa9;" horiz-adv-x="979" 
d="M50 137q0 94 43.5 185t124.5 166q75 69 170 110q97 42 196 42q45 0 87 -9q103 -21 170 -88q64 -65 81 -156q6 -30 6 -62q0 -29 -5 -61q-10 -63 -41 -126q-33 -66 -86 -122.5t-123 -104.5q-66 -43 -143 -66.5t-153 -23.5q-138 0 -227 74q-48 42 -74 101q-26 66 -26 141z
M172 18q26 -44 63 -66.5t76.5 -29t65.5 -6.5q63 0 126.5 19.5t117.5 55.5q57 37 100 83t70 95.5t34.5 89t7.5 65.5q0 23 -4 46q-13 66 -59 109.5t-119 58.5q-16 4 -33 5.5t-34 1.5q-78 0 -156.5 -33t-144.5 -94t-102 -133.5t-36 -147.5t27 -119zM266 172q2 28 10 57.5
t21 58.5q14 31 34 59.5t45 51.5q51 49 108 69q34 11 65 11q38 0 71 -17l-44 -84q-13 7 -26 7q-3 0 -12.5 -1t-22.5 -6q-39 -14 -75 -49t-56 -80q-20 -43 -22 -66.5t-2 -30.5q0 -28 10 -46q5 -8 14.5 -16t32.5 -10h10q15 0 31.5 5t37 19.5t43.5 38t52 56.5l71 -63
q-27 -30 -55.5 -59.5t-58.5 -50.5q-59 -42 -120 -42h-5l-11 1h-5q-51 6 -79 28.5t-40 45.5q-23 40 -23 96q0 8 1 17z" />
    <glyph glyph-name="guillemotleft" unicode="&#xab;" horiz-adv-x="919" 
d="M342 61l-192 228l4 66l240 225l65 -69l-207 -195l163 -193zM603 61l-192 228l4 66l239 225l65 -69l-207 -195l163 -193z" />
    <glyph glyph-name="logicalnot" unicode="&#xac;" horiz-adv-x="615" 
d="M505 106l-97 14l57 265l-408 -30l-7 98l432 32l83 -92z" />
    <glyph glyph-name="uni00AD" unicode="&#xad;" horiz-adv-x="514" 
d="M450 420l14 -91l-400 -60l-14 91z" />
    <glyph glyph-name="registered" unicode="&#xae;" horiz-adv-x="979" 
d="M50 137q0 94 43.5 185t124.5 166q75 69 170 110q97 42 196 42q45 0 87 -9q103 -21 170 -88q64 -65 81 -156q6 -30 6 -62q0 -29 -5 -61q-10 -63 -41 -126q-33 -66 -86 -122.5t-123 -104.5q-66 -43 -143 -66.5t-153 -23.5q-138 0 -227 74q-48 42 -74 101q-26 66 -26 141z
M160 43q15 -38 39 -62.5t53 -38t57 -19.5l32 399q-4 -3 -12 -5l-38 80q60 29 117.5 47t108.5 24q25 3 48 3q31 0 56 -6q55 -13 86 -55q28 -38 28 -81q0 -23 -8 -48q-12 -38 -36.5 -68t-46.5 -48q-16 -14 -33 -25.5t-35 -21.5l74 -107q50 37 87 80.5t60.5 90.5t29.5 83t6 59
t-4 46q-13 66 -59 109.5t-119 58.5q-16 4 -33 5.5t-34 1.5q-78 0 -156.5 -33t-144.5 -94t-102 -133.5t-36 -147.5q0 -56 15 -94zM488 -69q44 13 86 33l-86 125l7 90q47 17 91 53q45 40 55 75q4 11 4 20q0 4 -1.5 11.5t-9.5 18.5q-8 10 -21 15.5t-26.5 7.5t-25.5 2
q-3 0 -12 -0.5t-21 -1.5q-21 -3 -44.5 -8.5t-48.5 -13.5l-36 -441q45 2 89 14z" />
    <glyph glyph-name="degree" unicode="&#xb0;" horiz-adv-x="414" 
d="M59 525q17 45 58 77q26 20 56 30.5t60 10.5q64 0 101 -40q16 -17 22.5 -37t6.5 -39v-10q-3 -35 -20.5 -64.5t-46.5 -52.5q-26 -20 -57 -31t-62 -11q-43 0 -75 22q-32 23 -45 59q-7 20 -7 40q0 23 9 46zM138 466q8 -23 39 -23q17 0 34 6t31.5 17t24 26t11.5 32v5
q0 5 -2 9.5t-4 6.5q-13 13 -39 13q-32 0 -64 -23q-24 -19 -28.5 -33.5t-4.5 -23.5q0 -7 2 -12z" />
    <glyph glyph-name="plusminus" unicode="&#xb1;" horiz-adv-x="616" 
d="M514 374l-165 -24l-17 -192l-91 8l15 170l-142 -21l-14 91l164 24l16 181l91 -8l-14 -159l143 21zM502 150l14 -91l-400 -59l-14 91z" />
    <glyph glyph-name="ogonek" unicode="&#x2db;" horiz-adv-x="409" 
d="M69 28q16 42 39 79.5t43 64.5l71 -52q-24 -34 -42 -65.5t-29 -58.5q-13 -33 -13 -50q0 -1 1 -10t3 -13q5 -9 9.5 -11.5t8.5 -3.5q2 0 5 -1q3 1 11 1.5t25 8t41.5 23.5t56.5 46l60 -64q-62 -58 -116 -83q-41 -20 -75 -20q-11 0 -21 2q-26 4 -47 19t-35 40q-15 26 -15 61
q0 38 19 87z" />
    <glyph glyph-name="lslash" unicode="&#x142;" horiz-adv-x="514" 
d="M208 437l19 207l91 -8l-17 -185l149 23l14 -91l-172 -26l-32 -357l-92 8l31 335l-135 -20l-14 91z" />
    <glyph glyph-name="acute" unicode="&#xb4;" horiz-adv-x="264" 
d="M214 616l-85 -148l-79 46l84 148z" />
    <glyph glyph-name="uni00B5" unicode="&#xb5;" horiz-adv-x="644" 
d="M141 259q2 39 9.5 86.5t19.5 104.5l93 -20q-29 -135 -29 -216q0 -69 21 -99q10 -17 33 -21q7 -2 13 -2q19 0 36 13q13 10 31 36t36 83q30 99 46 262l94 -9q-8 -88 -20.5 -157.5t-29.5 -123.5q-38 -120 -100 -167q-40 -31 -93 -31q-8 0 -15 0.5t-15 1.5q-35 6 -60 25
l-19 -206l-92 8z" />
    <glyph glyph-name="paragraph" unicode="&#xb6;" horiz-adv-x="817" 
d="M52 372q10 84 65 154q25 32 56 57t65 40q47 20 87 20q6 0 32 -2t74 -30q6 -4 9 -7l322 17l5 -97l-127 -6l-65 -705l-97 7l64 692l-82 -5q-5 -44 -11.5 -107t-14 -133t-14.5 -141.5t-13.5 -134t-10.5 -109.5t-5 -68l-95 6q0 10 2 35.5t5 60t6.5 75t7.5 80t8 75.5t7 61
q-12 -11 -32 -24q-45 -30 -94 -30q-25 0 -43 7q-29 9 -52.5 30t-38.5 50q-22 44 -22 100q0 15 2 32zM157 283q5 -9 13 -18.5t21 -14.5q6 -2 14 -2q7 0 19 2.5t31.5 16t41 39t42.5 65.5l13 24q5 42 8.5 79t6.5 65q-18 10 -36 10q-7 0 -23 -3t-31 -10q-21 -9 -42.5 -25.5
t-39.5 -39t-31 -50.5t-17 -60q-2 -13 -2 -24q0 -31 12 -54z" />
    <glyph glyph-name="periodcentered" unicode="&#xb7;" horiz-adv-x="300" 
d="M108 374l92 -8l-8 -92l-92 8z" />
    <glyph glyph-name="cedilla" unicode="&#xb8;" horiz-adv-x="359" 
d="M70 164l89 -16l-9 -50q33 11 60 11q19 0 36 -5q37 -12 54 -50q7 -15 8 -27.5t1 -14.5q0 -22 -14 -49q-16 -31 -42 -54.5t-49 -37.5q-28 -19 -58 -32t-56 -18l-19 88q18 4 40 14t42 23t37 28t25 30q2 4 2 7q0 4 -2.5 6t-7.5 2q-7 0 -21 -4t-32.5 -11.5t-41.5 -20.5l-62 70
z" />
    <glyph glyph-name="guillemotright" unicode="&#xbb;" horiz-adv-x="919" 
d="M525 80l-65 69l207 195l-163 193l73 62l192 -228l-4 -66zM265 80l-65 69l207 195l-163 193l73 62l192 -228l-4 -66z" />
    <glyph glyph-name="hungarumlaut" unicode="&#x2dd;" horiz-adv-x="659" 
d="M314 616l-85 -148l-79 46l84 148zM509 616l-85 -148l-79 46l84 148z" />
    <glyph glyph-name="Aacute" unicode="&#xc1;" horiz-adv-x="545" 
d="M421 809l-85 -148l-79 46l84 148zM48 -22l-88 44l294 601l100 10l171 -584l-94 -27l-46 158l-257 -38zM180 249l177 26l-62 209z" />
    <glyph glyph-name="Acircumflex" unicode="&#xc2;" horiz-adv-x="545" 
d="M364 848l63 -156l-85 -31l-32 71l-39 -71l-78 41l86 153zM48 -22l-88 44l294 601l100 10l171 -584l-94 -27l-46 158l-257 -38zM180 249l177 26l-62 209z" />
    <glyph glyph-name="Adieresis" unicode="&#xc4;" horiz-adv-x="545" 
d="M162 819l92 -8l-8 -92l-92 8zM359 819l92 -8l-8 -92l-92 8zM48 -22l-88 44l294 601l100 10l171 -584l-94 -27l-46 158l-257 -38zM180 249l177 26l-62 209z" />
    <glyph glyph-name="Ccedilla" unicode="&#xc7;" horiz-adv-x="508" 
d="M38 274q4 32 12 59q14 51 35.5 96t50.5 83q57 81 135 116q43 20 86 20q44 0 87 -21l-43 -88q-22 10 -44 11q-23 -1 -46 -11q-26 -12 -51 -34.5t-46.5 -53t-39.5 -67.5t-29 -77q-12 -40 -12 -80q0 -9 2 -37.5t21 -58.5q19 -31 56 -37q9 -2 18 -2q39 0 79 31q56 43 104 129
l85 -47q-82 -148 -186 -194l13 -9q14 -11 20 -25t8 -33v-4q0 -13 -5.5 -30.5t-27.5 -37.5q-23 -19 -51 -30t-51 -16q-29 -6 -46 -6.5t-22 -0.5q-22 0 -40 3l11 77q12 -2 27 -2q4 0 17 0.5t34 5t39.5 12t29.5 16.5q5 4 5 7q0 2 -2 5t-23 6q-8 1 -18 1q-6 0 -17.5 -0.5
t-33.5 -2.5l-24 61q-52 21 -82 71q-18 28 -26.5 61t-10 55.5t-1.5 34.5q0 22 3 44z" />
    <glyph glyph-name="Eacute" unicode="&#xc9;" horiz-adv-x="491" 
d="M383 809l-85 -148l-79 46l84 148zM137 0l-92 84l38 472l365 89l23 -95l-296 -72l-14 -178l233 53l22 -95l-264 -61l-7 -96l212 42l18 -97z" />
    <glyph glyph-name="Edieresis" unicode="&#xcb;" horiz-adv-x="541" 
d="M145 819l92 -8l-8 -92l-92 8zM342 819l92 -8l-8 -92l-92 8zM151 0l-92 84l38 472l365 89l23 -95l-296 -72l-14 -178l233 53l22 -95l-264 -61l-7 -96l212 42l18 -97z" />
    <glyph glyph-name="Iacute" unicode="&#xcd;" horiz-adv-x="340" 
d="M295 809l-85 -148l-79 46l84 148zM153 0l-98 9l60 639l98 -9z" />
    <glyph glyph-name="Icircumflex" unicode="&#xce;" horiz-adv-x="334" 
d="M226 848l63 -156l-85 -31l-32 71l-39 -71l-78 41l86 153zM158 0l-98 9l60 639l98 -9z" />
    <glyph glyph-name="Oacute" unicode="&#xd3;" horiz-adv-x="572" 
d="M257 707l84 148l80 -46l-85 -148zM234 624q56 22 106 22q49 0 91 -22q69 -38 93 -120q13 -43 13 -94q0 -45 -10 -97q-18 -101 -60 -173q-39 -71 -95 -107q-53 -36 -111 -36q-19 0 -35 3q-89 18 -130 95q-32 57 -32 144q0 25 3 53q3 26 8.5 54.5t13.5 58.5l-69 69
q108 110 214 150zM182 142q19 -37 64 -46q7 -1 14 -1q28 0 57 19q12 8 27.5 23t31.5 40.5t30.5 63t24.5 90.5q8 44 8 79q0 38 -9 66q-12 44 -45 61q-19 10 -46 10q-3 0 -19 -0.5t-51 -14.5q-10 -4 -19.5 -8t-19.5 -9l-17 -45q-41 -105 -46 -159t-5 -72q0 -60 20 -97z" />
    <glyph glyph-name="Ocircumflex" unicode="&#xd4;" horiz-adv-x="572" 
d="M193 702l86 153l85 -7l63 -156l-85 -31l-32 71l-39 -71zM234 624q56 22 106 22q49 0 91 -22q69 -38 93 -120q13 -43 13 -94q0 -45 -10 -97q-18 -101 -60 -173q-39 -71 -95 -107q-53 -36 -111 -36q-19 0 -35 3q-89 18 -130 95q-32 57 -32 144q0 25 3 53q3 26 8.5 54.5
t13.5 58.5l-69 69q108 110 214 150zM182 142q19 -37 64 -46q7 -1 14 -1q28 0 57 19q12 8 27.5 23t31.5 40.5t30.5 63t24.5 90.5q8 44 8 79q0 38 -9 66q-12 44 -45 61q-19 10 -46 10q-3 0 -19 -0.5t-51 -14.5q-10 -4 -19.5 -8t-19.5 -9l-17 -45q-41 -105 -46 -159t-5 -72
q0 -60 20 -97z" />
    <glyph glyph-name="Odieresis" unicode="&#xd6;" horiz-adv-x="572" 
d="M351 727l8 92l92 -8l-8 -92zM154 727l8 92l92 -8l-8 -92zM234 624q56 22 106 22q49 0 91 -22q69 -38 93 -120q13 -43 13 -94q0 -45 -10 -97q-18 -101 -60 -173q-39 -71 -95 -107q-53 -36 -111 -36q-19 0 -35 3q-89 18 -130 95q-32 57 -32 144q0 25 3 53q3 26 8.5 54.5
t13.5 58.5l-69 69q108 110 214 150zM182 142q19 -37 64 -46q7 -1 14 -1q28 0 57 19q12 8 27.5 23t31.5 40.5t30.5 63t24.5 90.5q8 44 8 79q0 38 -9 66q-12 44 -45 61q-19 10 -46 10q-3 0 -19 -0.5t-51 -14.5q-10 -4 -19.5 -8t-19.5 -9l-17 -45q-41 -105 -46 -159t-5 -72
q0 -60 20 -97z" />
    <glyph glyph-name="multiply" unicode="&#xd7;" horiz-adv-x="615" 
d="M436 157l-127 108l-156 -113l-53 74l138 100l-109 94l59 70l126 -108l147 107l54 -74l-129 -94l109 -94z" />
    <glyph glyph-name="Uacute" unicode="&#xda;" horiz-adv-x="546" 
d="M244 707l84 148l80 -46l-85 -148zM24 304q10 112 59 276l94 -29q-23 -76 -37 -140t-19 -116q-3 -29 -3 -53q0 -69 23 -105q18 -32 55 -39q13 -3 25 -3q36 0 66 27q29 26 51.5 75t38.5 118q7 30 12.5 62t11 70.5t11 86t12.5 109.5l97 -11q-7 -63 -13 -112t-11.5 -88.5
t-11.5 -72.5t-13 -65q-38 -170 -119 -244q-40 -36 -88 -48q-28 -5 -45 -5t-45 5q-43 11 -70 31q-30 21 -49 54q-35 61 -35 158q0 28 3 59z" />
    <glyph glyph-name="Udieresis" unicode="&#xdc;" horiz-adv-x="546" 
d="M359 819l92 -8l-8 -92l-92 8zM154 727l8 92l92 -8l-8 -92zM24 304q10 112 59 276l94 -29q-23 -76 -37 -140t-19 -116q-3 -29 -3 -53q0 -69 23 -105q18 -32 55 -39q13 -3 25 -3q36 0 66 27q29 26 51.5 75t38.5 118q7 30 12.5 62t11 70.5t11 86t12.5 109.5l97 -11
q-7 -63 -13 -112t-11.5 -88.5t-11.5 -72.5t-13 -65q-38 -170 -119 -244q-40 -36 -88 -48q-28 -5 -45 -5t-45 5q-43 11 -70 31q-30 21 -49 54q-35 61 -35 158q0 28 3 59z" />
    <glyph glyph-name="Yacute" unicode="&#xdd;" horiz-adv-x="470" 
d="M380 809l-85 -148l-79 46l84 148zM433 644l77 -61l-246 -321l-21 -264l-98 8l21 263l-161 261l83 52l133 -216z" />
    <glyph glyph-name="germandbls" unicode="&#xdf;" horiz-adv-x="637" 
d="M100 539q63 38 120 60.5t115 34.5q46 10 83 10q15 0 29 -2q57 -6 95 -41q29 -29 37 -56t8 -45q0 -19 -6 -38q-6 -23 -18 -43t-27 -37.5t-32 -32t-33 -26.5q16 -11 31 -29q25 -33 25 -72q0 -18 -5 -38q-6 -23 -23 -45t-41.5 -42t-55 -37t-63.5 -29l-33 89q52 20 85.5 46
t39.5 44q1 4 1 8q0 9 -6 19q-14 17 -40 17q-1 0 -15 -0.5t-52 -8.5l-22 -3l5 99q32 10 63 27t56.5 37t43.5 41.5t24 41.5q2 6 2 12q0 18 -16 33q-11 12 -39 15q-9 1 -18 1q-29 0 -64 -8q-25 -5 -51.5 -14t-54.5 -20l-44 -581l-95 7l40 525q-3 5 -11.5 18t-16.5 27
q-11 16 -21 36z" />
    <glyph glyph-name="aacute" unicode="&#xe1;" horiz-adv-x="446" 
d="M232 556l84 148l80 -46l-85 -148zM21 192q3 48 21 96t47 86.5t67 64.5q60 44 130 45q77 0 147 -52l-56 -76q-27 19 -50 25.5t-42 6.5q-2 0 -14 -0.5t-29.5 -8t-30.5 -17.5q-27 -19 -47.5 -47t-32.5 -60t-14 -52.5t-2 -28.5q0 -24 7 -45q10 -34 40 -34q29 2 62.5 48
t55.5 145v3l93 -19l-2 -13q-6 -43 -8 -63t-2 -30q0 -14 3 -29.5t14.5 -29t32.5 -26.5l-50 -80q-47 28 -72 70q-33 -42 -66 -55.5t-56 -14.5q-1 -1 -6 -1q-45 0 -80 28q-17 14 -30 32t-20 41q-11 35 -11 73q0 9 1 18z" />
    <glyph glyph-name="acircumflex" unicode="&#xe2;" horiz-adv-x="440" 
d="M273 703l85 -7l63 -156l-85 -31l-32 71l-39 -71l-78 41zM21 192q3 48 21 96t47 86.5t67 64.5q60 44 130 45q77 0 147 -52l-56 -76q-27 19 -50 25.5t-42 6.5q-2 0 -14 -0.5t-29.5 -8t-30.5 -17.5q-27 -19 -47.5 -47t-32.5 -60t-14 -52.5t-2 -28.5q0 -24 7 -45
q10 -34 40 -34q29 2 62.5 48t55.5 145v3l93 -19l-2 -13q-6 -43 -8 -63t-2 -30q0 -14 3 -29.5t14.5 -29t32.5 -26.5l-50 -80q-47 28 -72 70q-33 -42 -66 -55.5t-56 -14.5q-1 -1 -6 -1q-45 0 -80 28q-17 14 -30 32t-20 41q-11 35 -11 73q0 9 1 18z" />
    <glyph glyph-name="adieresis" unicode="&#xe4;" horiz-adv-x="440" 
d="M329 547l8 92l92 -8l-8 -92zM140 639l92 -8l-8 -92l-92 8zM21 192q3 48 21 96t47 86.5t67 64.5q60 44 130 45q77 0 147 -52l-56 -76q-27 19 -50 25.5t-42 6.5q-2 0 -14 -0.5t-29.5 -8t-30.5 -17.5q-27 -19 -47.5 -47t-32.5 -60t-14 -52.5t-2 -28.5q0 -24 7 -45
q10 -34 40 -34q29 2 62.5 48t55.5 145v3l93 -19l-2 -13q-6 -43 -8 -63t-2 -30q0 -14 3 -29.5t14.5 -29t32.5 -26.5l-50 -80q-47 28 -72 70q-33 -42 -66 -55.5t-56 -14.5q-1 -1 -6 -1q-45 0 -80 28q-17 14 -30 32t-20 41q-11 35 -11 73q0 9 1 18z" />
    <glyph glyph-name="ccedilla" unicode="&#xe7;" horiz-adv-x="410" 
d="M11 185q2 28 10 57.5t21 58.5q14 31 34 59.5t45 51.5q51 49 108 69q34 11 65 11q38 0 71 -17l-44 -84q-13 7 -26 7q-3 0 -12.5 -1t-22.5 -6q-39 -14 -75 -49t-56 -80q-20 -43 -22 -66.5t-2 -30.5q0 -28 10 -46q5 -8 14.5 -16t32.5 -10h10q15 0 31.5 5t37 19.5t43.5 38
t52 56.5l71 -63q-27 -30 -55.5 -59.5t-58.5 -50.5q-8 -6 -15.5 -10.5t-15.5 -9.5q16 -5 31 -17q14 -11 20 -25t8 -33v-4q0 -13 -5.5 -30.5t-27.5 -37.5q-23 -19 -51 -30t-51 -16q-29 -6 -46 -6.5t-22 -0.5q-22 0 -40 3l11 77q12 -2 27 -2q4 0 17 0.5t34 5t39.5 12t29.5 16.5
q5 4 5 7q0 1 -2 4.5t-23 6.5q-8 1 -18 1q-6 0 -17.5 -0.5t-33.5 -2.5l-22 56q-38 10 -59.5 29.5t-32.5 39.5q-23 40 -23 96q0 8 1 17z" />
    <glyph glyph-name="eacute" unicode="&#xe9;" horiz-adv-x="449" 
d="M321 704l80 -46l-85 -148l-79 46zM31 192q3 50 26 108q14 34 37 65.5t51 56.5q72 63 149 63q51 0 85.5 -27.5t42.5 -72.5q1 -9 1 -19q0 -23 -10 -50.5t-37 -56.5q-56 -59 -166 -96l-30 90q54 19 83.5 38t43.5 33q21 24 21 42v4q-3 20 -34 20q-26 0 -48.5 -12.5
t-37.5 -26.5q-20 -17 -36.5 -40.5t-26.5 -46.5q-16 -38 -17.5 -58.5t-1.5 -26.5q0 -26 9 -45q13 -27 45 -35q13 -3 21.5 -3.5t9.5 -0.5q15 0 34.5 6.5t44.5 22.5t55 46l67 -67q-32 -31 -61.5 -52.5t-58.5 -33.5q-45 -17 -83 -17q-29 0 -53 7q-75 20 -106 84q-11 23 -15.5 44
t-4.5 41q0 8 1 16z" />
    <glyph glyph-name="edieresis" unicode="&#xeb;" horiz-adv-x="449" 
d="M318 639l92 -8l-8 -92l-92 8zM121 639l92 -8l-8 -92l-92 8zM31 192q3 50 26 108q14 34 37 65.5t51 56.5q72 63 149 63q51 0 85.5 -27.5t42.5 -72.5q1 -9 1 -19q0 -23 -10 -50.5t-37 -56.5q-56 -59 -166 -96l-30 90q54 19 83.5 38t43.5 33q21 24 21 42v4q-3 20 -34 20
q-26 0 -48.5 -12.5t-37.5 -26.5q-20 -17 -36.5 -40.5t-26.5 -46.5q-16 -38 -17.5 -58.5t-1.5 -26.5q0 -26 9 -45q13 -27 45 -35q13 -3 21.5 -3.5t9.5 -0.5q15 0 34.5 6.5t44.5 22.5t55 46l67 -67q-32 -31 -61.5 -52.5t-58.5 -33.5q-45 -17 -83 -17q-29 0 -53 7
q-75 20 -106 84q-11 23 -15.5 44t-4.5 41q0 8 1 16z" />
    <glyph glyph-name="iacute" unicode="&#xed;" horiz-adv-x="263" 
d="M247 658l-85 -148l-79 46l84 148zM139 -3l-94 6l27 473l94 -6z" />
    <glyph glyph-name="icircumflex" unicode="&#xee;" horiz-adv-x="295" 
d="M216 696l63 -156l-85 -31l-32 71l-39 -71l-78 41l86 153zM169 -3l-94 6l27 473l94 -6z" />
    <glyph glyph-name="oacute" unicode="&#xf3;" horiz-adv-x="479" 
d="M321 704l80 -46l-85 -148l-79 46zM229 478q29 9 46 10.5t26 1.5q14 0 30 -2.5t31 -8.5t26 -13q50 -32 66 -98q5 -23 5 -48q0 -41 -13 -88q-18 -66 -46 -111t-61 -73t-67.5 -40.5t-64.5 -12.5q-29 0 -55.5 14.5t-45.5 40.5q-11 16 -20.5 39t-13 49.5t-3.5 50.5
q0 14 1.5 42.5t13.5 83.5l-44 51q97 85 189 112zM164 174q2 -30 8.5 -46.5t10.5 -22.5q10 -15 24 -15q15 0 34.5 7.5t40 26.5t39.5 51t33 82q10 34 10 62q0 15 -3 29q-6 26 -24 38q-13 8 -24 8.5t-12 0.5q-21 0 -45 -8q-30 -10 -61 -27q-21 -65 -26 -105t-5 -65v-16z" />
    <glyph glyph-name="ocircumflex" unicode="&#xf4;" horiz-adv-x="479" 
d="M238 703l85 -7l63 -156l-85 -31l-32 71l-39 -71l-78 41zM229 478q29 9 46 10.5t26 1.5q14 0 30 -2.5t31 -8.5t26 -13q50 -32 66 -98q5 -23 5 -48q0 -41 -13 -88q-18 -66 -46 -111t-61 -73t-67.5 -40.5t-64.5 -12.5q-29 0 -55.5 14.5t-45.5 40.5q-11 16 -20.5 39t-13 49.5
t-3.5 50.5q0 14 1.5 42.5t13.5 83.5l-44 51q97 85 189 112zM164 174q2 -30 8.5 -46.5t10.5 -22.5q10 -15 24 -15q15 0 34.5 7.5t40 26.5t39.5 51t33 82q10 34 10 62q0 15 -3 29q-6 26 -24 38q-13 8 -24 8.5t-12 0.5q-21 0 -45 -8q-30 -10 -61 -27q-21 -65 -26 -105t-5 -65
v-16z" />
    <glyph glyph-name="odieresis" unicode="&#xf6;" horiz-adv-x="479" 
d="M352 639l92 -8l-8 -92l-92 8zM155 639l92 -8l-8 -92l-92 8zM40 366q97 85 189 112q29 9 46 10.5t26 1.5q14 0 30 -2.5t31 -8.5t26 -13q50 -32 66 -98q5 -23 5 -48q0 -41 -13 -88q-18 -66 -46 -111t-61 -73t-67.5 -40.5t-64.5 -12.5q-29 0 -55.5 14.5t-45.5 40.5
q-11 16 -20.5 39t-13 49.5t-3.5 50.5q0 14 1.5 42.5t13.5 83.5zM164 174q2 -30 8.5 -46.5t10.5 -22.5q10 -15 24 -15q15 0 34.5 7.5t40 26.5t39.5 51t33 82q10 34 10 62q0 15 -3 29q-6 26 -24 38q-13 8 -24 8.5t-12 0.5q-21 0 -45 -8q-30 -10 -61 -27q-21 -65 -26 -105
t-5 -65v-16z" />
    <glyph glyph-name="divide" unicode="&#xf7;" horiz-adv-x="664" 
d="M313 566l92 -8l-8 -92l-92 8zM550 420l14 -91l-400 -60l-14 91zM313 225l92 -8l-8 -92l-92 8z" />
    <glyph glyph-name="uacute" unicode="&#xfa;" horiz-adv-x="450" 
d="M210 556l84 148l80 -46l-85 -148zM36 231q1 85 30 219l93 -20q-29 -135 -29 -216q0 -69 21 -99q10 -17 33 -21q7 -2 13 -2q19 0 36 13q13 10 31 36t36 83q30 99 46 262l94 -9q-8 -88 -20.5 -157.5t-29.5 -123.5q-38 -120 -100 -167q-40 -31 -93 -31q-8 0 -15 0.5t-15 1.5
q-62 12 -95 62q-36 54 -36 153v16z" />
    <glyph glyph-name="udieresis" unicode="&#xfc;" horiz-adv-x="450" 
d="M316 639l92 -8l-8 -92l-92 8zM111 547l8 92l92 -8l-8 -92zM36 231q1 85 30 219l93 -20q-29 -135 -29 -216q0 -69 21 -99q10 -17 33 -21q7 -2 13 -2q19 0 36 13q13 10 31 36t36 83q30 99 46 262l94 -9q-8 -88 -20.5 -157.5t-29.5 -123.5q-38 -120 -100 -167
q-40 -31 -93 -31q-8 0 -15 0.5t-15 1.5q-62 12 -95 62q-36 54 -36 153v16z" />
    <glyph glyph-name="yacute" unicode="&#xfd;" horiz-adv-x="448" 
d="M199 556l84 148l80 -46l-85 -148zM78 -27q10 -12 24 -24t31 -21t31.5 -12t23.5 -3q10 0 20 2q29 6 48.5 33t23.5 67q0 5 0.5 10.5t1.5 11.5q-26 -20 -49 -27.5t-41 -8.5h-6q-45 0 -80 28q-36 27 -50 74q-11 36 -11.5 62t-0.5 32q0 39 6 84t18.5 92t28.5 86l88 -36
q-14 -34 -25 -74.5t-16 -80.5q-6 -40 -6 -73q0 -3 0.5 -22t7.5 -43q5 -16 16 -25t23 -9h3q26 1 55 37q14 18 32.5 55.5t32.5 106.5q4 40 8 76t7 63.5t4.5 44t1.5 17.5l94 -10q0 -1 -3 -29t-7 -71.5t-10 -97.5t-11 -107t-10 -99.5t-8 -75.5q-6 -71 -46 -121q-41 -51 -102 -63
q-18 -3 -37 -3q-44 0 -90 20q-27 13 -50.5 31.5t-43.5 41.5z" />
    <glyph glyph-name="dotaccent" unicode="&#x2d9;" horiz-adv-x="300" 
d="M108 639l92 -8l-8 -92l-92 8z" />
    <glyph glyph-name="exclam" unicode="!" horiz-adv-x="507" 
d="M202 647l92 -5l-24 -437l-92 5zM264 141l43 -81l-114 -62l-43 81z" />
    <glyph glyph-name="Agrave" unicode="&#xc0;" horiz-adv-x="545" 
d="M280 855l84 -148l-79 -46l-85 148zM48 -22l-88 44l294 601l100 10l171 -584l-94 -27l-46 158l-257 -38zM180 249l177 26l-62 209z" />
    <glyph glyph-name="ordmasculine" unicode="&#xba;" horiz-adv-x="414" 
d="M50 507l29 34q50 57 105 83q33 16 59 16q4 0 19.5 -1.5t32.5 -9.5q15 -7 32.5 -24t28.5 -51q8 -26 8 -59q0 -25 -5 -54q-20 -121 -88 -166q-29 -20 -62 -20q-10 0 -22 3q-47 10 -72 55q-18 32 -19 55t-1 30q0 33 6 64zM194 356q5 -8 14 -11q6 0 13 5q3 2 9.5 8t13.5 18
t14 31t12 48q4 22 4 38q0 4 -1 15t-4 21q-2 5 -4.5 11t-7.5 8q-3 1 -8 1q-3 0 -11 -1t-23 -9l-6 -17q-21 -63 -22 -88t-1 -32q0 -32 8 -46z" />
    <glyph glyph-name="ograve" unicode="&#xf2;" horiz-adv-x="479" 
d="M205 658l80 46l84 -148l-79 -46zM229 478q29 9 46 10.5t26 1.5q14 0 30 -2.5t31 -8.5t26 -13q50 -32 66 -98q5 -23 5 -48q0 -41 -13 -88q-18 -66 -46 -111t-61 -73t-67.5 -40.5t-64.5 -12.5q-29 0 -55.5 14.5t-45.5 40.5q-11 16 -20.5 39t-13 49.5t-3.5 50.5
q0 14 1.5 42.5t13.5 83.5l-44 51q97 85 189 112zM164 174q2 -30 8.5 -46.5t10.5 -22.5q10 -15 24 -15q15 0 34.5 7.5t40 26.5t39.5 51t33 82q10 34 10 62q0 15 -3 29q-6 26 -24 38q-13 8 -24 8.5t-12 0.5q-21 0 -45 -8q-30 -10 -61 -27q-21 -65 -26 -105t-5 -65v-16z" />
    <glyph glyph-name="otilde" unicode="&#xf5;" horiz-adv-x="483" 
d="M62 591q10 14 23.5 28t30 25.5t36.5 16.5q14 4 28 4q25 0 51 -12q14 -7 26.5 -16.5t23.5 -18.5q16 -14 26.5 -21.5t21.5 -7.5q10 0 19 6.5t17 16.5t14.5 22t11.5 24l72 -33q-10 -22 -20.5 -40t-23.5 -32q-24 -26 -48.5 -34.5t-41.5 -8.5q-33 0 -57 16t-43 32
q-20 17 -29.5 22.5t-18.5 5.5q-4 0 -8 -1q-13 -4 -29 -20t-30 -41l-69 40q7 12 17 27zM40 366q97 85 189 112q29 9 46 10.5t26 1.5q14 0 30 -2.5t31 -8.5t26 -13q50 -32 66 -98q5 -23 5 -48q0 -41 -13 -88q-18 -66 -46 -111t-61 -73t-67.5 -40.5t-64.5 -12.5
q-29 0 -55.5 14.5t-45.5 40.5q-11 16 -20.5 39t-13 49.5t-3.5 50.5q0 14 1.5 42.5t13.5 83.5zM164 174q2 -30 8.5 -46.5t10.5 -22.5q10 -15 24 -15q15 0 34.5 7.5t40 26.5t39.5 51t33 82q10 34 10 62q0 15 -3 29q-6 26 -24 38q-13 8 -24 8.5t-12 0.5q-21 0 -45 -8
q-30 -10 -61 -27q-21 -65 -26 -105t-5 -65v-16z" />
    <glyph glyph-name="ydieresis" unicode="&#xff;" horiz-adv-x="448" 
d="M318 639l92 -8l-8 -92l-92 8zM113 547l8 92l92 -8l-8 -92zM5 -88l73 61q10 -12 24 -24t31 -21t31.5 -12t23.5 -3q10 0 20 2q29 6 48.5 33t23.5 67q0 5 0.5 10.5t1.5 11.5q-26 -20 -49 -27.5t-41 -8.5h-6q-45 0 -80 28q-36 27 -50 74q-11 36 -11.5 62t-0.5 32q0 39 6 84
t18.5 92t28.5 86l88 -36q-14 -34 -25 -74.5t-16 -80.5q-6 -40 -6 -73q0 -3 0.5 -22t7.5 -43q5 -16 16 -25t23 -9h3q26 1 55 37q14 18 32.5 55.5t32.5 106.5q4 40 8 76t7 63.5t4.5 44t1.5 17.5l94 -10q0 -1 -3 -29t-7 -71.5t-10 -97.5t-11 -107t-10 -99.5t-8 -75.5
q-6 -71 -46 -121q-41 -51 -102 -63q-18 -3 -37 -3q-44 0 -90 20q-27 13 -50.5 31.5t-43.5 41.5z" />
    <glyph glyph-name="ucircumflex" unicode="&#xfb;" horiz-adv-x="470" 
d="M59 591q10 14 23.5 28t30 25.5t36.5 16.5q14 4 28 4q25 0 51 -12q14 -7 26.5 -16.5t23.5 -18.5q16 -14 26.5 -21.5t21.5 -7.5q10 0 19 6.5t17 16.5t14.5 22t11.5 24l72 -33q-10 -22 -20.5 -40t-23.5 -32q-24 -26 -48.5 -34.5t-41.5 -8.5q-33 0 -57 16t-43 32
q-20 17 -29.5 22.5t-18.5 5.5q-4 0 -8 -1q-13 -4 -29 -20t-30 -41l-69 40q7 12 17 27zM36 231q1 85 30 219l93 -20q-29 -135 -29 -216q0 -69 21 -99q10 -17 33 -21q7 -2 13 -2q19 0 36 13q13 10 31 36t36 83q30 99 46 262l94 -9q-8 -88 -20.5 -157.5t-29.5 -123.5
q-38 -120 -100 -167q-40 -31 -93 -31q-8 0 -15 0.5t-15 1.5q-62 12 -95 62q-36 54 -36 153v16z" />
    <glyph glyph-name="uni03A9" unicode="&#x3a9;" horiz-adv-x="988" 
d="M30 82l139 19q-24 18 -36 51t-13 55.5t-1 28.5q0 33 7.5 70t24.5 68q23 43 56.5 82t73.5 72q42 33 88 58t95 39q63 19 125 19q40 0 79 -8q86 -20 146 -72q27 -26 47 -57.5t30 -67.5q12 -41 12 -85q0 -54 -19 -112q-8 -26 -20.5 -51.5t-28.5 -51.5l111 17l12 -85l-221 -33
l-36 74q72 69 94 132.5t22 108.5q0 32 -8 62q-15 54 -55.5 88t-103.5 48q-31 6 -63 6q-46 0 -112 -18.5t-139 -77.5q-23 -19 -47 -45.5t-43.5 -57.5t-30.5 -62.5t-11 -61.5q0 -4 1 -22.5t18.5 -50.5t57.5 -59l-24 -73l-215 -32z" />
    <glyph glyph-name="Atilde" unicode="&#xc3;" horiz-adv-x="545" 
d="M107 761q10 14 23.5 28t30 25.5t36.5 16.5q14 4 28 4q25 0 51 -12q14 -7 26.5 -16.5t23.5 -18.5q16 -14 26.5 -21.5t21.5 -7.5q10 0 19 6.5t17 16.5t14.5 22t11.5 24l72 -33q-10 -22 -20.5 -40t-23.5 -32q-24 -26 -48.5 -34.5t-41.5 -8.5q-33 0 -57 16t-43 32
q-20 17 -29.5 22.5t-18.5 5.5q-4 0 -8 -1q-13 -4 -29 -20t-30 -41l-69 40q7 12 17 27zM254 623l100 10l171 -584l-94 -27l-46 158l-257 -38l-80 -164l-88 44zM180 249l177 26l-62 209z" />
    <glyph glyph-name="atilde" unicode="&#xe3;" horiz-adv-x="504" 
d="M96 591q10 14 23.5 28t30 25.5t36.5 16.5q14 4 28 4q25 0 51 -12q14 -7 26.5 -16.5t23.5 -18.5q16 -14 26.5 -21.5t21.5 -7.5q10 0 19 6.5t17 16.5t14.5 22t11.5 24l72 -33q-10 -22 -20.5 -40t-23.5 -32q-24 -26 -48.5 -34.5t-41.5 -8.5q-33 0 -57 16t-43 32
q-20 17 -29.5 22.5t-18.5 5.5q-4 0 -8 -1q-13 -4 -29 -20t-30 -41l-69 40q7 12 17 27zM21 192q3 48 21 96t47 86.5t67 64.5q60 44 130 45q77 0 147 -52l-56 -76q-27 19 -50 25.5t-42 6.5q-2 0 -14 -0.5t-29.5 -8t-30.5 -17.5q-27 -19 -47.5 -47t-32.5 -60t-14 -52.5
t-2 -28.5q0 -24 7 -45q10 -34 40 -34q29 2 62.5 48t55.5 145v3l93 -19l-2 -13q-6 -43 -8 -63t-2 -30q0 -14 3 -29.5t14.5 -29t32.5 -26.5l-50 -80q-47 28 -72 70q-33 -42 -66 -55.5t-56 -14.5q-1 -1 -6 -1q-45 0 -80 28q-17 14 -30 32t-20 41q-11 35 -11 73q0 9 1 18z" />
    <glyph glyph-name="Egrave" unicode="&#xc8;" horiz-adv-x="491" 
d="M238 855l84 -148l-79 -46l-85 148zM137 0l-92 84l38 472l365 89l23 -95l-296 -72l-14 -178l233 53l22 -95l-264 -61l-7 -96l212 42l18 -97z" />
    <glyph glyph-name="florin" unicode="&#x192;" horiz-adv-x="643" 
d="M171 -7q14 -17 27.5 -32t23.5 -23t17 -8q1 0 5 0.5t6 15.5l3 31l25 352l-88 -14l-15 94l110 17l6 84q2 33 4.5 62t7.5 52q6 32 16 49q10 19 22.5 27.5t22.5 12.5q12 4 25 4q12 0 25 -4q19 -6 41 -22q19 -13 40.5 -34.5t47.5 -51.5l-71 -62q-14 16 -27.5 31t-23.5 23.5
t-17 8.5q-1 0 -5 -0.5t-6 -15.5q-2 -18 -3.5 -40t-3.5 -47l-5 -63l94 15l15 -94l-116 -18l-10 -136h1l-13 -181q-2 -33 -4.5 -62t-7.5 -52q-4 -29 -15 -49q-11 -19 -23.5 -28t-22.5 -12q-12 -4 -24 -4q-13 0 -26 4q-19 7 -41 22q-19 13 -40.5 34.5t-47.5 51.5z" />
    <glyph glyph-name="yen" unicode="&#xa5;" horiz-adv-x="605" 
d="M209 272l-159 258l83 52l133 -216l212 278l77 -61l-225 -293l86 13l11 -69l-122 -18l-4 -54l115 17l11 -69l-132 -20l-7 -92l-98 8l5 69l-91 -13l-11 69l108 16l4 54l-101 -15l-11 69z" />
    <glyph glyph-name="tilde" unicode="&#x2dc;" horiz-adv-x="618" 
d="M100 564q7 12 17 26.5t23.5 28.5t30 25.5t36.5 16.5q14 4 28 4q25 0 51 -12q14 -7 26.5 -16.5t23.5 -18.5q16 -14 26.5 -21.5t21.5 -7.5q10 0 19 6.5t17 16.5t14.5 22t11.5 24l72 -33q-10 -22 -20.5 -40t-23.5 -32q-24 -26 -48.5 -34.5t-41.5 -8.5q-33 0 -57 16t-43 32
q-20 17 -29.5 22.5t-18.5 5.5q-4 0 -8 -1q-13 -4 -29 -20t-30 -41z" />
    <glyph glyph-name="uni02C9" unicode="&#x2c9;" horiz-adv-x="513" 
d="M400 642l13 -91l-300 -45l-13 91z" />
    <glyph glyph-name="egrave" unicode="&#xe8;" horiz-adv-x="449" 
d="M252 704l84 -148l-79 -46l-85 148zM31 192q3 50 26 108q14 34 37 65.5t51 56.5q72 63 149 63q51 0 85.5 -27.5t42.5 -72.5q1 -9 1 -19q0 -23 -10 -50.5t-37 -56.5q-56 -59 -166 -96l-30 90q54 19 83.5 38t43.5 33q21 24 21 42v4q-3 20 -34 20q-26 0 -48.5 -12.5
t-37.5 -26.5q-20 -17 -36.5 -40.5t-26.5 -46.5q-16 -38 -17.5 -58.5t-1.5 -26.5q0 -26 9 -45q13 -27 45 -35q13 -3 21.5 -3.5t9.5 -0.5q15 0 34.5 6.5t44.5 22.5t55 46l67 -67q-32 -31 -61.5 -52.5t-58.5 -33.5q-45 -17 -83 -17q-29 0 -53 7q-75 20 -106 84q-11 23 -15.5 44
t-4.5 41q0 8 1 16z" />
    <glyph glyph-name="ntilde" unicode="&#xf1;" horiz-adv-x="501" 
d="M58 564q7 12 17 26.5t23.5 28.5t30 25.5t36.5 16.5q14 4 28 4q25 0 51 -12q14 -7 26.5 -16.5t23.5 -18.5q16 -14 26.5 -21.5t21.5 -7.5q10 0 19 6.5t17 16.5t14.5 22t11.5 24l72 -33q-10 -22 -20.5 -40t-23.5 -32q-24 -26 -48.5 -34.5t-41.5 -8.5q-33 0 -57 16t-43 32
q-20 17 -29.5 22.5t-18.5 5.5q-4 0 -8 -1q-13 -4 -29 -20t-30 -41zM67 490l95 -7l-15 -190q26 57 57.5 102.5t69.5 71.5q32 23 45 23.5t15 0.5q21 0 35 -6q15 -6 32 -22.5t26 -52.5q5 -25 5 -53q0 -21 -3 -45q-3 -23 -6 -54t-6 -64l-7 -67q-4 -34 -6.5 -60t-3.5 -43l-2 -17
l-95 9q0 1 1.5 17.5t4 43t6 59.5t7 67t7 65.5t6.5 54.5q1 9 1 17q0 27 -7.5 28.5t-8.5 1.5q-19 0 -54 -46q-10 -13 -24 -37t-29 -54.5t-30.5 -64t-28 -65t-20.5 -59t-9 -44.5l-95 6z" />
    <glyph glyph-name="ecircumflex" unicode="&#xea;" horiz-adv-x="449" 
d="M167 550l86 153l85 -7l63 -156l-85 -31l-32 71l-39 -71zM31 192q3 50 26 108q14 34 37 65.5t51 56.5q72 63 149 63q51 0 85.5 -27.5t42.5 -72.5q1 -9 1 -19q0 -23 -10 -50.5t-37 -56.5q-56 -59 -166 -96l-30 90q54 19 83.5 38t43.5 33q21 24 21 42v4q-3 20 -34 20
q-26 0 -48.5 -12.5t-37.5 -26.5q-20 -17 -36.5 -40.5t-26.5 -46.5q-16 -38 -17.5 -58.5t-1.5 -26.5q0 -26 9 -45q13 -27 45 -35q13 -3 21.5 -3.5t9.5 -0.5q15 0 34.5 6.5t44.5 22.5t55 46l67 -67q-32 -31 -61.5 -52.5t-58.5 -33.5q-45 -17 -83 -17q-29 0 -53 7
q-75 20 -106 84q-11 23 -15.5 44t-4.5 41q0 8 1 16z" />
    <glyph glyph-name="twosuperior" unicode="&#xb2;" horiz-adv-x="337" 
d="M217 643q21 -5 38.5 -18t26.5 -35q4 -12 4 -26q0 -12 -4.5 -35t-20.5 -56t-38 -61.5t-45 -42.5l57 10l15 -88l-170 -28l-28 84q6 3 17 11.5t24.5 22t28.5 30.5t29 37q19 24 29.5 42.5t15 31.5t5 18t1.5 8q-1 2 -1 3q-2 2 -2 3l-1 1h-6q-5 0 -15 -4q-11 -3 -28 -13
t-42 -30l-57 70q83 67 144 67q12 0 23 -2z" />
    <glyph glyph-name="ring" unicode="&#x2da;" horiz-adv-x="514" 
d="M109 587q17 45 58 77q26 20 56 30.5t60 10.5q64 0 101 -40q16 -17 22.5 -37t6.5 -39v-10q-3 -35 -20.5 -64.5t-46.5 -52.5q-26 -20 -57 -31t-62 -11q-43 0 -75 22q-32 23 -45 59q-7 20 -7 40q0 23 9 46zM188 528q8 -23 39 -23q17 0 34 6t31.5 17t24 26t11.5 32v5
q0 5 -2 9.5t-4 6.5q-13 13 -39 13q-32 0 -64 -23q-24 -19 -28.5 -33.5t-4.5 -23.5q0 -7 2 -12z" />
    <glyph glyph-name="Ucircumflex" unicode="&#xdb;" horiz-adv-x="546" 
d="M193 702l86 153l85 -7l63 -156l-85 -31l-32 71l-39 -71zM24 304q10 112 59 276l94 -29q-23 -76 -37 -140t-19 -116q-3 -29 -3 -53q0 -69 23 -105q18 -32 55 -39q13 -3 25 -3q36 0 66 27q29 26 51.5 75t38.5 118q7 30 12.5 62t11 70.5t11 86t12.5 109.5l97 -11
q-7 -63 -13 -112t-11.5 -88.5t-11.5 -72.5t-13 -65q-38 -170 -119 -244q-40 -36 -88 -48q-28 -5 -45 -5t-45 5q-43 11 -70 31q-30 21 -49 54q-35 61 -35 158q0 28 3 59z" />
    <glyph glyph-name="onehalf" unicode="&#xbd;" horiz-adv-x="699" 
d="M433 662l80 -46l-361 -630l-79 46zM85 643l89 -9l-35 -369l-89 8zM579 380q21 -5 38.5 -18t26.5 -35q4 -12 4 -26q0 -12 -4.5 -35t-20.5 -56t-38 -61.5t-45 -42.5l57 10l15 -88l-170 -28l-28 84q6 3 17 11.5t24.5 22t28.5 30.5t29 37q19 24 29.5 42.5t15 31.5t5 18t1.5 8
q-1 2 -1 3q-2 2 -2 3l-1 1h-6q-5 0 -15 -4q-11 -3 -28 -13t-42 -30l-57 70q83 67 144 67q12 0 23 -2z" />
    <glyph glyph-name="Thorn" unicode="&#xde;" horiz-adv-x="719" 
d="M100 -174l76 817l95 -9l-12 -130q37 17 76 29.5t79 17.5q14 1 28 1q69 0 114 -35q52 -40 61 -114q2 -15 2 -30q0 -19 -4 -48t-18 -71q-25 -78 -80 -149q-27 -38 -60 -69.5t-69 -56.5q-83 -56 -173 -70l-12 -2l-8 -89zM334 58q59 40 107 103q45 58 64 114t19 97
q0 10 -1 19q-5 35 -25 51q-15 12 -31 13.5t-26 1.5q-9 0 -18 -1q-43 -5 -88 -23.5t-87 -38.5l-36 -389q63 12 122 53z" />
    <glyph glyph-name="Idieresis" unicode="&#xcf;" horiz-adv-x="397" 
d="M63 819l92 -8l-8 -92l-92 8zM260 819l92 -8l-8 -92l-92 8zM183 0l-98 9l60 639l98 -9z" />
    <glyph glyph-name="Ecircumflex" unicode="&#xca;" horiz-adv-x="491" 
d="M345 848l63 -156l-85 -31l-32 71l-39 -71l-78 41l86 153zM137 0l-92 84l38 472l365 89l23 -95l-296 -72l-14 -178l233 53l22 -95l-264 -61l-7 -96l212 42l18 -97z" />
    <glyph glyph-name="threequarters" unicode="&#xbe;" horiz-adv-x="779" 
d="M513 662l80 -46l-361 -630l-79 46zM50 579q54 39 109 56q29 9 51 9q6 0 12 -1q41 -3 65 -29q27 -28 27 -63q0 -15 -5 -31q-6 -20 -24.5 -38t-35.5 -29q28 -22 30.5 -40.5t2.5 -24.5q0 -22 -11 -41q-23 -41 -70 -63q-45 -22 -111 -22v90q42 0 68 12t34 26q1 1 1.5 3l0.5 2
q0 2 -2 3t-6 1q-3 0 -10.5 -1t-28.5 -8l-17 85q16 6 35 16.5t35 24.5t20 23t4 11l-2 2q-1 1 -6 1.5t-6 0.5q-9 0 -25 -5q-19 -6 -40.5 -17.5t-41.5 -25.5zM414 135l105 238l70 -30l4 40l89 -8l-16 -175l47 9l16 -89l-72 -13l-11 -116l-89 9l8 91l-101 -18zM574 184l11 115
l-54 -123z" />
    <glyph glyph-name="ugrave" unicode="&#xf9;" horiz-adv-x="450" 
d="M240 704l84 -148l-79 -46l-85 148zM36 231q1 85 30 219l93 -20q-29 -135 -29 -216q0 -69 21 -99q10 -17 33 -21q7 -2 13 -2q19 0 36 13q13 10 31 36t36 83q30 99 46 262l94 -9q-8 -88 -20.5 -157.5t-29.5 -123.5q-38 -120 -100 -167q-40 -31 -93 -31q-8 0 -15 0.5
t-15 1.5q-62 12 -95 62q-36 54 -36 153v16z" />
    <glyph glyph-name="sterling" unicode="&#xa3;" horiz-adv-x="570" 
d="M55 473q11 50 41.5 85.5t71.5 56.5t76.5 26t58.5 6q23 -1 46 -4q72 -10 118 -50q52 -45 52 -110v-11l-95 6v2q0 23 -19 41q-25 22 -70 28q-16 3 -33 3q-15 0 -38 -3.5t-49 -16.5q-55 -28 -67 -80q-2 -10 -2 -20q0 -28 19 -56q13 -20 32 -38.5t39 -36.5q3 -2 12 -11
q6 -5 10.5 -10.5t9.5 -10.5l89 13l13 -91l-87 -13q-10 -32 -34.5 -60.5t-50.5 -52.5q5 0 11 0.5t12 1.5q42 4 102 12t141 22l15 -94q-100 -17 -168.5 -26t-113.5 -11q-10 -1 -19 -1.5t-17 -0.5q-11 0 -19 0.5t-16 1.5q-44 7 -60 37q-6 13 -6 25q0 13 6 26q2 5 6 11.5
t11 14.5q8 10 18.5 20t21.5 21l37 35l-90 -13l-13 91l92 14q-36 31 -64 71q-35 53 -35 109q0 20 5 41z" />
    <glyph glyph-name="Eth" unicode="&#xd0;" horiz-adv-x="591" 
d="M37 329l107 20l9 106l-9 -6l-47 87q69 37 138.5 69t138.5 39q16 2 30 2q69 0 113 -35q53 -42 62 -116q2 -15 2 -30q0 -20 -4 -49.5t-18 -69.5q-25 -78 -80 -150q-28 -38 -61 -70t-69 -56q-32 -23 -65.5 -42t-68.5 -28q-9 9 -27 25.5t-35 31.5l-6 5v1l-2 2q-2 0 -2 2h-1
l-12 11q-1 1 -2 1l-1 2q-1 0 -1 1h-1v1l-1 1l14 170l-87 -16zM223 104q47 20 94 60.5t84 89.5q43 58 62.5 113t19.5 95q0 11 -1 21q-2 13 -6.5 25.5t-15 22t-25 13.5t-30.5 4q-10 0 -21 -1q-30 -3 -62 -14t-66 -27l-11 -137l116 22l14 -91l-138 -27z" />
    <glyph glyph-name="Igrave" unicode="&#xcc;" horiz-adv-x="268" 
d="M139 855l84 -148l-79 -46l-85 148zM153 0l-98 9l60 639l98 -9z" />
    <glyph glyph-name="AE" unicode="&#xc6;" horiz-adv-x="668" 
d="M355 63l-92 84l1 15l-136 -20l-80 -164l-88 44l285 584l380 92l23 -95l-255 -62l-14 -178l192 43l22 -95l-223 -51l-7 -96l171 32l18 -97zM175 247l97 14l18 221z" />
    <glyph glyph-name="oe" unicode="&#x153;" horiz-adv-x="763" 
d="M40 366q97 85 189 112q29 9 46 10.5t26 1.5q14 0 30 -2.5t31 -8.5t26 -13q33 -22 53 -61l18 17q72 63 149 63q51 0 85.5 -27.5t42.5 -72.5q1 -9 1 -19q0 -23 -10 -50.5t-37 -56.5q-56 -59 -166 -96l-30 90q54 19 83.5 38t43.5 33q21 24 21 42v4q-3 20 -34 20
q-26 0 -48.5 -12.5t-37.5 -26.5q-20 -17 -36.5 -40.5t-26.5 -46.5q-16 -38 -17.5 -58.5t-1.5 -26.5q0 -26 9 -45q13 -27 45 -35q13 -3 21.5 -3.5t9.5 -0.5q15 0 34.5 6.5t44.5 22.5t55 46l67 -67q-32 -31 -61.5 -52.5t-58.5 -33.5q-45 -17 -83 -17q-29 0 -53 7
q-69 18 -100 72q-38 -45 -81.5 -64.5t-81.5 -19.5q-29 0 -55.5 14.5t-45.5 40.5q-11 16 -20.5 39t-13 49.5t-3.5 50.5q0 14 1.5 42.5t13.5 83.5zM164 174q2 -30 8.5 -46.5t10.5 -22.5q10 -15 24 -15q15 0 34.5 7.5t40 26.5t39.5 51t33 82q10 34 10 62q0 15 -3 29
q-6 26 -24 38q-13 8 -24 8.5t-12 0.5q-21 0 -45 -8q-30 -10 -61 -27q-21 -65 -26 -105t-5 -65v-16z" />
    <glyph glyph-name="ae" unicode="&#xe6;" horiz-adv-x="676" 
d="M436 0q-42 0 -82.5 17t-64.5 53q-18 -23 -42.5 -40.5t-53.5 -24.5q-12 -4 -26 -4q-1 -1 -6 -1q-48 0 -82 29t-48 72q-11 34 -11 73q0 9 1 18q3 52 24 104t56 93t82 67.5t103 27.5q62 0 121 -35q56 36 114 36q48 0 84 -25.5t44 -74.5q1 -10 1 -19q0 -23 -8 -45
q-11 -31 -33.5 -56t-51 -44.5t-60 -33.5t-60.5 -24l-30 90q34 12 67.5 28.5t59.5 42.5q21 24 21 42v4q-3 20 -34 20q-32 0 -61.5 -19.5t-52.5 -49t-37 -64.5t-16 -65q-1 -7 -1 -14q0 -25 9 -44q11 -23 31 -30.5t43 -7.5h4q15 0 32 6q29 9 54.5 28.5t45.5 39.5l67 -67
q-20 -20 -43 -38.5t-48.5 -33t-53.5 -23t-58 -8.5zM261 218q2 17 7 35t12 37v1l4 9q17 42 48 80q-27 9 -49 9q-11 0 -20 -2q-31 -7 -57 -27.5t-45 -48t-30.5 -59.5t-14.5 -62q-1 -8 -1 -16q0 -24 7 -45q10 -34 40 -34q18 1 34 15t28.5 33t22 39.5t14.5 35.5z" />
    <glyph glyph-name="thorn" unicode="&#xfe;" horiz-adv-x="633" 
d="M176 643l91 -8l-14 -156q24 10 49 17t50 9q13 1 26 1q59 0 99 -31q45 -35 54 -101q1 -12 1 -24q0 -48 -18 -103q-11 -32 -28 -64.5t-39 -61.5q-49 -66 -110 -106q-63 -44 -133 -57l-13 -140l-91 8zM307 114q42 36 71.5 79.5t42.5 83.5t13 69q0 8 -1 16q-1 10 -4.5 19
t-11 15.5t-18.5 9t-21 2.5q-8 0 -16 -1q-29 -2 -60 -14t-60 -26l-28 -306q51 17 93 53z" />
    <glyph glyph-name="aring" unicode="&#xe5;" horiz-adv-x="447" 
d="M21 192q3 48 21 96t47 86.5t67 64.5l13 9q-12 11 -21.5 23.5t-14.5 29.5q-7 20 -7 40q0 23 9 46q17 45 58 77q26 20 56 30.5t60 10.5q64 0 101 -40q16 -17 22.5 -37t6.5 -39v-10q-3 -34 -19.5 -62.5t-43.5 -51.5q28 -12 57 -33l-56 -76q-27 19 -50 25.5t-42 6.5
q-2 0 -14 -0.5t-29.5 -8t-30.5 -17.5q-27 -19 -47.5 -47t-32.5 -60t-14 -52.5t-2 -28.5q0 -24 7 -45q10 -34 40 -34q29 2 62.5 48t55.5 145v3l93 -19l-2 -13q-6 -43 -8 -63t-2 -30q0 -14 3 -29.5t14.5 -29t32.5 -26.5l-50 -80q-47 28 -72 70q-33 -42 -66 -55.5t-56 -14.5
q-1 -1 -6 -1q-45 0 -80 28q-17 14 -30 32t-20 41q-11 35 -11 73q0 9 1 18zM214 528q8 -23 39 -23q17 0 34 6t31.5 17t24 26t11.5 32v5q0 5 -2 9.5t-4 6.5q-13 13 -39 13q-32 0 -64 -23q-24 -19 -28.5 -33.5t-4.5 -23.5q0 -7 2 -12z" />
    <glyph glyph-name="uni2010" unicode="&#x2010;" horiz-adv-x="513" 
d="M400 380l13 -91l-300 -45l-13 91z" />
    <glyph glyph-name="Otilde" unicode="&#xd5;" horiz-adv-x="572" 
d="M107 761q10 14 23.5 28t30 25.5t36.5 16.5q14 4 28 4q25 0 51 -12q14 -7 26.5 -16.5t23.5 -18.5q16 -14 26.5 -21.5t21.5 -7.5q10 0 19 6.5t17 16.5t14.5 22t11.5 24l72 -33q-10 -22 -20.5 -40t-23.5 -32q-24 -26 -48.5 -34.5t-41.5 -8.5q-33 0 -57 16t-43 32
q-20 17 -29.5 22.5t-18.5 5.5q-4 0 -8 -1q-13 -4 -29 -20t-30 -41l-69 40q7 12 17 27zM234 624q56 22 106 22q49 0 91 -22q69 -38 93 -120q13 -43 13 -94q0 -45 -10 -97q-18 -101 -60 -173q-39 -71 -95 -107q-53 -36 -111 -36q-19 0 -35 3q-89 18 -130 95q-32 57 -32 144
q0 25 3 53q3 26 8.5 54.5t13.5 58.5l-69 69q108 110 214 150zM182 142q19 -37 64 -46q7 -1 14 -1q28 0 57 19q12 8 27.5 23t31.5 40.5t30.5 63t24.5 90.5q8 44 8 79q0 38 -9 66q-12 44 -45 61q-19 10 -46 10q-3 0 -19 -0.5t-51 -14.5q-10 -4 -19.5 -8t-19.5 -9l-17 -45
q-41 -105 -46 -159t-5 -72q0 -60 20 -97z" />
    <glyph glyph-name="dotlessi" unicode="&#x131;" horiz-adv-x="337" 
d="M237 476l-45 -476l-92 8l45 478z" />
    <glyph glyph-name="Aring" unicode="&#xc5;" horiz-adv-x="545" 
d="M-40 22l271 553q-20 6 -35 17q-32 23 -45 59q-7 20 -7 40q0 23 9 46q17 45 58 77q26 20 56 30.5t60 10.5q64 0 101 -40q16 -17 22.5 -37t6.5 -39v-10q-3 -35 -20.5 -64.5t-46.5 -52.5l-25 -17l160 -546l-94 -27l-46 158l-257 -38l-80 -164zM232 678q8 -23 39 -23
q17 0 34 6t31.5 17t24 26t11.5 32v5q0 5 -2 9.5t-4 6.5q-13 13 -39 13q-32 0 -64 -23q-24 -19 -28.5 -33.5t-4.5 -23.5q0 -7 2 -12zM357 275l-62 209l-115 -235z" />
    <glyph glyph-name="circumflex" unicode="&#x2c6;" horiz-adv-x="434" 
d="M271 696l63 -156l-85 -31l-32 71l-39 -71l-78 41l86 153z" />
    <glyph glyph-name="uni0394" unicode="&#x394;" horiz-adv-x="682" 
d="M582 158l-57 -102l-369 -56l-56 84l261 534l91 -8zM393 460l-172 -351l261 40z" />
    <glyph glyph-name="Ydieresis" unicode="&#x178;" horiz-adv-x="470" 
d="M108 819l92 -8l-8 -92l-92 8zM305 819l92 -8l-8 -92l-92 8zM433 644l77 -61l-246 -321l-21 -264l-98 8l21 263l-161 261l83 52l133 -216z" />
    <glyph glyph-name="onesuperior" unicode="&#xb9;" horiz-adv-x="224" 
d="M139 265l-89 8l35 370l89 -9z" />
    <glyph glyph-name="Ntilde" unicode="&#xd1;" horiz-adv-x="579" 
d="M111 761q10 14 23.5 28t30 25.5t36.5 16.5q14 4 28 4q25 0 51 -12q14 -7 26.5 -16.5t23.5 -18.5q16 -14 26.5 -21.5t21.5 -7.5q10 0 19 6.5t17 16.5t14.5 22t11.5 24l72 -33q-10 -22 -20.5 -40t-23.5 -32q-24 -26 -48.5 -34.5t-41.5 -8.5q-33 0 -57 16t-43 32
q-20 17 -29.5 22.5t-18.5 5.5q-4 0 -8 -1q-13 -4 -29 -20t-30 -41l-69 40q7 12 17 27zM92 593l88 43l201 -420l76 429l97 -17l-104 -579l-92 -13l-182 381l-34 -419l-97 8z" />
    <glyph glyph-name="questiondown" unicode="&#xbf;" horiz-adv-x="639" 
d="M317 471l44 -81l-114 -62l-44 81zM131 92q22 48 52.5 93t56.5 79q7 0 20.5 -1t28 -1.5t26.5 -1.5t17 -1q-25 -34 -45 -66t-37 -63q-15 -26 -27.5 -53t-20.5 -51.5t-9 -37t-1 -16.5q0 -15 5 -25q8 -16 16 -21.5t16 -7.5q6 -1 14 -1q25 0 61 15q57 25 126 82l59 -71
q-145 -119 -246 -119q-18 0 -34 4q-63 15 -95 78q-14 28 -14 63q0 53 31 123z" />
    <glyph glyph-name="uni03BC" unicode="&#x3bc;" horiz-adv-x="641" 
d="M91 259q0 21 3 45q10 112 59 276l94 -29q-23 -76 -37 -140t-19 -116q-3 -29 -3 -53q0 -69 23 -105q18 -32 55 -39q13 -3 25 -3q36 0 66 27q29 26 51.5 75t38.5 118q7 30 12.5 62t11 70.5t11 86t12.5 109.5l97 -11q-7 -63 -13 -112t-11.5 -88.5t-11.5 -72.5t-13 -65
q-38 -170 -119 -244q-40 -36 -88 -48q-28 -5 -45 -5t-45 5q-43 11 -70 31q-3 2 -6.5 4t-6.5 5l-20 -223l-92 8z" />
    <glyph glyph-name="ordfeminine" unicode="&#xaa;" horiz-adv-x="421" 
d="M50 417q2 37 16 74q14 36 36.5 66.5t51.5 50.5q47 34 102 35q63 0 115 -40l-53 -73q-31 23 -60 23q-27 0 -52 -18q-18 -13 -32.5 -33t-23 -42t-9.5 -36.5t-1 -19.5q0 -17 4 -31q2 -7 6.5 -12.5t11.5 -5.5h2q6 0 16 6.5t21 22t22 42t20 66.5l88 -15v-3l-1 -6v-3
q-5 -32 -6 -45.5t-1 -20.5q0 -11 2 -21t9 -18t21 -17l-48 -77q-31 19 -49 45q-26 -29 -50.5 -37t-39.5 -9h-4q-37 0 -66 22t-40 59q-8 28 -8 58v13z" />
    <glyph glyph-name="Oslash" unicode="&#xd8;" horiz-adv-x="572" 
d="M234 624q18 7 35 11.5t34 7.5l23 143l90 -16l-21 -132l18 -6q9 -3 18 -8q69 -38 93 -120q13 -43 13 -94q0 -45 -10 -97q-18 -101 -60 -173q-39 -71 -95 -107q-19 -13 -38.5 -21.5t-39.5 -11.5l-19 -119l-91 15l17 110q-70 22 -105 89q-32 57 -32 144q0 25 3 53
q3 26 8.5 54.5t13.5 58.5l-69 69q108 110 214 150zM317 114q12 8 27.5 23t31.5 40.5t30.5 63t24.5 90.5q8 44 8 79q0 38 -9 66q-12 44 -45 61l-6 2l-68 -429zM182 142q12 -25 35 -37l69 433l-17 -6q-10 -4 -19.5 -8t-19.5 -9l-17 -45q-41 -105 -46 -159t-5 -72q0 -60 20 -97
z" />
    <glyph glyph-name="Ugrave" unicode="&#xd9;" horiz-adv-x="546" 
d="M266 855l84 -148l-79 -46l-85 148zM24 304q10 112 59 276l94 -29q-23 -76 -37 -140t-19 -116q-3 -29 -3 -53q0 -69 23 -105q18 -32 55 -39q13 -3 25 -3q36 0 66 27q29 26 51.5 75t38.5 118q7 30 12.5 62t11 70.5t11 86t12.5 109.5l97 -11q-7 -63 -13 -112t-11.5 -88.5
t-11.5 -72.5t-13 -65q-38 -170 -119 -244q-40 -36 -88 -48q-28 -5 -45 -5t-45 5q-43 11 -70 31q-30 21 -49 54q-35 61 -35 158q0 28 3 59z" />
    <glyph glyph-name="pi" unicode="&#x3c0;" horiz-adv-x="765" 
d="M197 360l-83 -13l-14 91l551 85l14 -91l-82 -13l-35 -387l-92 8l34 365l-199 -31l-34 -372l-92 8z" />
    <glyph glyph-name="oslash" unicode="&#xf8;" horiz-adv-x="479" 
d="M229 478l23 6l21 129l90 -16l-18 -113q27 -8 43 -18q50 -32 66 -98q5 -23 5 -48q0 -41 -13 -88q-14 -50 -34 -88t-43 -65.5t-49 -45.5t-51 -27l-20 -125l-91 15l16 104q-40 11 -68 50q-11 16 -20.5 39t-13 49.5t-3.5 50.5q0 14 1.5 42.5t13.5 83.5l-44 51q97 85 189 112z
M289 131q18 20 35 50.5t30 75.5q10 34 10 62q0 15 -3 29q-6 26 -24 38l-7 4zM164 174q2 -30 8.5 -46.5t10.5 -22.5q3 -7 7 -9l45 283q-10 -4 -20 -9l-20 -10q-21 -65 -26 -105t-5 -65v-16z" />
    <glyph glyph-name="OE" unicode="&#x152;" horiz-adv-x="861" 
d="M234 624q56 22 106 22q49 0 91 -22q41 -24 64 -58l323 79l23 -95l-296 -72l-14 -178l233 53l22 -95l-264 -61l-7 -96l212 42l18 -97l-238 -46l-84 77q-22 -25 -51 -44q-53 -36 -111 -36q-19 0 -35 3q-89 18 -130 95q-32 57 -32 144q0 25 3 53q3 26 8.5 54.5t13.5 58.5
l-69 69q108 110 214 150zM182 142q19 -37 64 -46q7 -1 14 -1q28 0 57 19q12 8 27.5 23t31.5 40.5t30.5 63t24.5 90.5q8 44 8 79q0 38 -9 66q-12 44 -45 61q-19 10 -46 10q-3 0 -19 -0.5t-51 -14.5q-10 -4 -19.5 -8t-19.5 -9l-17 -45q-41 -105 -46 -159t-5 -72q0 -60 20 -97z
" />
    <glyph glyph-name="threesuperior" unicode="&#xb3;" horiz-adv-x="364" 
d="M159 635q29 9 51 9q6 0 12 -1q41 -3 65 -29q27 -28 27 -63q0 -15 -5 -31q-6 -20 -24.5 -38t-35.5 -29q28 -22 30.5 -40.5t2.5 -24.5q0 -22 -11 -41q-23 -41 -70 -63q-45 -22 -111 -22v90q42 0 68 12t34 26q1 1 1.5 3l0.5 2q0 2 -2 3t-6 1q-3 0 -10.5 -1t-28.5 -8l-17 85
q16 6 35 16.5t35 24.5t20 23t4 11l-2 2q-1 1 -6 1.5t-6 0.5q-9 0 -25 -5q-19 -6 -40.5 -17.5t-41.5 -25.5l-53 73q54 39 109 56z" />
    <glyph glyph-name="Ograve" unicode="&#xd2;" horiz-adv-x="572" 
d="M280 855l84 -148l-79 -46l-85 148zM234 624q56 22 106 22q49 0 91 -22q69 -38 93 -120q13 -43 13 -94q0 -45 -10 -97q-18 -101 -60 -173q-39 -71 -95 -107q-53 -36 -111 -36q-19 0 -35 3q-89 18 -130 95q-32 57 -32 144q0 25 3 53q3 26 8.5 54.5t13.5 58.5l-69 69
q108 110 214 150zM182 142q19 -37 64 -46q7 -1 14 -1q28 0 57 19q12 8 27.5 23t31.5 40.5t30.5 63t24.5 90.5q8 44 8 79q0 38 -9 66q-12 44 -45 61q-19 10 -46 10q-3 0 -19 -0.5t-51 -14.5q-10 -4 -19.5 -8t-19.5 -9l-17 -45q-41 -105 -46 -159t-5 -72q0 -60 20 -97z" />
    <glyph glyph-name="idieresis" unicode="&#xef;" horiz-adv-x="479" 
d="M62 591q10 14 23.5 28t30 25.5t36.5 16.5q14 4 28 4q25 0 51 -12q14 -7 26.5 -16.5t23.5 -18.5q16 -14 26.5 -21.5t21.5 -7.5q10 0 19 6.5t17 16.5t14.5 22t11.5 24l72 -33q-10 -22 -20.5 -40t-23.5 -32q-24 -26 -48.5 -34.5t-41.5 -8.5q-33 0 -57 16t-43 32
q-20 17 -29.5 22.5t-18.5 5.5q-4 0 -8 -1q-13 -4 -29 -20t-30 -41l-69 40q7 12 17 27zM170 3l27 473l94 -6l-27 -473z" />
    <glyph glyph-name="exclamdown" unicode="&#xa1;" horiz-adv-x="507" 
d="M243 325l-43 81l114 62l43 -81zM305 -181l-92 5l24 437l92 -5z" />
    <glyph glyph-name="agrave" unicode="&#xe0;" horiz-adv-x="440" 
d="M285 704l84 -148l-79 -46l-85 148zM21 192q3 48 21 96t47 86.5t67 64.5q60 44 130 45q77 0 147 -52l-56 -76q-27 19 -50 25.5t-42 6.5q-2 0 -14 -0.5t-29.5 -8t-30.5 -17.5q-27 -19 -47.5 -47t-32.5 -60t-14 -52.5t-2 -28.5q0 -24 7 -45q10 -34 40 -34q29 2 62.5 48
t55.5 145v3l93 -19l-2 -13q-6 -43 -8 -63t-2 -30q0 -14 3 -29.5t14.5 -29t32.5 -26.5l-50 -80q-47 28 -72 70q-33 -42 -66 -55.5t-56 -14.5q-1 -1 -6 -1q-45 0 -80 28q-17 14 -30 32t-20 41q-11 35 -11 73q0 9 1 18z" />
    <glyph glyph-name="macron" unicode="&#xaf;" horiz-adv-x="413" 
d="M350 642l13 -91l-300 -45l-13 91z" />
    <glyph glyph-name="onequarter" unicode="&#xbc;" horiz-adv-x="699" 
d="M513 616l-361 -630l-79 46l360 630zM139 265l-89 8l35 370l89 -9zM649 120l-72 -13l-11 -116l-89 9l8 91l-101 -18l-50 62l105 238l70 -30l4 40l89 -8l-16 -175l47 9zM451 176l43 8l11 115z" />
    <glyph glyph-name="eth" unicode="&#xf0;" horiz-adv-x="515" 
d="M57 335q16 56 67 81q32 17 71 17t81 -16q-11 15 -21.5 29t-21.5 28l-83 -34l-35 85l46 19q-8 5 -15 9.5t-14 8.5l43 87q23 -12 45 -29t41 -35l110 45l35 -85l-80 -33q23 -29 43.5 -61.5t37.5 -64.5q26 -51 40.5 -101t16.5 -95v-17q0 -44 -13 -77q-18 -49 -59 -75
q-38 -25 -83 -25q-17 0 -33.5 3.5t-33.5 9.5q-31 12 -59.5 32.5t-52.5 47.5t-42 59.5t-28 67.5q-10 37 -10 69q0 27 7 50zM149 264q2 -13 4 -21q7 -24 19.5 -46.5t29 -41.5t35.5 -33.5t39 -21.5q19 -7 34 -7q17 0 29 9q22 14 25.5 37.5t3.5 35.5q0 27 -8 60q-34 42 -64 61.5
t-51 28.5q-28 11 -49 11q-16 0 -28 -6t-16.5 -17.5t-4.5 -24t2 -24.5z" />
    <glyph glyph-name="cent" unicode="&#xa2;" horiz-adv-x="410" 
d="M11 185q2 28 10 57.5t21 58.5q14 31 34 59.5t45 51.5q21 20 43 35.5t45 25.5l23 140l90 -16l-17 -105q34 -3 60 -17l-44 -84q-14 7 -31 7l-44 -276q20 14 41.5 36.5t48.5 53.5l71 -63q-27 -30 -55.5 -59.5t-58.5 -50.5q-33 -24 -65 -34l-20 -124l-91 15l17 104
q-43 9 -66.5 30t-34.5 42q-23 40 -23 96q0 8 1 17zM115 119q5 -8 11.5 -14.5t22.5 -9.5l40 251q-39 -36 -60 -84q-20 -43 -22 -66.5t-2 -30.5q0 -28 10 -46z" />
    <glyph glyph-name="igrave" unicode="&#xec;" horiz-adv-x="225" 
d="M125 704l84 -148l-79 -46l-85 148zM175 -3l-94 6l27 473l94 -6z" />
    <glyph glyph-name="fraction" unicode="&#x2044;" horiz-adv-x="540" 
d="M410 662l80 -46l-360 -630l-80 46z" />
    <glyph glyph-name="partialdiff" unicode="&#x2202;" horiz-adv-x="615" 
d="M107 335q16 56 67 81q32 17 71 17t81 -16q-35 51 -73.5 90t-70.5 55l43 87q38 -19 71 -50t56 -57q30 -35 57 -74.5t48 -81.5q26 -51 40.5 -101t16.5 -95v-17q0 -44 -13 -77q-18 -49 -59 -75q-38 -25 -83 -25q-17 0 -33.5 3.5t-33.5 9.5q-31 12 -59.5 32.5t-52.5 47.5
t-42 59.5t-28 67.5q-10 37 -10 69q0 27 7 50zM199 264q2 -13 4 -21q7 -24 19.5 -46.5t29 -41.5t35.5 -33.5t39 -21.5q19 -7 34 -7q17 0 29 9q22 14 25.5 37.5t3.5 35.5q0 27 -8 60q-34 42 -64 61.5t-51 28.5q-28 11 -49 11q-16 0 -28 -6t-16.5 -17.5t-4.5 -24t2 -24.5z" />
    <glyph glyph-name="product" unicode="&#x220f;" horiz-adv-x="650" 
d="M499 643l51 -48l-55 -705l-90 7l51 649l-213 -32l-53 -669l-90 7l56 705l38 41z" />
    <glyph glyph-name="summation" unicode="&#x2211;" horiz-adv-x="637" 
d="M107 204q14 42 43 77q25 30 60 57q-11 8 -18.5 17t-12.5 17q-22 34 -22.5 54t-0.5 21q0 38 20 75q33 63 115 101q81 40 193 40v-97q-45 0 -82.5 -8t-68.5 -22q-53 -24 -72 -60q-8 -15 -8 -28t7 -24q10 -15 33 -15q2 0 16 1t50 8q5 2 9 2l6 1q5 1 9 2l19 -95
q-30 -7 -63.5 -23t-62.5 -39q-30 -22 -50 -46t-26 -45q-3 -9 -3 -17q0 -16 13 -29q13 -14 41.5 -14t65.5 11t79.5 33t83.5 52l57 -78q-46 -34 -96 -60t-98 -40q-42 -13 -62 -14t-26 -1q-25 0 -47 5.5t-39.5 16.5t-28.5 23q-28 29 -34 55t-6 41q0 22 7 45z" />
    <glyph glyph-name="radical" unicode="&#x221a;" horiz-adv-x="993" 
d="M37 265l328 -327l584 713l69 -65l-614 -746l-66 -4l-363 356z" />
    <glyph glyph-name="infinity" unicode="&#x221e;" horiz-adv-x="855" 
d="M100 264q0 48 19 93t54 83q35 39 80 60.5t91 21.5q45 0 73.5 -14.5t45.5 -31.5q41 51 92 68q27 10 54 10q24 0 49 -8q44 -15 70 -53q27 -38 27 -90q0 -38 -13.5 -75.5t-36.5 -68.5q-28 -36 -64 -57t-78 -24q-7 -1 -14 -1q-49 0 -85 32q-44 -68 -107 -98q-47 -23 -92 -23
q-17 0 -34 3q-49 9 -82.5 43.5t-44.5 86.5q-4 17 -4 43zM526 283q10 -8 26 -8h4q26 2 43.5 15.5t28.5 27.5q14 18 22 40.5t8 44.5q0 41 -31 51q-7 3 -16 3q-11 0 -30 -6t-43 -37q-29 -38 -29 -81q0 -33 17 -50zM199 241q9 -47 50 -55q8 -2 16 -2q22 0 48 13q39 20 71 67
q13 20 20.5 43t7.5 46q0 27 -8 41.5t-19.5 21.5t-23 8t-17.5 1q-55 0 -100 -50q-23 -24 -35 -53.5t-12 -57.5v-12q0 -6 2 -11z" />
    <glyph glyph-name="integral" unicode="&#x222b;" horiz-adv-x="543" 
d="M50 -69l71 62q14 -17 27.5 -32t23.5 -23t17 -8q1 0 5 0.5t6 15.5l3 31l38 533q2 33 4.5 62t7.5 52q6 32 16 49q10 19 22.5 27.5t22.5 12.5q12 4 25 4q12 0 25 -4q19 -6 41 -22q19 -13 40.5 -34.5t47.5 -51.5l-71 -62q-14 16 -27.5 31t-23.5 23.5t-17 8.5q-1 0 -5 -0.5
t-6 -15.5q-2 -18 -3.5 -40t-3.5 -47l-35 -491q-2 -29 -4 -54t-7 -46q-4 -29 -15 -49q-11 -19 -23.5 -28t-22.5 -12q-12 -4 -24 -4q-13 0 -26 4q-19 7 -41 22q-19 13 -40.5 34.5t-47.5 51.5z" />
    <glyph glyph-name="approxequal" unicode="&#x2248;" horiz-adv-x="687" 
d="M119 428q12 17 28 33.5t35.5 30t42.5 19.5q17 4 34 4q29 0 57 -13q17 -8 31 -19t27 -22q18 -16 31 -25t25 -9t22.5 7.5t19.5 19t17 25.5t14 28l84 -37q-12 -27 -25 -47.5t-27 -37.5q-29 -31 -57 -40.5t-48 -9.5q-38 0 -66 18.5t-50 37.5q-23 20 -34.5 26t-20.5 6
q-5 0 -10 -1q-16 -4 -34.5 -23t-34.5 -48l-80 46q7 13 19 31zM119 224q12 17 28 33.5t35.5 30t42.5 19.5q17 4 34 4q29 0 57 -13q17 -8 31 -19t27 -22q18 -16 31 -25t25 -9t22.5 7.5t19.5 19t17 25.5t14 28l84 -37q-12 -27 -25 -47.5t-27 -37.5q-29 -31 -57 -40.5t-48 -9.5
q-38 0 -66 18.5t-50 37.5q-23 20 -34.5 26t-20.5 6q-5 0 -10 -1q-16 -4 -34.5 -23t-34.5 -48l-80 46q7 13 19 31z" />
    <glyph glyph-name="notequal" unicode="&#x2260;" horiz-adv-x="614" 
d="M241 244l20 125l-147 -22l-14 91l177 26l33 208l90 -16l-29 -178l129 20l14 -91l-158 -24l-20 -125l164 24l14 -91l-193 -29l-35 -222l-91 15l31 193l-112 -16l-14 91z" />
    <glyph glyph-name="lessequal" unicode="&#x2264;" horiz-adv-x="738" 
d="M148 344l11 87l391 179l38 -84l-314 -143l246 -126l-41 -82zM100 198l42 82l312 -155l-41 -82z" />
    <glyph glyph-name="greaterequal" unicode="&#x2265;" horiz-adv-x="721" 
d="M150 253l314 143l-246 126l41 82l331 -169l-11 -87l-391 -179zM239 28l-36 85l382 163l36 -85z" />
    <glyph glyph-name="lozenge" unicode="&#x25ca;" horiz-adv-x="912" 
d="M419 877h74l319 -533l-319 -531h-74l-319 531zM424 -176h64l312 520l-312 523h-64l-313 -523zM429 856h52l307 -512l-307 -511h-52l-305 511zM247 344l206 -355l207 355l-207 358zM259 344q48 85 97 168t97 168l196 -336l-196 -334zM270 344l183 -315l184 315l-184 317z
" />
    <glyph glyph-name="uniF8FF" unicode="&#xf8ff;" horiz-adv-x="784" 
d="M395 521q2 76 34 118.5t109 56.5v-12q0 -39 -8 -67t-25.5 -47t-44.5 -30.5t-65 -18.5zM100 333q0 37 12.5 73t36 65t56 47t71.5 18q34 0 65.5 -10.5t63.5 -17.5q29 6 57.5 16t59.5 10q43 0 79.5 -21.5t66.5 -49.5q-33 -22 -58 -54.5t-25 -74.5q0 -51 25.5 -86.5
t73.5 -55.5q-11 -22 -28.5 -54.5t-40 -62.5t-48.5 -51t-54 -21q-14 0 -27 4q-11 3 -20 7l-14 5q-9 4 -19 7q-14 4 -28 4q-15 0 -28 -4q-11 -4 -21 -8l-13 -5q-10 -4 -20 -7q-14 -5 -29 -5q-28 0 -53.5 18t-47 47.5t-39 66t-29.5 73.5t-18.5 70.5t-6.5 56.5z" />
    <glyph glyph-name="fi" unicode="&#xfb01;" horiz-adv-x="582" 
d="M125 421l6 84q2 33 4.5 62t7.5 52q6 32 16 49q10 19 22.5 27.5t22.5 12.5q12 4 25 4q12 0 25 -4q19 -6 41 -22q19 -13 40.5 -34.5t47.5 -51.5l-71 -62q-14 16 -27.5 31t-23.5 23.5t-17 8.5q-1 0 -5 -0.5t-6 -15.5q-2 -18 -3.5 -40t-3.5 -47l-5 -63l94 15l15 -94l-116 -18
l-26 -373l-95 7l25 352l-88 -14l-15 94zM407 631l114 61l45 -83l-114 -62zM420 -2l27 473l94 -6l-27 -473z" />
    <glyph glyph-name="fl" unicode="&#xfb02;" horiz-adv-x="565" 
d="M125 421l6 84q2 33 4.5 62t7.5 52q6 32 16 49q10 19 22.5 27.5t22.5 12.5q12 4 25 4q12 0 25 -4q19 -6 41 -22q19 -13 40.5 -34.5t47.5 -51.5l-71 -62q-14 16 -27.5 31t-23.5 23.5t-17 8.5q-1 0 -5 -0.5t-6 -15.5q-2 -18 -3.5 -40t-3.5 -47l-5 -63l94 15l15 -94l-116 -18
l-26 -373l-95 7l25 352l-88 -14l-15 94zM393 6l50 627l95 -8l-50 -626z" />
    <glyph glyph-name="uni0492" unicode="&#x492;" horiz-adv-x="512" 
d="M142 290l23 283l329 80l23 -95l-260 -64l-14 -178l188 44l22 -96l-218 -50l-18 -214h-98l15 194l-75 -16l-14 91z" />
    <glyph glyph-name="uni0493" unicode="&#x493;" horiz-adv-x="452" 
d="M142 207l19 223l273 68l23 -95l-204 -52l-10 -118l132 32l22 -96l-162 -38l-12 -131h-98l9 111l-75 -16l-14 91z" />
    <glyph glyph-name="uni0498" unicode="&#x498;" 
d="M31 529q46 34 96 60t98 40q42 13 61.5 14t25.5 1q25 0 47.5 -5.5t40 -16.5t28.5 -23q28 -29 34 -55t6 -41q0 -22 -7 -45q-14 -42 -43 -77q-26 -30 -60 -57q11 -8 18.5 -17t12.5 -17q22 -34 22.5 -54t0.5 -21q0 -38 -20 -75q-28 -53 -89 -88q53 -51 53 -106q0 -59 -42 -92
q-34 -28 -93 -32q-10 -1 -21 -1q-51 0 -120 16l21 86q42 -10 63.5 -11.5t33.5 -1.5t26 1.5t23 5.5t12 7q3 2 6 5.5t3 9.5q0 3 -1 7v1q0 6 -6.5 19t-37.5 38q-3 2 -6 5t-7 5q-59 -15 -126 -15v97q45 0 82.5 8t68.5 22q52 24 72 60q8 15 8 28t-7 24q-10 15 -33 15q-2 0 -16 -1
t-50 -8q-4 -1 -9 -2l-6 -1q-4 0 -9 -2l-19 95q30 7 63.5 23t62.5 39q30 22 50 46t26 45q3 9 3 17q0 16 -13 29t-41.5 13t-65.5 -11t-79.5 -32.5t-83.5 -51.5z" />
    <glyph glyph-name="uni0499" unicode="&#x499;" horiz-adv-x="406" 
d="M31 -163l21 86q42 -10 63.5 -11.5t33.5 -1.5t26 1.5t23 5.5t12 7q3 2 6 5.5t3 9.5q0 3 -1 7v1q0 6 -6.5 19t-37.5 38l-1 1q-21 -5 -44 -7.5t-48 -2.5v95q63 0 101.5 18.5t50.5 40.5q5 9 5 14q0 2 -1 5.5t-3 5.5q-1 2 -2.5 3t-9.5 2h-6q-8 0 -18.5 -2t-22.5 -4l-18 -3
l-18 93q20 5 43.5 16t43.5 27q40 29 51 60q1 3 1 6q0 7 -6 15q-7 7 -24.5 7t-40.5 -7q-27 -8 -57.5 -24.5t-57.5 -36.5l-57 77q35 25 72.5 44.5t72.5 30.5q33 10 48.5 10.5t19.5 0.5q21 0 39 -4t31.5 -13t22.5 -19q23 -24 27.5 -45t4.5 -34q0 -17 -5 -36q-8 -26 -26 -50
t-42 -45q5 -4 8 -8t6 -9q18 -29 18 -62q0 -32 -16 -60q-19 -34 -54 -59q45 -48 45 -99q0 -59 -42 -92q-34 -28 -93 -32q-10 -1 -21 -1q-51 0 -120 16z" />
    <glyph glyph-name="uni04A0" unicode="&#x4a0;" horiz-adv-x="565" 
d="M45 606h187l-22 -259l279 299l71 -67l-288 -309l208 -195l-67 -72l-215 203l-18 -208l-98 8l44 508h-81v92z" />
    <glyph glyph-name="uni04A1" unicode="&#x4a1;" horiz-adv-x="505" 
d="M45 489h187l-12 -154l217 193l63 -71l-219 -195l155 -202l-75 -57l-152 196l-15 -201l-95 8l30 391h-84v92z" />
    <glyph glyph-name="uni04A2" unicode="&#x4a2;" horiz-adv-x="636" 
d="M566 -180l-97 14l37 178l-150 -6l28 241l-226 -42l-15 -206l-98 7l42 584l98 -7l-20 -277l232 44l38 299l97 -12l-67 -528l58 3l83 -92z" />
    <glyph glyph-name="uni04A3" unicode="&#x4a3;" horiz-adv-x="636" 
d="M566 -180l-97 14l37 178l-150 -6l19 184l-220 -40l-12 -151l-98 7l28 435l98 -7l-15 -185l232 44l33 207l97 -12l-52 -379l57 3l83 -92z" />
    <glyph glyph-name="uni04AA" unicode="&#x4aa;" horiz-adv-x="508" 
d="M38 274q4 32 12 59q14 51 35.5 96t50.5 83q57 81 135 116q43 20 86 20q44 0 87 -21l-43 -88q-22 10 -44 11q-23 -1 -46 -11q-26 -12 -51 -34.5t-46.5 -53t-39.5 -67.5t-29 -77q-12 -40 -12 -80q0 -9 2 -37.5t21 -58.5q19 -31 56 -37q9 -2 18 -2q39 0 79 31q56 43 104 129
l85 -47q-76 -136 -167 -185q25 -34 25 -74q0 -59 -42 -92q-34 -28 -93 -32q-10 -1 -21 -1q-51 0 -120 16l21 86q42 -10 63.5 -11.5t33.5 -1.5t26 1.5t23 5.5t12 7q3 2 6 5.5t3 9.5q0 3 -1 7v2q0 5 -5 15.5t-27 30.5h-5q-18 0 -34 3q-39 7 -70.5 27.5t-52.5 54.5
q-18 28 -26.5 61t-10 55.5t-1.5 34.5q0 22 3 44z" />
    <glyph glyph-name="uni04AB" unicode="&#x4ab;" horiz-adv-x="442" 
d="M36 185q2 28 10 57.5t21 58.5q14 31 34 59.5t45 51.5q51 49 108 69q34 11 65 11q38 0 71 -17l-44 -84q-13 7 -26 7q-3 0 -12.5 -1t-22.5 -6q-39 -14 -75 -49t-56 -80q-20 -43 -22 -66.5t-2 -30.5q0 -28 10 -46q5 -8 14.5 -16t32.5 -10h10q15 0 31.5 5t37 19.5t43.5 38
t52 56.5l71 -63q-27 -30 -55.5 -59.5t-58.5 -50.5q-1 -1 -3 -2l-5 -4q-1 -1 -3 -2q33 -42 33 -85q0 -59 -42 -92q-34 -28 -93 -32q-10 -1 -21 -1q-51 0 -120 16l21 86q42 -10 63.5 -11.5t33.5 -1.5t26 1.5t23 5.5t12 7q3 2 6 5.5t3 9.5q0 3 -1 7v2q0 5 -5.5 16.5t-31.5 33.5
q-4 -1 -8 -1h-8h-5l-11 1h-5q-51 6 -79 28.5t-40 45.5q-23 40 -23 96q0 8 1 17z" />
    <glyph glyph-name="uni04AE" unicode="&#x4ae;" horiz-adv-x="470" 
d="M433 644l77 -61l-246 -321l-21 -264l-98 8l21 263l-161 261l83 52l133 -216z" />
    <glyph glyph-name="uni04AF" unicode="&#x4af;" horiz-adv-x="470" 
d="M433 464l77 -61l-246 -321l-21 -264l-98 8l21 263l-161 261l83 52l133 -216z" />
    <glyph glyph-name="uni04BA" unicode="&#x4ba;" horiz-adv-x="463" 
d="M90 646l94 -7l-26 -346q26 57 57.5 102.5t68.5 71.5q32 22 45 22.5t15 0.5q21 0 36 -6q14 -5 31 -22t26 -52q5 -25 5 -55q0 -21 -2 -44q-3 -22 -6.5 -53t-6.5 -64l-7 -67q-4 -34 -6.5 -60.5t-3.5 -43.5l-2 -17l-95 9q0 1 3.5 36.5t8 84.5t10 100.5t10.5 85.5q1 11 1 19
q0 27 -7 28t-8 1q-19 0 -54 -46q-10 -13 -24 -37t-29.5 -54.5t-31 -64.5t-28 -65.5t-20.5 -58.5t-9 -44l-95 7z" />
    <glyph glyph-name="uni04BB" unicode="&#x4bb;" horiz-adv-x="462" 
d="M40 17l49 489l95 -10l-27 -264q14 27 32 51.5t36.5 45t35 34.5t27.5 19q29 14 51 14q2 0 15 -1t28 -8q35 -16 47.5 -47t12.5 -61q0 -16 -3 -34q-4 -26 -9.5 -65t-10.5 -76t-8.5 -63.5t-3.5 -27.5l-94 12q0 3 3.5 30t8.5 64t10.5 76t9.5 65v8q0 6 -1 15t-5.5 11t-7.5 2
q-6 0 -19 -7.5t-38 -40.5q-14 -19 -32 -45t-37 -57.5t-37.5 -66.5t-33.5 -71l-3 -8z" />
    <glyph glyph-name="uni04D8" unicode="&#x4d8;" horiz-adv-x="572" 
d="M36 207q16 41 51 79q75 80 227 131l30 -90q-80 -27 -124 -56t-64 -50q-36 -38 -36 -71q0 -5 1 -10q3 -20 21.5 -32.5t45.5 -12.5q36 0 70.5 16.5t65 43.5t55 61.5t39.5 69.5q24 60 26 90t2 38q0 41 -15 72q-22 46 -77 60q-23 6 -46 6q-37 0 -85.5 -21t-120.5 -91l-67 67
q84 84 165 117q52 23 108 23q34 0 70 -9q97 -25 138 -109q25 -52 25 -119v-14q-5 -71 -36 -147q-19 -45 -50 -88t-69 -77q-95 -84 -198 -84q-30 0 -57 8.5t-49 24.5q-44 35 -55 92q-2 12 -2 25q0 28 11 57z" />
    <glyph glyph-name="uni04D9" unicode="&#x4d9;" horiz-adv-x="449" 
d="M34 165q12 32 39 61q56 59 166 96l30 -90q-54 -19 -83.5 -38t-43.5 -33q-21 -24 -21 -42v-4q3 -20 34 -20q26 0 48.5 12.5t37.5 26.5q20 17 36.5 40.5t26.5 46.5q16 38 17.5 58.5t1.5 26.5q0 26 -9 45q-13 27 -45 35q-13 3 -21.5 3.5t-9.5 0.5q-15 0 -34.5 -6.5
t-44.5 -22.5t-55 -46l-67 67q32 31 61.5 52.5t58.5 33.5q45 17 83 17q29 0 53 -7q75 -20 106 -84q11 -23 15.5 -44t4.5 -41q0 -8 -1 -16q-3 -50 -26 -108q-14 -34 -37 -65.5t-51 -56.5q-72 -63 -149 -63q-51 0 -85.5 27.5t-42.5 72.5q-1 9 -1 19q0 23 8 46z" />
    <glyph glyph-name="uni04E8" unicode="&#x4e8;" horiz-adv-x="468" 
d="M-47 474q108 110 214 150q56 22 106 22q49 0 91 -22q69 -38 93 -120q13 -43 13 -94q0 -45 -10 -97q-18 -101 -60 -173q-39 -71 -95 -107q-53 -36 -111 -36q-19 0 -35 3q-89 18 -130 95q-32 57 -32 144q0 25 3 53q3 26 8.5 54.5t13.5 58.5zM104 328l266 40q2 21 2 39
q0 40 -9 69q-12 44 -45 61q-19 10 -46 10q-3 0 -19 -0.5t-51 -14.5q-10 -4 -19.5 -8t-19.5 -9l-17 -45q-30 -74 -42 -142zM95 234q0 -57 20 -92q19 -37 64 -46q7 -1 14 -1q28 0 57 19q10 7 23 18.5t26.5 30.5t26.5 45.5t24 63.5z" />
    <glyph glyph-name="uni04E9" unicode="&#x4e9;" horiz-adv-x="417" 
d="M229 478q29 9 46 10.5t26 1.5q14 0 30 -2.5t31 -8.5t26 -13q50 -32 66 -98q5 -23 5 -48q0 -41 -13 -88q-18 -66 -46 -111t-61 -73t-67.5 -40.5t-64.5 -12.5q-29 0 -55.5 14.5t-45.5 40.5q-11 16 -20.5 39t-13 49.5t-3.5 50.5q0 14 1.5 42.5t13.5 83.5l-44 51
q97 85 189 112zM171 268l191 29q1 13 1 24q0 15 -2 27q-6 26 -24 38q-13 8 -24 8.5t-12 0.5q-21 0 -45 -8q-30 -10 -61 -27q-9 -26 -14.5 -49t-9.5 -43zM172 127q6 -16 11 -22q10 -15 24 -15q12 0 27.5 5t32.5 17.5t34 33.5t32 53l-169 -25q2 -31 8 -47z" />
    <glyph glyph-name="uni2105" unicode="&#x2105;" horiz-adv-x="916" 
d="M209 32l360 630l80 -46l-361 -630zM51 406q3 44 24 89q21 48 59 84.5t83 51.5q27 10 52 10q29 0 56 -14l-41 -80q-7 4 -14 4q-3 0 -9 -1t-14 -4q-27 -9 -51.5 -33.5t-38.5 -54.5q-15 -34 -16 -48.5t-1 -18.5q0 -19 6 -29q2 -5 7.5 -8.5t19.5 -5.5h7q22 0 46 19t65 65
l68 -60q-20 -23 -41.5 -44.5t-44.5 -37.5q-44 -32 -93 -32h-17q-42 5 -63.5 23.5t-31.5 35.5q-18 32 -18 73q0 8 1 16zM528 300q31 25 55 39l7 5q24 14 47 25t45 17q32 9 57 9q12 0 33.5 -4.5t38.5 -16.5q42 -29 51 -81q3 -17 3 -36q0 -33 -10 -70q-15 -51 -38 -86t-49 -57
t-53.5 -31.5t-52.5 -9.5q-61 0 -95 48q-27 36 -27 93v8q0 12 1 25.5t4 28.5l-53 65zM632 148q0 -20 3.5 -30t6.5 -13q6 -10 20 -10q10 0 23.5 5t28 18.5t28.5 36t24 57.5q7 26 7 46q0 5 -1 18.5t-12 21.5q-6 4 -23 4q-5 0 -20.5 -1t-57.5 -24l-2 -5q-15 -44 -20 -72t-5 -46
v-6z" />
    <glyph glyph-name="Pi" unicode="&#x3a0;" horiz-adv-x="650" 
d="M499 643l51 -48l-55 -705l-90 7l51 649l-213 -32l-53 -669l-90 7l56 705l38 41z" />
    <glyph glyph-name="uni007F" horiz-adv-x="739" 
d="M182 231q0 47 9 88l-78 -12l-13 91l122 18q12 29 27.5 56t32.5 51q59 80 134 115q42 20 84 20q1 0 23 -0.5t64 -20.5l-41 -83q-21 11 -44 11q-24 0 -49 -11q-33 -15 -64 -46.5t-56 -74.5l67 10l13 -91l-124 -19q-1 -4 -2 -7.5t-2 -5.5q-5 -19 -7.5 -38t-3.5 -37l126 18
l13 -91l-122 -18l6 -12q19 -31 59 -39q8 -1 17 -1q40 0 82 31q28 20 53.5 52.5t50.5 77.5l80 -44q-57 -103 -124.5 -156t-140.5 -53q-18 0 -34 3q-78 12 -120 80q-8 11 -13 23l-10 24l-84 -12l-13 91z" />
    <glyph glyph-name="uni2109" unicode="&#x2109;" horiz-adv-x="738" 
d="M423 0h-98l46 573l329 80l23 -95l-260 -64l-14 -178l188 44l22 -96l-218 -50zM24 525q17 45 58 77q26 20 56 30.5t60 10.5q64 0 101 -40q16 -17 22.5 -37t6.5 -39v-10q-3 -35 -20.5 -64.5t-46.5 -52.5q-26 -20 -57 -31t-62 -11q-43 0 -75 22q-32 23 -45 59q-7 20 -7 40
q0 23 9 46zM103 466q8 -23 39 -23q17 0 34 6t31.5 17t24 26t11.5 32v5q0 5 -2 9.5t-4 6.5q-13 13 -39 13q-32 0 -64 -23q-24 -19 -28.5 -33.5t-4.5 -23.5q0 -7 2 -12z" />
    <glyph glyph-name="uni2103" unicode="&#x2103;" horiz-adv-x="769" 
d="M294 274q4 32 12 59q14 51 35.5 96t50.5 83q57 81 135 116q43 20 86 20q44 0 87 -21l-43 -88q-22 10 -44 11q-23 -1 -46 -11q-26 -12 -51 -34.5t-46.5 -53t-39.5 -67.5t-29 -77q-12 -40 -12 -80q0 -9 2 -37.5t21 -58.5q19 -31 56 -37q9 -2 18 -2q39 0 79 31
q56 43 104 129l85 -47q-57 -103 -125 -157t-143 -54q-18 0 -34 3q-39 7 -70.5 27.5t-52.5 54.5q-18 28 -26.5 61t-10 55.5t-1.5 34.5q0 22 3 44zM24 525q17 45 58 77q26 20 56 30.5t60 10.5q64 0 101 -40q16 -17 22.5 -37t6.5 -39v-10q-3 -35 -20.5 -64.5t-46.5 -52.5
q-26 -20 -57 -31t-62 -11q-43 0 -75 22q-32 23 -45 59q-7 20 -7 40q0 23 9 46zM103 466q8 -23 39 -23q17 0 34 6t31.5 17t24 26t11.5 32v5q0 5 -2 9.5t-4 6.5q-13 13 -39 13q-32 0 -64 -23q-24 -19 -28.5 -33.5t-4.5 -23.5q0 -7 2 -12z" />
    <glyph glyph-name="Euro" unicode="&#x20ac;" horiz-adv-x="544" 
d="M82 274q4 29 11 54l-82 -12l-14 91l131 19q1 2 2 3q21 45 50 83q57 81 135 116q43 20 86 20q44 0 87 -21l-43 -88q-22 10 -44 11q-23 -1 -46 -11q-26 -12 -51 -34.5t-46 -52.5q-3 -4 -5 -7l144 22l14 -91l-210 -32q-7 -18 -12 -37l-6 -22l159 25l14 -91l-177 -27v-2
q2 -29 21 -59q19 -31 56 -37q9 -2 18 -2q39 0 79 31q56 43 104 129l85 -47q-57 -103 -125 -157t-143 -54q-18 0 -34 3q-39 7 -70.5 27.5t-52.5 54.5q-18 28 -26 61q-6 20 -8 37l-73 -11l-14 91l85 13q1 2 1 4z" />
  </font>
</defs>
</svg>
